{"glyphs":{"0":{"ha":843,"x_min":65,"x_max":778,"o":"m 422 1019 q 611 960 531 1019 q 734 784 691 901 q 778 500 778 668 q 735 217 778 332 q 611 44 692 102 q 421 -13 531 -13 q 231 44 310 -13 q 108 216 151 102 q 65 498 65 331 q 109 784 65 667 q 233 960 153 901 q 422 1019 313 1019 m 422 94 q 588 191 533 94 q 643 499 643 288 q 587 813 643 714 q 422 913 531 913 q 255 813 311 913 q 198 499 198 713 q 255 192 198 290 q 422 94 311 94 z "},"1":{"ha":558,"x_min":63,"x_max":386,"o":"m 258 801 l 63 801 l 63 884 q 202 897 151 884 q 273 936 252 910 q 297 1004 294 962 l 386 1004 l 386 0 l 258 0 l 258 801 z "},"2":{"ha":842,"x_min":74,"x_max":765,"o":"m 96 118 q 137 272 96 208 q 236 378 178 336 q 390 473 294 420 q 518 551 472 518 q 597 628 565 583 q 628 733 628 674 q 603 824 628 785 q 533 886 578 864 q 426 908 487 908 q 311 883 360 908 q 232 811 261 858 q 198 703 203 765 l 74 703 q 118 863 76 791 q 239 976 159 934 q 431 1018 319 1018 q 605 983 531 1018 q 719 883 679 947 q 760 733 760 818 q 719 580 760 644 q 622 476 679 516 q 469 385 564 435 q 343 310 390 342 q 266 235 297 279 q 235 131 235 191 l 235 110 l 765 110 l 765 0 l 96 0 l 96 118 z "},"3":{"ha":858,"x_min":58,"x_max":796,"o":"m 72 713 q 117 876 72 806 q 242 982 163 945 q 416 1018 320 1018 q 600 988 520 1018 q 724 899 680 957 q 769 760 769 841 q 720 623 769 683 q 576 531 672 564 q 738 438 679 503 q 796 276 796 372 q 747 122 796 188 q 613 21 699 56 q 417 -14 526 -14 q 232 23 313 -14 q 107 128 152 60 q 58 288 61 196 l 183 288 q 258 144 196 195 q 415 93 320 93 q 545 116 490 93 q 631 181 601 139 q 661 278 661 223 q 628 380 661 338 q 536 445 594 423 q 406 469 478 468 l 315 470 l 315 576 l 401 578 q 520 604 466 579 q 604 669 574 628 q 635 756 635 709 q 608 834 635 798 q 532 892 582 871 q 415 914 483 914 q 309 892 358 914 q 228 825 260 870 q 195 713 197 779 l 72 713 z "},"4":{"ha":863,"x_min":56,"x_max":818,"o":"m 651 1004 l 651 369 l 818 369 l 818 258 l 651 258 l 651 0 l 529 0 l 529 258 l 56 258 l 56 373 l 524 1004 l 651 1004 m 526 369 l 526 840 l 175 369 l 526 369 z "},"5":{"ha":897,"x_min":67,"x_max":820,"o":"m 760 1004 l 756 897 l 269 897 l 243 567 q 482 655 335 655 q 651 617 574 655 q 774 506 728 579 q 820 328 820 432 q 775 148 820 226 q 648 28 730 70 q 456 -14 565 -14 q 285 18 365 -14 q 150 109 206 51 q 67 244 93 168 l 176 288 q 282 144 213 197 q 448 91 351 91 q 574 119 519 91 q 657 200 628 147 q 687 324 687 253 q 656 442 687 390 q 573 521 626 493 q 458 549 521 549 q 377 541 412 549 q 308 511 342 533 q 236 449 273 490 q 230 447 232 447 q 223 449 228 447 l 117 481 l 163 1004 l 760 1004 z "},"6":{"ha":855,"x_min":65,"x_max":792,"o":"m 456 1026 q 610 995 540 1026 q 726 905 681 964 q 783 767 772 847 l 665 767 q 591 881 644 840 q 458 922 537 922 q 266 824 333 922 q 199 542 199 726 q 201 481 199 513 q 259 572 220 533 q 350 633 297 611 q 461 655 402 655 q 635 616 560 655 q 751 506 710 578 q 792 336 792 434 q 750 159 792 236 q 629 38 708 81 q 445 -5 550 -5 q 244 55 330 -5 q 112 227 158 115 q 65 495 65 340 q 110 776 65 657 q 243 961 156 896 q 456 1026 331 1026 m 442 553 q 336 527 387 553 q 253 457 285 501 q 222 362 222 413 q 248 225 221 285 q 327 131 276 165 q 444 97 378 97 q 555 127 506 97 q 631 209 603 156 q 658 331 658 263 q 602 494 658 435 q 442 553 546 553 z "},"7":{"ha":814,"x_min":58,"x_max":760,"o":"m 760 1004 l 760 897 q 589 606 674 776 q 445 269 503 435 q 374 0 386 103 l 239 0 q 305 252 256 103 q 435 572 353 401 q 623 897 516 742 l 58 897 l 58 1004 l 760 1004 z "},"8":{"ha":893,"x_min":65,"x_max":828,"o":"m 447 1021 q 619 989 543 1021 q 740 895 696 957 q 783 749 783 833 q 741 617 783 670 q 625 532 699 563 q 723 484 676 522 q 799 392 769 447 q 828 281 828 338 q 781 131 828 195 q 648 31 734 66 q 447 -5 561 -5 q 245 31 332 -5 q 112 131 159 66 q 65 281 65 195 q 94 392 65 338 q 170 484 124 447 q 268 532 217 522 q 151 617 194 563 q 109 749 109 670 q 153 895 109 833 q 273 989 197 956 q 447 1021 350 1021 m 447 585 q 599 628 542 585 q 656 751 656 672 q 629 845 656 805 q 555 906 603 885 q 447 928 508 928 q 338 906 385 928 q 264 845 290 885 q 238 751 238 805 q 295 628 238 672 q 447 585 352 585 m 447 95 q 577 118 521 95 q 664 183 633 141 q 694 281 694 226 q 663 381 694 338 q 577 450 633 425 q 447 474 521 474 q 317 450 373 474 q 230 381 260 425 q 199 281 199 338 q 230 183 199 226 q 316 118 260 141 q 447 95 372 95 z "},"9":{"ha":865,"x_min":69,"x_max":797,"o":"m 402 -6 q 247 26 319 -6 q 128 116 175 57 q 69 253 81 174 l 190 253 q 263 141 208 183 q 398 99 319 99 q 601 195 528 99 q 673 487 673 291 q 672 542 673 503 q 617 448 655 489 q 525 384 578 406 q 408 361 472 361 q 233 400 309 361 q 116 512 158 439 q 74 684 74 585 q 116 862 74 785 q 236 982 158 940 q 419 1025 314 1025 q 619 965 534 1025 q 751 793 705 906 q 797 525 797 681 q 751 239 797 358 q 617 57 706 119 q 402 -6 528 -6 m 421 467 q 528 493 476 467 q 611 564 579 519 q 642 658 642 608 q 616 795 643 735 q 537 889 588 856 q 419 923 486 923 q 310 894 358 923 q 236 811 263 865 q 209 690 209 758 q 264 527 209 586 q 421 467 319 467 z "},"\r":{"ha":324,"x_min":0,"x_max":0,"o":""}," ":{"ha":333,"x_min":0,"x_max":0,"o":""},"A":{"ha":981,"x_min":56,"x_max":924,"o":"m 420 1004 l 562 1004 l 924 0 l 797 0 l 698 277 l 285 277 l 183 0 l 56 0 l 420 1004 m 664 392 l 492 881 l 317 392 l 664 392 z "},"Á":{"ha":981,"x_min":56,"x_max":924,"o":"m 420 1004 l 562 1004 l 924 0 l 797 0 l 698 277 l 285 277 l 183 0 l 56 0 l 420 1004 m 664 392 l 492 881 l 317 392 l 664 392 m 676 1208 l 327 1105 l 306 1169 l 644 1303 l 676 1208 z "},"Ă":{"ha":981,"x_min":56,"x_max":924,"o":"m 420 1004 l 562 1004 l 924 0 l 797 0 l 698 277 l 285 277 l 183 0 l 56 0 l 420 1004 m 664 392 l 492 881 l 317 392 l 664 392 m 704 1288 q 664 1215 692 1249 q 592 1160 635 1181 q 494 1140 548 1140 q 359 1181 413 1140 q 288 1288 304 1223 l 379 1288 q 423 1236 397 1257 q 494 1216 449 1216 q 610 1288 568 1216 l 704 1288 z "},"Ắ":{"ha":981,"x_min":56,"x_max":924,"o":"m 420 1004 l 562 1004 l 924 0 l 797 0 l 698 277 l 285 277 l 183 0 l 56 0 l 420 1004 m 664 392 l 492 881 l 317 392 l 664 392 z "},"Ặ":{"ha":981,"x_min":56,"x_max":924,"o":"m 420 1004 l 562 1004 l 924 0 l 797 0 l 698 277 l 285 277 l 183 0 l 56 0 l 420 1004 m 664 392 l 492 881 l 317 392 l 664 392 m 704 1288 q 664 1215 692 1249 q 592 1160 635 1181 q 494 1140 548 1140 q 359 1181 413 1140 q 288 1288 304 1223 l 379 1288 q 423 1236 397 1257 q 494 1216 449 1216 q 610 1288 568 1216 l 704 1288 z "},"Ằ":{"ha":981,"x_min":56,"x_max":924,"o":"m 420 1004 l 562 1004 l 924 0 l 797 0 l 698 277 l 285 277 l 183 0 l 56 0 l 420 1004 m 664 392 l 492 881 l 317 392 l 664 392 z "},"Ẳ":{"ha":981,"x_min":56,"x_max":924,"o":"m 420 1004 l 562 1004 l 924 0 l 797 0 l 698 277 l 285 277 l 183 0 l 56 0 l 420 1004 m 664 392 l 492 881 l 317 392 l 664 392 z "},"Ẵ":{"ha":981,"x_min":56,"x_max":924,"o":"m 420 1004 l 562 1004 l 924 0 l 797 0 l 698 277 l 285 277 l 183 0 l 56 0 l 420 1004 m 664 392 l 492 881 l 317 392 l 664 392 z "},"Â":{"ha":981,"x_min":56,"x_max":924,"o":"m 420 1004 l 562 1004 l 924 0 l 797 0 l 698 277 l 285 277 l 183 0 l 56 0 l 420 1004 m 664 392 l 492 881 l 317 392 l 664 392 m 492 1230 l 387 1137 l 274 1137 l 449 1295 l 538 1295 l 708 1137 l 589 1137 l 492 1230 z "},"Ấ":{"ha":981,"x_min":56,"x_max":924,"o":"m 420 1004 l 562 1004 l 924 0 l 797 0 l 698 277 l 285 277 l 183 0 l 56 0 l 420 1004 m 664 392 l 492 881 l 317 392 l 664 392 z "},"Ậ":{"ha":981,"x_min":56,"x_max":924,"o":"m 420 1004 l 562 1004 l 924 0 l 797 0 l 698 277 l 285 277 l 183 0 l 56 0 l 420 1004 m 664 392 l 492 881 l 317 392 l 664 392 m 490 1230 l 385 1137 l 273 1137 l 447 1295 l 537 1295 l 707 1137 l 588 1137 l 490 1230 z "},"Ầ":{"ha":981,"x_min":56,"x_max":924,"o":"m 420 1004 l 562 1004 l 924 0 l 797 0 l 698 277 l 285 277 l 183 0 l 56 0 l 420 1004 m 664 392 l 492 881 l 317 392 l 664 392 z "},"Ẩ":{"ha":981,"x_min":56,"x_max":924,"o":"m 420 1004 l 562 1004 l 924 0 l 797 0 l 698 277 l 285 277 l 183 0 l 56 0 l 420 1004 m 664 392 l 492 881 l 317 392 l 664 392 z "},"Ẫ":{"ha":981,"x_min":56,"x_max":924,"o":"m 420 1004 l 562 1004 l 924 0 l 797 0 l 698 277 l 285 277 l 183 0 l 56 0 l 420 1004 m 664 392 l 492 881 l 317 392 l 664 392 z "},"Ȁ":{"ha":981,"x_min":56,"x_max":924,"o":"m 420 1004 l 562 1004 l 924 0 l 797 0 l 698 277 l 285 277 l 183 0 l 56 0 l 420 1004 m 664 392 l 492 881 l 317 392 l 664 392 m 447 1115 l 406 1063 l 196 1229 l 260 1306 l 447 1115 m 672 1115 l 630 1063 l 420 1229 l 485 1306 l 672 1115 z "},"Ä":{"ha":981,"x_min":56,"x_max":924,"o":"m 420 1004 l 562 1004 l 924 0 l 797 0 l 698 277 l 285 277 l 183 0 l 56 0 l 420 1004 m 664 392 l 492 881 l 317 392 l 664 392 m 306 1283 l 438 1283 l 438 1153 l 306 1153 l 306 1283 m 539 1283 l 672 1283 l 672 1153 l 539 1153 l 539 1283 z "},"Ạ":{"ha":981,"x_min":56,"x_max":924,"o":"m 420 1004 l 562 1004 l 924 0 l 797 0 l 698 277 l 285 277 l 183 0 l 56 0 l 420 1004 m 664 392 l 492 881 l 317 392 l 664 392 z "},"À":{"ha":981,"x_min":56,"x_max":924,"o":"m 420 1004 l 562 1004 l 924 0 l 797 0 l 698 277 l 285 277 l 183 0 l 56 0 l 420 1004 m 664 392 l 492 881 l 317 392 l 664 392 m 659 1169 l 638 1105 l 289 1208 l 321 1303 l 659 1169 z "},"Ả":{"ha":981,"x_min":56,"x_max":924,"o":"m 420 1004 l 562 1004 l 924 0 l 797 0 l 698 277 l 285 277 l 183 0 l 56 0 l 420 1004 m 664 392 l 492 881 l 317 392 l 664 392 m 433 1256 q 490 1275 462 1275 q 534 1252 519 1275 q 542 1226 542 1239 q 529 1191 542 1208 q 494 1159 517 1173 l 531 1101 q 594 1158 572 1126 q 616 1224 616 1190 q 594 1292 616 1259 q 551 1331 577 1317 q 494 1344 525 1344 q 396 1313 444 1344 l 433 1256 z "},"Ȃ":{"ha":981,"x_min":56,"x_max":924,"o":"m 420 1004 l 562 1004 l 924 0 l 797 0 l 698 277 l 285 277 l 183 0 l 56 0 l 420 1004 m 664 392 l 492 881 l 317 392 l 664 392 m 605 1197 q 488 1269 561 1269 q 417 1249 442 1269 q 373 1197 392 1228 l 281 1197 q 320 1273 292 1240 q 391 1326 348 1307 q 488 1346 433 1346 q 585 1325 542 1346 q 658 1270 629 1304 q 699 1197 687 1237 l 605 1197 z "},"Ā":{"ha":981,"x_min":56,"x_max":924,"o":"m 420 1004 l 562 1004 l 924 0 l 797 0 l 698 277 l 285 277 l 183 0 l 56 0 l 420 1004 m 664 392 l 492 881 l 317 392 l 664 392 m 696 1184 l 285 1184 l 285 1272 l 696 1272 l 696 1184 z "},"Ą":{"ha":981,"x_min":56,"x_max":958,"o":"m 859 -164 q 915 -156 889 -164 q 958 -138 941 -149 l 958 -204 q 904 -224 940 -215 q 831 -233 869 -233 q 729 -203 764 -233 q 694 -123 694 -174 q 718 -53 694 -83 q 804 0 743 -23 l 797 0 l 698 277 l 285 277 l 183 0 l 56 0 l 420 1004 l 562 1004 l 923 3 l 927 3 l 924 1 l 924 0 l 921 0 q 824 -55 853 -29 q 794 -112 794 -80 q 810 -151 794 -138 q 859 -164 825 -164 m 664 392 l 492 881 l 317 392 l 664 392 z "},"Å":{"ha":981,"x_min":56,"x_max":924,"o":"m 420 1004 l 562 1004 l 924 0 l 797 0 l 698 277 l 285 277 l 183 0 l 56 0 l 420 1004 m 664 392 l 492 881 l 317 392 l 664 392 m 634 1230 q 615 1158 634 1190 q 563 1106 596 1125 q 491 1088 531 1088 q 419 1107 451 1088 q 367 1159 386 1126 q 349 1233 349 1192 q 368 1302 349 1270 q 419 1352 387 1333 q 491 1371 452 1371 q 563 1352 531 1371 q 615 1301 596 1333 q 634 1230 634 1269 m 564 1230 q 543 1283 564 1263 q 490 1304 522 1304 q 437 1283 459 1304 q 415 1230 415 1262 q 437 1176 415 1199 q 490 1153 460 1153 q 542 1176 520 1153 q 564 1230 564 1199 z "},"Ǻ":{"ha":981,"x_min":56,"x_max":924,"o":"m 924 0 l 797 0 l 698 277 l 285 277 l 183 0 l 56 0 l 408 972 q 366 1020 381 990 q 351 1086 351 1050 q 383 1172 351 1135 q 464 1217 415 1208 l 485 1306 l 580 1306 l 540 1210 q 605 1162 581 1196 q 630 1083 630 1128 q 615 1020 630 1049 q 574 972 600 991 l 924 0 m 488 1157 q 435 1135 458 1157 q 413 1082 413 1114 q 424 1045 413 1063 q 451 1017 434 1028 q 488 1006 469 1006 q 541 1029 519 1006 q 563 1082 563 1052 q 542 1136 563 1115 q 488 1157 520 1157 m 664 392 l 492 881 l 317 392 l 664 392 z "},"Ã":{"ha":981,"x_min":56,"x_max":924,"o":"m 420 1004 l 562 1004 l 924 0 l 797 0 l 698 277 l 285 277 l 183 0 l 56 0 l 420 1004 m 664 392 l 492 881 l 317 392 l 664 392 m 700 1209 q 581 1169 646 1169 q 534 1174 556 1169 q 486 1189 513 1179 q 443 1201 460 1197 q 406 1206 426 1206 q 356 1196 375 1206 q 309 1167 336 1187 l 285 1233 q 338 1271 313 1258 q 400 1284 364 1284 q 446 1279 424 1284 q 496 1264 468 1274 q 543 1250 525 1255 q 582 1246 562 1246 q 631 1256 610 1246 q 678 1284 651 1265 l 700 1209 z "},"Æ":{"ha":1355,"x_min":0,"x_max":1265,"o":"m 1265 0 l 627 0 l 627 281 l 283 281 l 127 0 l 0 0 l 556 1004 l 1247 1004 l 1247 896 l 768 896 l 768 560 l 1125 560 l 1125 453 l 768 453 l 768 109 l 1265 109 l 1265 0 m 627 913 l 333 392 l 627 392 l 627 913 z "},"Ǽ":{"ha":1355,"x_min":0,"x_max":1265,"o":"m 1265 0 l 627 0 l 627 281 l 283 281 l 127 0 l 0 0 l 556 1004 l 1247 1004 l 1247 896 l 768 896 l 768 560 l 1125 560 l 1125 453 l 768 453 l 768 109 l 1265 109 l 1265 0 m 627 913 l 333 392 l 627 392 l 627 913 m 1076 1208 l 726 1105 l 706 1169 l 1044 1303 l 1076 1208 z "},"B":{"ha":925,"x_min":130,"x_max":847,"o":"m 130 1004 l 451 1004 q 727 937 633 1004 q 822 742 822 870 q 778 603 822 659 q 635 512 735 547 q 847 270 847 466 q 461 0 847 0 l 130 0 l 130 1004 m 475 561 q 634 600 568 561 q 701 726 701 638 q 635 857 701 813 q 456 901 569 901 l 255 901 l 255 561 l 475 561 m 459 104 q 720 275 720 104 q 652 410 720 366 q 475 455 585 455 l 255 455 l 255 104 l 459 104 z "},"C":{"ha":968,"x_min":86,"x_max":889,"o":"m 506 1018 q 695 978 612 1018 q 830 868 779 938 q 889 714 880 799 l 757 707 q 675 855 740 800 q 506 909 611 909 q 295 808 367 909 q 224 503 224 707 q 297 198 224 301 q 513 95 369 95 q 624 119 574 95 q 707 189 674 144 q 754 294 741 234 l 885 284 q 828 132 876 200 q 700 25 781 65 q 514 -14 619 -14 q 284 49 380 -14 q 137 228 188 112 q 86 504 86 345 q 136 780 86 664 q 280 957 185 895 q 506 1018 375 1018 z "},"Ć":{"ha":968,"x_min":86,"x_max":889,"o":"m 506 1018 q 695 978 612 1018 q 830 868 779 938 q 889 714 880 799 l 757 707 q 675 855 740 800 q 506 909 611 909 q 295 808 367 909 q 224 503 224 707 q 297 198 224 301 q 513 95 369 95 q 624 119 574 95 q 707 189 674 144 q 754 294 741 234 l 885 284 q 828 132 876 200 q 700 25 781 65 q 514 -14 619 -14 q 284 49 380 -14 q 137 228 188 112 q 86 504 86 345 q 136 780 86 664 q 280 957 185 895 q 506 1018 375 1018 m 693 1208 l 344 1105 l 323 1169 l 661 1303 l 693 1208 z "},"Č":{"ha":968,"x_min":86,"x_max":889,"o":"m 506 1018 q 695 978 612 1018 q 830 868 779 938 q 889 714 880 799 l 757 707 q 675 855 740 800 q 506 909 611 909 q 295 808 367 909 q 224 503 224 707 q 297 198 224 301 q 513 95 369 95 q 624 119 574 95 q 707 189 674 144 q 754 294 741 234 l 885 284 q 828 132 876 200 q 700 25 781 65 q 514 -14 619 -14 q 284 49 380 -14 q 137 228 188 112 q 86 504 86 345 q 136 780 86 664 q 280 957 185 895 q 506 1018 375 1018 m 724 1291 l 553 1132 l 463 1132 l 289 1291 l 402 1291 l 507 1197 l 604 1291 l 724 1291 z "},"Ç":{"ha":968,"x_min":86,"x_max":889,"o":"m 513 95 q 624 119 574 95 q 707 189 674 144 q 754 294 741 234 l 885 284 q 832 139 876 204 q 714 33 788 74 q 543 -13 640 -8 l 518 -77 q 612 -110 583 -81 q 642 -178 642 -139 q 599 -257 642 -228 q 492 -285 556 -285 q 362 -251 415 -285 l 383 -198 q 477 -231 425 -231 q 533 -217 515 -231 q 552 -179 552 -204 q 526 -134 552 -149 q 442 -118 500 -119 q 433 -116 435 -118 q 433 -109 431 -114 l 476 -12 q 266 61 353 -3 q 132 240 178 126 q 86 504 86 353 q 136 780 86 664 q 280 957 185 895 q 506 1018 375 1018 q 695 978 612 1018 q 830 868 779 938 q 889 714 880 799 l 757 707 q 675 855 740 800 q 506 909 611 909 q 295 808 367 909 q 224 503 224 707 q 297 198 224 301 q 513 95 369 95 z "},"Ĉ":{"ha":968,"x_min":86,"x_max":889,"o":"m 506 1018 q 695 978 612 1018 q 830 868 779 938 q 889 714 880 799 l 757 707 q 675 855 740 800 q 506 909 611 909 q 295 808 367 909 q 224 503 224 707 q 297 198 224 301 q 513 95 369 95 q 624 119 574 95 q 707 189 674 144 q 754 294 741 234 l 885 284 q 828 132 876 200 q 700 25 781 65 q 514 -14 619 -14 q 284 49 380 -14 q 137 228 188 112 q 86 504 86 345 q 136 780 86 664 q 280 957 185 895 q 506 1018 375 1018 m 507 1230 l 402 1137 l 290 1137 l 464 1295 l 553 1295 l 724 1137 l 604 1137 l 507 1230 z "},"Ċ":{"ha":968,"x_min":86,"x_max":889,"o":"m 506 1018 q 695 978 612 1018 q 830 868 779 938 q 889 714 880 799 l 757 707 q 675 855 740 800 q 506 909 611 909 q 295 808 367 909 q 224 503 224 707 q 297 198 224 301 q 513 95 369 95 q 624 119 574 95 q 707 189 674 144 q 754 294 741 234 l 885 284 q 828 132 876 200 q 700 25 781 65 q 514 -14 619 -14 q 284 49 380 -14 q 137 228 188 112 q 86 504 86 345 q 136 780 86 664 q 280 957 185 895 q 506 1018 375 1018 m 440 1258 l 574 1258 l 574 1128 l 440 1128 l 440 1258 z "},"D":{"ha":961,"x_min":130,"x_max":882,"o":"m 360 1003 q 757 876 632 999 q 882 508 882 753 q 750 128 882 256 q 347 0 617 0 l 130 0 l 130 1004 l 360 1003 m 258 108 l 347 108 q 648 201 545 108 q 751 506 751 295 q 705 735 751 649 q 570 859 658 822 q 352 897 483 897 l 258 897 l 258 108 z "},"Ð":{"ha":978,"x_min":49,"x_max":900,"o":"m 378 1003 q 775 876 649 999 q 900 508 900 752 q 767 128 900 256 q 364 0 635 0 l 148 0 l 148 451 l 49 451 l 49 552 l 148 552 l 148 1004 l 378 1003 m 364 108 q 666 201 563 108 q 769 506 769 295 q 722 735 769 649 q 588 859 676 822 q 369 897 501 897 l 276 897 l 276 552 l 508 552 l 508 451 l 276 451 l 276 108 l 364 108 z "},"Ď":{"ha":961,"x_min":130,"x_max":882,"o":"m 360 1003 q 757 876 632 999 q 882 508 882 753 q 750 128 882 256 q 347 0 617 0 l 130 0 l 130 1004 l 360 1003 m 258 108 l 347 108 q 648 201 545 108 q 751 506 751 295 q 705 735 751 649 q 570 859 658 822 q 352 897 483 897 l 258 897 l 258 108 m 685 1291 l 515 1132 l 424 1132 l 250 1291 l 363 1291 l 468 1197 l 565 1291 l 685 1291 z "},"Đ":{"ha":978,"x_min":49,"x_max":900,"o":"m 378 1003 q 775 876 649 999 q 900 508 900 752 q 767 128 900 256 q 364 0 635 0 l 148 0 l 148 451 l 49 451 l 49 552 l 148 552 l 148 1004 l 378 1003 m 364 108 q 666 201 563 108 q 769 506 769 295 q 722 735 769 649 q 588 859 676 822 q 369 897 501 897 l 276 897 l 276 552 l 508 552 l 508 451 l 276 451 l 276 108 l 364 108 z "},"Ḍ":{"ha":961,"x_min":130,"x_max":882,"o":"m 360 1003 q 757 876 632 999 q 882 508 882 753 q 750 128 882 256 q 347 0 617 0 l 130 0 l 130 1004 l 360 1003 m 258 108 l 347 108 q 648 201 545 108 q 751 506 751 295 q 705 735 751 649 q 570 859 658 822 q 352 897 483 897 l 258 897 l 258 108 z "},"E":{"ha":864,"x_min":130,"x_max":774,"o":"m 130 1004 l 760 1004 l 760 894 l 255 894 l 255 561 l 710 561 l 710 452 l 255 452 l 255 113 l 774 112 l 774 0 l 130 0 l 130 1004 z "},"É":{"ha":864,"x_min":130,"x_max":774,"o":"m 130 1004 l 760 1004 l 760 894 l 255 894 l 255 561 l 710 561 l 710 452 l 255 452 l 255 113 l 774 112 l 774 0 l 130 0 l 130 1004 m 633 1208 l 284 1105 l 263 1169 l 601 1303 l 633 1208 z "},"Ĕ":{"ha":864,"x_min":130,"x_max":774,"o":"m 130 1004 l 760 1004 l 760 894 l 255 894 l 255 561 l 710 561 l 710 452 l 255 452 l 255 113 l 774 112 l 774 0 l 130 0 l 130 1004 m 661 1288 q 621 1215 649 1249 q 549 1160 592 1181 q 451 1140 505 1140 q 316 1181 370 1140 q 244 1288 261 1223 l 336 1288 q 380 1236 354 1257 q 451 1216 406 1216 q 567 1288 525 1216 l 661 1288 z "},"Ě":{"ha":864,"x_min":130,"x_max":774,"o":"m 130 1004 l 760 1004 l 760 894 l 255 894 l 255 561 l 710 561 l 710 452 l 255 452 l 255 113 l 774 112 l 774 0 l 130 0 l 130 1004 m 664 1291 l 494 1132 l 403 1132 l 229 1291 l 342 1291 l 447 1197 l 544 1291 l 664 1291 z "},"Ê":{"ha":864,"x_min":130,"x_max":774,"o":"m 130 1004 l 760 1004 l 760 894 l 255 894 l 255 561 l 710 561 l 710 452 l 255 452 l 255 113 l 774 112 l 774 0 l 130 0 l 130 1004 m 447 1230 l 342 1137 l 230 1137 l 404 1295 l 494 1295 l 664 1137 l 544 1137 l 447 1230 z "},"Ế":{"ha":864,"x_min":130,"x_max":774,"o":"m 130 1004 l 760 1004 l 760 894 l 255 894 l 255 561 l 710 561 l 710 452 l 255 452 l 255 113 l 774 112 l 774 0 l 130 0 l 130 1004 z "},"Ệ":{"ha":864,"x_min":130,"x_max":774,"o":"m 130 1004 l 760 1004 l 760 894 l 255 894 l 255 561 l 710 561 l 710 452 l 255 452 l 255 113 l 774 112 l 774 0 l 130 0 l 130 1004 m 447 1230 l 342 1137 l 230 1137 l 404 1295 l 494 1295 l 664 1137 l 544 1137 l 447 1230 z "},"Ề":{"ha":864,"x_min":130,"x_max":774,"o":"m 130 1004 l 760 1004 l 760 894 l 255 894 l 255 561 l 710 561 l 710 452 l 255 452 l 255 113 l 774 112 l 774 0 l 130 0 l 130 1004 z "},"Ể":{"ha":864,"x_min":130,"x_max":774,"o":"m 130 1004 l 760 1004 l 760 894 l 255 894 l 255 561 l 710 561 l 710 452 l 255 452 l 255 113 l 774 112 l 774 0 l 130 0 l 130 1004 z "},"Ễ":{"ha":864,"x_min":130,"x_max":774,"o":"m 130 1004 l 760 1004 l 760 894 l 255 894 l 255 561 l 710 561 l 710 452 l 255 452 l 255 113 l 774 112 l 774 0 l 130 0 l 130 1004 z "},"Ȅ":{"ha":864,"x_min":130,"x_max":774,"o":"m 130 1004 l 760 1004 l 760 894 l 255 894 l 255 561 l 710 561 l 710 452 l 255 452 l 255 113 l 774 112 l 774 0 l 130 0 l 130 1004 m 404 1115 l 363 1063 l 153 1229 l 217 1306 l 404 1115 m 629 1115 l 587 1063 l 377 1229 l 442 1306 l 629 1115 z "},"Ë":{"ha":864,"x_min":130,"x_max":774,"o":"m 130 1004 l 760 1004 l 760 894 l 255 894 l 255 561 l 710 561 l 710 452 l 255 452 l 255 113 l 774 112 l 774 0 l 130 0 l 130 1004 m 263 1283 l 395 1283 l 395 1153 l 263 1153 l 263 1283 m 496 1283 l 628 1283 l 628 1153 l 496 1153 l 496 1283 z "},"Ė":{"ha":864,"x_min":130,"x_max":774,"o":"m 130 1004 l 760 1004 l 760 894 l 255 894 l 255 561 l 710 561 l 710 452 l 255 452 l 255 113 l 774 112 l 774 0 l 130 0 l 130 1004 m 381 1258 l 514 1258 l 514 1128 l 381 1128 l 381 1258 z "},"Ẹ":{"ha":864,"x_min":130,"x_max":774,"o":"m 130 1004 l 760 1004 l 760 894 l 255 894 l 255 561 l 710 561 l 710 452 l 255 452 l 255 113 l 774 112 l 774 0 l 130 0 l 130 1004 z "},"È":{"ha":864,"x_min":130,"x_max":774,"o":"m 130 1004 l 760 1004 l 760 894 l 255 894 l 255 561 l 710 561 l 710 452 l 255 452 l 255 113 l 774 112 l 774 0 l 130 0 l 130 1004 m 616 1169 l 594 1105 l 246 1208 l 278 1303 l 616 1169 z "},"Ẻ":{"ha":864,"x_min":130,"x_max":774,"o":"m 130 1004 l 760 1004 l 760 894 l 255 894 l 255 561 l 710 561 l 710 452 l 255 452 l 255 113 l 774 112 l 774 0 l 130 0 l 130 1004 m 389 1256 q 446 1275 418 1275 q 490 1252 476 1275 q 498 1226 498 1239 q 485 1191 498 1208 q 450 1159 473 1173 l 488 1101 q 550 1158 528 1126 q 572 1224 572 1190 q 550 1292 572 1259 q 507 1331 533 1317 q 450 1344 481 1344 q 352 1313 401 1344 l 389 1256 z "},"Ȇ":{"ha":864,"x_min":130,"x_max":774,"o":"m 130 1004 l 760 1004 l 760 894 l 255 894 l 255 561 l 710 561 l 710 452 l 255 452 l 255 113 l 774 112 l 774 0 l 130 0 l 130 1004 m 562 1197 q 444 1269 518 1269 q 374 1249 399 1269 q 330 1197 349 1228 l 238 1197 q 277 1273 249 1240 q 348 1326 305 1307 q 444 1346 390 1346 q 542 1325 499 1346 q 615 1270 586 1304 q 656 1197 644 1237 l 562 1197 z "},"Ē":{"ha":864,"x_min":130,"x_max":774,"o":"m 130 1004 l 760 1004 l 760 894 l 255 894 l 255 561 l 710 561 l 710 452 l 255 452 l 255 113 l 774 112 l 774 0 l 130 0 l 130 1004 m 652 1184 l 242 1184 l 242 1272 l 652 1272 l 652 1184 z "},"Ę":{"ha":864,"x_min":130,"x_max":815,"o":"m 715 -164 q 771 -156 745 -164 q 815 -138 797 -149 l 815 -204 q 760 -224 796 -215 q 687 -233 725 -233 q 585 -203 620 -233 q 550 -123 550 -174 q 575 -53 550 -83 q 660 0 599 -23 l 130 0 l 130 1004 l 760 1004 l 760 894 l 255 894 l 255 561 l 710 561 l 710 452 l 255 452 l 255 113 l 774 112 l 774 3 l 783 3 q 681 -53 712 -28 q 651 -112 651 -79 q 666 -151 651 -138 q 715 -164 681 -164 z "},"Ẽ":{"ha":864,"x_min":130,"x_max":774,"o":"m 130 1004 l 760 1004 l 760 894 l 255 894 l 255 561 l 710 561 l 710 452 l 255 452 l 255 113 l 774 112 l 774 0 l 130 0 l 130 1004 m 657 1209 q 538 1169 603 1169 q 491 1174 513 1169 q 443 1189 470 1179 q 400 1201 417 1197 q 363 1206 383 1206 q 313 1196 332 1206 q 266 1167 293 1187 l 242 1233 q 295 1271 269 1258 q 357 1284 321 1284 q 403 1279 381 1284 q 453 1264 425 1274 q 500 1250 482 1255 q 539 1246 519 1246 q 588 1256 567 1246 q 635 1284 608 1265 l 657 1209 z "},"F":{"ha":808,"x_min":130,"x_max":753,"o":"m 753 1004 l 752 895 l 258 895 l 258 559 l 703 559 l 703 450 l 258 450 l 258 0 l 130 0 l 130 1004 l 753 1004 z "},"G":{"ha":1022,"x_min":86,"x_max":908,"o":"m 510 -14 q 284 48 380 -14 q 138 226 189 110 q 86 499 86 342 q 139 777 86 660 q 290 956 192 894 q 517 1018 387 1018 q 698 976 614 1018 q 834 865 783 935 q 892 716 886 795 l 757 708 q 713 810 747 765 q 628 881 680 855 q 515 907 577 907 q 358 861 424 907 q 256 726 292 815 q 220 507 220 636 q 257 278 220 369 q 360 143 294 187 q 518 99 427 99 q 655 136 598 99 q 743 227 713 172 q 776 336 773 282 l 779 426 l 533 426 l 533 518 l 908 517 l 908 0 l 815 0 l 815 154 q 694 33 769 79 q 510 -14 620 -14 z "},"Ğ":{"ha":1022,"x_min":86,"x_max":908,"o":"m 510 -14 q 284 48 380 -14 q 138 226 189 110 q 86 499 86 342 q 139 777 86 660 q 290 956 192 894 q 517 1018 387 1018 q 698 976 614 1018 q 834 865 783 935 q 892 716 886 795 l 757 708 q 713 810 747 765 q 628 881 680 855 q 515 907 577 907 q 358 861 424 907 q 256 726 292 815 q 220 507 220 636 q 257 278 220 369 q 360 143 294 187 q 518 99 427 99 q 655 136 598 99 q 743 227 713 172 q 776 336 773 282 l 779 426 l 533 426 l 533 518 l 908 517 l 908 0 l 815 0 l 815 154 q 694 33 769 79 q 510 -14 620 -14 m 728 1288 q 688 1215 716 1249 q 615 1160 659 1181 q 517 1140 572 1140 q 382 1181 437 1140 q 311 1288 328 1223 l 403 1288 q 447 1236 421 1257 q 517 1216 472 1216 q 634 1288 592 1216 l 728 1288 z "},"Ĝ":{"ha":1022,"x_min":86,"x_max":908,"o":"m 510 -14 q 284 48 380 -14 q 138 226 189 110 q 86 499 86 342 q 139 777 86 660 q 290 956 192 894 q 517 1018 387 1018 q 698 976 614 1018 q 834 865 783 935 q 892 716 886 795 l 757 708 q 713 810 747 765 q 628 881 680 855 q 515 907 577 907 q 358 861 424 907 q 256 726 292 815 q 220 507 220 636 q 257 278 220 369 q 360 143 294 187 q 518 99 427 99 q 655 136 598 99 q 743 227 713 172 q 776 336 773 282 l 779 426 l 533 426 l 533 518 l 908 517 l 908 0 l 815 0 l 815 154 q 694 33 769 79 q 510 -14 620 -14 m 513 1230 l 408 1137 l 296 1137 l 470 1295 l 560 1295 l 730 1137 l 610 1137 l 513 1230 z "},"Ģ":{"ha":1022,"x_min":86,"x_max":908,"o":"m 510 -14 q 284 48 380 -14 q 138 226 189 110 q 86 499 86 342 q 139 777 86 660 q 290 956 192 894 q 517 1018 387 1018 q 698 976 614 1018 q 834 865 783 935 q 892 716 886 795 l 757 708 q 713 810 747 765 q 628 881 680 855 q 515 907 577 907 q 358 861 424 907 q 256 726 292 815 q 220 507 220 636 q 257 278 220 369 q 360 143 294 187 q 518 99 427 99 q 655 136 598 99 q 743 227 713 172 q 776 336 773 282 l 779 426 l 533 426 l 533 518 l 908 517 l 908 0 l 815 0 l 815 154 q 694 33 769 79 q 510 -14 620 -14 z "},"Ġ":{"ha":1022,"x_min":86,"x_max":908,"o":"m 510 -14 q 284 48 380 -14 q 138 226 189 110 q 86 499 86 342 q 139 777 86 660 q 290 956 192 894 q 517 1018 387 1018 q 698 976 614 1018 q 834 865 783 935 q 892 716 886 795 l 757 708 q 713 810 747 765 q 628 881 680 855 q 515 907 577 907 q 358 861 424 907 q 256 726 292 815 q 220 507 220 636 q 257 278 220 369 q 360 143 294 187 q 518 99 427 99 q 655 136 598 99 q 743 227 713 172 q 776 336 773 282 l 779 426 l 533 426 l 533 518 l 908 517 l 908 0 l 815 0 l 815 154 q 694 33 769 79 q 510 -14 620 -14 m 447 1258 l 581 1258 l 581 1128 l 447 1128 l 447 1258 z "},"H":{"ha":978,"x_min":130,"x_max":852,"o":"m 255 465 l 255 0 l 130 0 l 130 1004 l 255 1004 l 255 575 l 728 575 l 728 1004 l 852 1004 l 852 0 l 728 0 l 728 465 l 255 465 z "},"Ħ":{"ha":1025,"x_min":19,"x_max":1007,"o":"m 1007 773 l 874 773 l 874 0 l 749 0 l 749 465 l 276 465 l 276 0 l 151 0 l 151 773 l 19 773 l 19 855 l 151 855 l 151 1004 l 276 1004 l 276 855 l 749 855 l 749 1004 l 874 1004 l 874 855 l 1007 855 l 1007 773 m 749 773 l 276 773 l 276 575 l 749 575 l 749 773 z "},"Ĥ":{"ha":978,"x_min":130,"x_max":852,"o":"m 255 465 l 255 0 l 130 0 l 130 1004 l 255 1004 l 255 575 l 728 575 l 728 1004 l 852 1004 l 852 0 l 728 0 l 728 465 l 255 465 m 491 1230 l 386 1137 l 274 1137 l 448 1295 l 538 1295 l 708 1137 l 588 1137 l 491 1230 z "},"Ḥ":{"ha":978,"x_min":130,"x_max":852,"o":"m 255 465 l 255 0 l 130 0 l 130 1004 l 255 1004 l 255 575 l 728 575 l 728 1004 l 852 1004 l 852 0 l 728 0 l 728 465 l 255 465 z "},"I":{"ha":380,"x_min":130,"x_max":255,"o":"m 255 1004 l 255 0 l 130 0 l 130 1004 l 255 1004 z "},"Í":{"ha":380,"x_min":8,"x_max":378,"o":"m 255 1004 l 255 0 l 130 0 l 130 1004 l 255 1004 m 378 1208 l 29 1105 l 8 1169 l 347 1303 l 378 1208 z "},"Ĭ":{"ha":380,"x_min":-10,"x_max":406,"o":"m 255 1004 l 255 0 l 130 0 l 130 1004 l 255 1004 m 406 1288 q 366 1215 394 1249 q 294 1160 338 1181 q 196 1140 250 1140 q 61 1181 115 1140 q -10 1288 6 1223 l 81 1288 q 125 1236 99 1257 q 196 1216 151 1216 q 313 1288 270 1216 l 406 1288 z "},"Î":{"ha":380,"x_min":-25,"x_max":409,"o":"m 255 1004 l 255 0 l 130 0 l 130 1004 l 255 1004 m 192 1230 l 88 1137 l -25 1137 l 149 1295 l 239 1295 l 409 1137 l 290 1137 l 192 1230 z "},"Ȉ":{"ha":380,"x_min":-101,"x_max":375,"o":"m 255 1004 l 255 0 l 130 0 l 130 1004 l 255 1004 m 150 1115 l 108 1063 l -101 1229 l -37 1306 l 150 1115 m 375 1115 l 333 1063 l 123 1229 l 188 1306 l 375 1115 z "},"Ï":{"ha":380,"x_min":8,"x_max":374,"o":"m 255 1004 l 255 0 l 130 0 l 130 1004 l 255 1004 m 8 1283 l 141 1283 l 141 1153 l 8 1153 l 8 1283 m 242 1283 l 374 1283 l 374 1153 l 242 1153 l 242 1283 z "},"İ":{"ha":380,"x_min":126,"x_max":259,"o":"m 255 1004 l 255 0 l 130 0 l 130 1004 l 255 1004 m 126 1258 l 259 1258 l 259 1128 l 126 1128 l 126 1258 z "},"Ị":{"ha":380,"x_min":130,"x_max":265,"o":"m 255 1004 l 255 0 l 130 0 l 130 1004 l 255 1004 z "},"Ì":{"ha":380,"x_min":-9,"x_max":361,"o":"m 255 1004 l 255 0 l 130 0 l 130 1004 l 255 1004 m 361 1169 l 340 1105 l -9 1208 l 23 1303 l 361 1169 z "},"Ỉ":{"ha":380,"x_min":98,"x_max":318,"o":"m 255 1004 l 255 0 l 130 0 l 130 1004 l 255 1004 m 135 1256 q 192 1275 164 1275 q 236 1252 222 1275 q 244 1226 244 1239 q 231 1191 244 1208 q 196 1159 219 1173 l 233 1101 q 296 1158 274 1126 q 318 1224 318 1190 q 296 1292 318 1259 q 253 1331 279 1317 q 196 1344 227 1344 q 98 1313 147 1344 l 135 1256 z "},"Ȋ":{"ha":380,"x_min":-16,"x_max":401,"o":"m 255 1004 l 255 0 l 130 0 l 130 1004 l 255 1004 m 308 1197 q 190 1269 264 1269 q 120 1249 145 1269 q 76 1197 95 1228 l -16 1197 q 23 1273 -5 1240 q 93 1326 51 1307 q 190 1346 136 1346 q 288 1325 244 1346 q 361 1270 332 1304 q 401 1197 390 1237 l 308 1197 z "},"Ī":{"ha":380,"x_min":-12,"x_max":398,"o":"m 255 1004 l 255 0 l 130 0 l 130 1004 l 255 1004 m 398 1184 l -12 1184 l -12 1272 l 398 1272 l 398 1184 z "},"Į":{"ha":380,"x_min":21,"x_max":285,"o":"m 186 -167 q 242 -159 216 -167 q 285 -141 268 -151 l 285 -207 q 231 -227 267 -218 q 158 -235 196 -235 q 56 -206 91 -235 q 21 -126 21 -177 q 47 -54 21 -85 q 139 0 74 -24 l 130 0 l 130 1004 l 255 1004 l 255 0 l 254 0 q 152 -56 183 -31 q 122 -115 122 -82 q 137 -154 122 -141 q 186 -167 152 -167 z "},"Ĩ":{"ha":380,"x_min":-12,"x_max":402,"o":"m 255 1004 l 255 0 l 130 0 l 130 1004 l 255 1004 m 402 1209 q 283 1169 348 1169 q 236 1174 258 1169 q 188 1189 215 1179 q 145 1201 162 1197 q 108 1206 128 1206 q 58 1196 77 1206 q 11 1167 38 1187 l -12 1233 q 40 1271 15 1258 q 102 1284 66 1284 q 148 1279 126 1284 q 198 1264 170 1274 q 245 1250 227 1255 q 284 1246 264 1246 q 333 1256 312 1246 q 380 1284 353 1265 l 402 1209 z "},"J":{"ha":531,"x_min":35,"x_max":408,"o":"m 408 235 q 389 97 408 151 q 325 15 371 43 q 197 -14 278 -14 q 105 -3 150 -14 q 35 18 60 8 l 44 137 q 65 128 53 134 q 113 111 91 117 q 165 106 135 106 q 235 122 210 106 q 272 174 261 138 q 283 270 283 209 l 283 1004 l 408 1004 l 408 235 z "},"Ĵ":{"ha":531,"x_min":35,"x_max":560,"o":"m 408 235 q 389 97 408 151 q 325 15 371 43 q 197 -14 278 -14 q 105 -3 150 -14 q 35 18 60 8 l 44 137 q 65 128 53 134 q 113 111 91 117 q 165 106 135 106 q 235 122 210 106 q 272 174 261 138 q 283 270 283 209 l 283 1004 l 408 1004 l 408 235 m 343 1230 l 238 1137 l 126 1137 l 300 1295 l 390 1295 l 560 1137 l 440 1137 l 343 1230 z "},"K":{"ha":940,"x_min":130,"x_max":894,"o":"m 751 0 l 434 519 l 260 318 l 260 0 l 130 0 l 130 1004 l 260 1004 l 260 481 l 714 1004 l 863 1004 l 529 613 l 894 0 l 751 0 z "},"Ķ":{"ha":940,"x_min":130,"x_max":894,"o":"m 751 0 l 434 519 l 260 318 l 260 0 l 130 0 l 130 1004 l 260 1004 l 260 481 l 714 1004 l 863 1004 l 529 613 l 894 0 l 751 0 z "},"L":{"ha":779,"x_min":130,"x_max":735,"o":"m 258 1004 l 258 113 l 735 113 l 735 0 l 130 0 l 131 1004 l 258 1004 z "},"Ĺ":{"ha":779,"x_min":9,"x_max":735,"o":"m 258 1004 l 258 113 l 735 113 l 735 0 l 130 0 l 131 1004 l 258 1004 m 379 1208 l 30 1105 l 9 1169 l 347 1303 l 379 1208 z "},"Ľ":{"ha":779,"x_min":130,"x_max":735,"o":"m 258 1004 l 258 113 l 735 113 l 735 0 l 130 0 l 131 1004 l 258 1004 m 544 863 l 508 870 l 508 1004 l 612 1004 l 612 864 l 558 737 l 492 737 l 544 863 z "},"Ļ":{"ha":779,"x_min":130,"x_max":735,"o":"m 258 1004 l 258 113 l 735 113 l 735 0 l 130 0 l 131 1004 l 258 1004 z "},"Ŀ":{"ha":779,"x_min":130,"x_max":735,"o":"m 258 1004 l 258 113 l 735 113 l 735 0 l 130 0 l 131 1004 l 258 1004 m 725 472 l 568 472 l 568 622 l 725 622 l 725 472 z "},"Ł":{"ha":783,"x_min":28,"x_max":739,"o":"m 739 113 l 739 0 l 135 0 l 135 448 l 28 419 l 28 526 l 135 553 l 135 1004 l 263 1004 l 263 586 l 494 647 l 494 545 l 263 482 l 263 113 l 739 113 z "},"M":{"ha":1215,"x_min":130,"x_max":1090,"o":"m 130 1004 l 302 1004 l 608 169 l 919 1004 l 1090 1004 l 1090 0 l 962 0 l 962 814 l 667 0 l 550 0 l 258 806 l 258 0 l 130 0 l 130 1004 z "},"N":{"ha":1033,"x_min":130,"x_max":908,"o":"m 908 1004 l 908 0 l 797 0 l 255 797 l 255 0 l 130 0 l 130 1004 l 249 1004 l 783 217 l 783 1004 l 908 1004 z "},"Ń":{"ha":1033,"x_min":130,"x_max":908,"o":"m 908 1004 l 908 0 l 797 0 l 255 797 l 255 0 l 130 0 l 130 1004 l 249 1004 l 783 217 l 783 1004 l 908 1004 m 704 1208 l 355 1105 l 334 1169 l 672 1303 l 704 1208 z "},"Ň":{"ha":1033,"x_min":130,"x_max":908,"o":"m 908 1004 l 908 0 l 797 0 l 255 797 l 255 0 l 130 0 l 130 1004 l 249 1004 l 783 217 l 783 1004 l 908 1004 m 735 1291 l 565 1132 l 475 1132 l 301 1291 l 414 1291 l 519 1197 l 616 1291 l 735 1291 z "},"Ņ":{"ha":1033,"x_min":130,"x_max":908,"o":"m 908 1004 l 908 0 l 797 0 l 255 797 l 255 0 l 130 0 l 130 1004 l 249 1004 l 783 217 l 783 1004 l 908 1004 z "},"Ṅ":{"ha":1033,"x_min":130,"x_max":908,"o":"m 908 1004 l 908 0 l 797 0 l 255 797 l 255 0 l 130 0 l 130 1004 l 249 1004 l 783 217 l 783 1004 l 908 1004 m 452 1258 l 585 1258 l 585 1128 l 452 1128 l 452 1258 z "},"Ŋ":{"ha":1035,"x_min":130,"x_max":910,"o":"m 910 47 l 910 -85 q 891 -223 910 -169 q 826 -305 873 -276 q 699 -333 780 -333 q 606 -323 651 -333 q 536 -301 561 -312 l 546 -183 q 567 -191 555 -185 q 615 -208 592 -202 q 667 -214 638 -214 q 738 -198 712 -214 q 775 -145 764 -181 q 786 -49 786 -110 l 786 17 l 255 797 l 255 0 l 130 0 l 130 1004 l 249 1004 l 783 217 l 783 1004 l 908 1004 l 908 47 l 910 47 z "},"Ñ":{"ha":1033,"x_min":130,"x_max":908,"o":"m 908 1004 l 908 0 l 797 0 l 255 797 l 255 0 l 130 0 l 130 1004 l 249 1004 l 783 217 l 783 1004 l 908 1004 m 728 1209 q 610 1169 674 1169 q 563 1174 584 1169 q 515 1189 542 1179 q 471 1201 488 1197 q 434 1206 454 1206 q 384 1196 403 1206 q 338 1167 365 1187 l 314 1233 q 367 1271 341 1258 q 428 1284 392 1284 q 474 1279 452 1284 q 524 1264 497 1274 q 572 1250 553 1255 q 610 1246 590 1246 q 659 1256 638 1246 q 706 1284 680 1265 l 728 1209 z "},"O":{"ha":1038,"x_min":86,"x_max":952,"o":"m 520 -14 q 288 46 385 -14 q 138 221 190 106 q 86 498 86 336 q 139 779 86 662 q 290 957 192 896 q 521 1018 388 1018 q 750 957 653 1018 q 900 780 847 896 q 952 500 952 663 q 900 223 952 338 q 751 47 848 107 q 520 -14 653 -14 m 522 95 q 741 194 665 95 q 816 499 816 294 q 740 807 816 706 q 521 909 664 909 q 300 807 378 909 q 223 499 223 705 q 300 195 223 294 q 522 95 378 95 z "},"Ó":{"ha":1038,"x_min":86,"x_max":952,"o":"m 520 -14 q 288 46 385 -14 q 138 221 190 106 q 86 498 86 336 q 139 779 86 662 q 290 957 192 896 q 521 1018 388 1018 q 750 957 653 1018 q 900 780 847 896 q 952 500 952 663 q 900 223 952 338 q 751 47 848 107 q 520 -14 653 -14 m 522 95 q 741 194 665 95 q 816 499 816 294 q 740 807 816 706 q 521 909 664 909 q 300 807 378 909 q 223 499 223 705 q 300 195 223 294 q 522 95 378 95 m 707 1208 l 358 1105 l 337 1169 l 675 1303 l 707 1208 z "},"Ŏ":{"ha":1038,"x_min":86,"x_max":952,"o":"m 520 -14 q 288 46 385 -14 q 138 221 190 106 q 86 498 86 336 q 139 779 86 662 q 290 957 192 896 q 521 1018 388 1018 q 750 957 653 1018 q 900 780 847 896 q 952 500 952 663 q 900 223 952 338 q 751 47 848 107 q 520 -14 653 -14 m 522 95 q 741 194 665 95 q 816 499 816 294 q 740 807 816 706 q 521 909 664 909 q 300 807 378 909 q 223 499 223 705 q 300 195 223 294 q 522 95 378 95 m 735 1288 q 694 1215 723 1249 q 622 1160 666 1181 q 524 1140 578 1140 q 389 1181 444 1140 q 318 1288 335 1223 l 410 1288 q 453 1236 428 1257 q 524 1216 479 1216 q 641 1288 599 1216 l 735 1288 z "},"Ô":{"ha":1038,"x_min":86,"x_max":952,"o":"m 520 -14 q 288 46 385 -14 q 138 221 190 106 q 86 498 86 336 q 139 779 86 662 q 290 957 192 896 q 521 1018 388 1018 q 750 957 653 1018 q 900 780 847 896 q 952 500 952 663 q 900 223 952 338 q 751 47 848 107 q 520 -14 653 -14 m 522 95 q 741 194 665 95 q 816 499 816 294 q 740 807 816 706 q 521 909 664 909 q 300 807 378 909 q 223 499 223 705 q 300 195 223 294 q 522 95 378 95 m 521 1230 l 416 1137 l 303 1137 l 478 1295 l 567 1295 l 738 1137 l 618 1137 l 521 1230 z "},"Ố":{"ha":1038,"x_min":86,"x_max":952,"o":"m 520 -14 q 288 46 385 -14 q 138 221 190 106 q 86 498 86 336 q 139 779 86 662 q 290 957 192 896 q 521 1018 388 1018 q 750 957 653 1018 q 900 780 847 896 q 952 500 952 663 q 900 223 952 338 q 751 47 848 107 q 520 -14 653 -14 m 522 95 q 741 194 665 95 q 816 499 816 294 q 740 807 816 706 q 521 909 664 909 q 300 807 378 909 q 223 499 223 705 q 300 195 223 294 q 522 95 378 95 z "},"Ộ":{"ha":1038,"x_min":86,"x_max":952,"o":"m 520 -14 q 288 46 385 -14 q 138 221 190 106 q 86 498 86 336 q 139 779 86 662 q 290 957 192 896 q 521 1018 388 1018 q 750 957 653 1018 q 900 780 847 896 q 952 500 952 663 q 900 223 952 338 q 751 47 848 107 q 520 -14 653 -14 m 522 95 q 741 194 665 95 q 816 499 816 294 q 740 807 816 706 q 521 909 664 909 q 300 807 378 909 q 223 499 223 705 q 300 195 223 294 q 522 95 378 95 m 521 1230 l 416 1137 l 303 1137 l 478 1295 l 567 1295 l 738 1137 l 618 1137 l 521 1230 z "},"Ồ":{"ha":1038,"x_min":86,"x_max":952,"o":"m 520 -14 q 288 46 385 -14 q 138 221 190 106 q 86 498 86 336 q 139 779 86 662 q 290 957 192 896 q 521 1018 388 1018 q 750 957 653 1018 q 900 780 847 896 q 952 500 952 663 q 900 223 952 338 q 751 47 848 107 q 520 -14 653 -14 m 522 95 q 741 194 665 95 q 816 499 816 294 q 740 807 816 706 q 521 909 664 909 q 300 807 378 909 q 223 499 223 705 q 300 195 223 294 q 522 95 378 95 z "},"Ổ":{"ha":1038,"x_min":86,"x_max":952,"o":"m 520 -14 q 288 46 385 -14 q 138 221 190 106 q 86 498 86 336 q 139 779 86 662 q 290 957 192 896 q 521 1018 388 1018 q 750 957 653 1018 q 900 780 847 896 q 952 500 952 663 q 900 223 952 338 q 751 47 848 107 q 520 -14 653 -14 m 522 95 q 741 194 665 95 q 816 499 816 294 q 740 807 816 706 q 521 909 664 909 q 300 807 378 909 q 223 499 223 705 q 300 195 223 294 q 522 95 378 95 z "},"Ỗ":{"ha":1038,"x_min":86,"x_max":952,"o":"m 520 -14 q 288 46 385 -14 q 138 221 190 106 q 86 498 86 336 q 139 779 86 662 q 290 957 192 896 q 521 1018 388 1018 q 750 957 653 1018 q 900 780 847 896 q 952 500 952 663 q 900 223 952 338 q 751 47 848 107 q 520 -14 653 -14 m 522 95 q 741 194 665 95 q 816 499 816 294 q 740 807 816 706 q 521 909 664 909 q 300 807 378 909 q 223 499 223 705 q 300 195 223 294 q 522 95 378 95 z "},"Ȍ":{"ha":1038,"x_min":86,"x_max":952,"o":"m 520 -14 q 288 46 385 -14 q 138 221 190 106 q 86 498 86 336 q 139 779 86 662 q 290 957 192 896 q 521 1018 388 1018 q 750 957 653 1018 q 900 780 847 896 q 952 500 952 663 q 900 223 952 338 q 751 47 848 107 q 520 -14 653 -14 m 522 95 q 741 194 665 95 q 816 499 816 294 q 740 807 816 706 q 521 909 664 909 q 300 807 378 909 q 223 499 223 705 q 300 195 223 294 q 522 95 378 95 m 478 1115 l 437 1063 l 227 1229 l 291 1306 l 478 1115 m 703 1115 l 661 1063 l 451 1229 l 516 1306 l 703 1115 z "},"Ö":{"ha":1038,"x_min":86,"x_max":952,"o":"m 520 -14 q 288 46 385 -14 q 138 221 190 106 q 86 498 86 336 q 139 779 86 662 q 290 957 192 896 q 521 1018 388 1018 q 750 957 653 1018 q 900 780 847 896 q 952 500 952 663 q 900 223 952 338 q 751 47 848 107 q 520 -14 653 -14 m 522 95 q 741 194 665 95 q 816 499 816 294 q 740 807 816 706 q 521 909 664 909 q 300 807 378 909 q 223 499 223 705 q 300 195 223 294 q 522 95 378 95 m 337 1283 l 469 1283 l 469 1153 l 337 1153 l 337 1283 m 570 1283 l 703 1283 l 703 1153 l 570 1153 l 570 1283 z "},"Ọ":{"ha":1038,"x_min":86,"x_max":952,"o":"m 520 -14 q 288 46 385 -14 q 138 221 190 106 q 86 498 86 336 q 139 779 86 662 q 290 957 192 896 q 521 1018 388 1018 q 750 957 653 1018 q 900 780 847 896 q 952 500 952 663 q 900 223 952 338 q 751 47 848 107 q 520 -14 653 -14 m 522 95 q 741 194 665 95 q 816 499 816 294 q 740 807 816 706 q 521 909 664 909 q 300 807 378 909 q 223 499 223 705 q 300 195 223 294 q 522 95 378 95 z "},"Ò":{"ha":1038,"x_min":86,"x_max":952,"o":"m 520 -14 q 288 46 385 -14 q 138 221 190 106 q 86 498 86 336 q 139 779 86 662 q 290 957 192 896 q 521 1018 388 1018 q 750 957 653 1018 q 900 780 847 896 q 952 500 952 663 q 900 223 952 338 q 751 47 848 107 q 520 -14 653 -14 m 522 95 q 741 194 665 95 q 816 499 816 294 q 740 807 816 706 q 521 909 664 909 q 300 807 378 909 q 223 499 223 705 q 300 195 223 294 q 522 95 378 95 m 690 1169 l 668 1105 l 319 1208 l 351 1303 l 690 1169 z "},"Ỏ":{"ha":1038,"x_min":86,"x_max":952,"o":"m 520 -14 q 288 46 385 -14 q 138 221 190 106 q 86 498 86 336 q 139 779 86 662 q 290 957 192 896 q 521 1018 388 1018 q 750 957 653 1018 q 900 780 847 896 q 952 500 952 663 q 900 223 952 338 q 751 47 848 107 q 520 -14 653 -14 m 522 95 q 741 194 665 95 q 816 499 816 294 q 740 807 816 706 q 521 909 664 909 q 300 807 378 909 q 223 499 223 705 q 300 195 223 294 q 522 95 378 95 m 463 1256 q 520 1275 492 1275 q 565 1252 550 1275 q 572 1226 572 1239 q 560 1191 572 1208 q 524 1159 547 1173 l 562 1101 q 625 1158 603 1126 q 647 1224 647 1190 q 624 1292 647 1259 q 582 1331 608 1317 q 524 1344 556 1344 q 426 1313 475 1344 l 463 1256 z "},"Ơ":{"ha":1088,"x_min":86,"x_max":1029,"o":"m 1029 1026 q 994 872 1028 923 q 883 814 960 821 q 952 500 952 688 q 900 223 952 338 q 751 47 848 107 q 520 -14 653 -14 q 288 46 385 -14 q 138 221 190 106 q 86 498 86 336 q 139 779 86 662 q 290 957 192 896 q 521 1018 388 1018 q 693 986 616 1018 q 826 894 770 955 q 884 904 864 894 q 915 942 905 914 q 928 1026 926 969 l 1029 1026 m 522 95 q 741 194 665 95 q 816 499 816 294 q 740 807 816 706 q 521 909 664 909 q 300 807 378 909 q 223 499 223 705 q 300 195 223 294 q 522 95 378 95 z "},"Ớ":{"ha":1088,"x_min":86,"x_max":1029,"o":"m 1029 1026 q 994 872 1028 923 q 883 814 960 821 q 952 500 952 688 q 900 223 952 338 q 751 47 848 107 q 520 -14 653 -14 q 288 46 385 -14 q 138 221 190 106 q 86 498 86 336 q 139 779 86 662 q 290 957 192 896 q 521 1018 388 1018 q 693 986 616 1018 q 826 894 770 955 q 884 904 864 894 q 915 942 905 914 q 928 1026 926 969 l 1029 1026 m 522 95 q 741 194 665 95 q 816 499 816 294 q 740 807 816 706 q 521 909 664 909 q 300 807 378 909 q 223 499 223 705 q 300 195 223 294 q 522 95 378 95 m 707 1208 l 358 1105 l 337 1169 l 675 1303 l 707 1208 z "},"Ợ":{"ha":1088,"x_min":86,"x_max":1029,"o":"m 1029 1026 q 994 872 1028 923 q 883 814 960 821 q 952 500 952 688 q 900 223 952 338 q 751 47 848 107 q 520 -14 653 -14 q 288 46 385 -14 q 138 221 190 106 q 86 498 86 336 q 139 779 86 662 q 290 957 192 896 q 521 1018 388 1018 q 693 986 616 1018 q 826 894 770 955 q 884 904 864 894 q 915 942 905 914 q 928 1026 926 969 l 1029 1026 m 522 95 q 741 194 665 95 q 816 499 816 294 q 740 807 816 706 q 521 909 664 909 q 300 807 378 909 q 223 499 223 705 q 300 195 223 294 q 522 95 378 95 z "},"Ờ":{"ha":1088,"x_min":86,"x_max":1029,"o":"m 1029 1026 q 994 872 1028 923 q 883 814 960 821 q 952 500 952 688 q 900 223 952 338 q 751 47 848 107 q 520 -14 653 -14 q 288 46 385 -14 q 138 221 190 106 q 86 498 86 336 q 139 779 86 662 q 290 957 192 896 q 521 1018 388 1018 q 693 986 616 1018 q 826 894 770 955 q 884 904 864 894 q 915 942 905 914 q 928 1026 926 969 l 1029 1026 m 522 95 q 741 194 665 95 q 816 499 816 294 q 740 807 816 706 q 521 909 664 909 q 300 807 378 909 q 223 499 223 705 q 300 195 223 294 q 522 95 378 95 m 690 1169 l 668 1105 l 319 1208 l 351 1303 l 690 1169 z "},"Ở":{"ha":1088,"x_min":86,"x_max":1029,"o":"m 1029 1026 q 994 872 1028 923 q 883 814 960 821 q 952 500 952 688 q 900 223 952 338 q 751 47 848 107 q 520 -14 653 -14 q 288 46 385 -14 q 138 221 190 106 q 86 498 86 336 q 139 779 86 662 q 290 957 192 896 q 521 1018 388 1018 q 693 986 616 1018 q 826 894 770 955 q 884 904 864 894 q 915 942 905 914 q 928 1026 926 969 l 1029 1026 m 522 95 q 741 194 665 95 q 816 499 816 294 q 740 807 816 706 q 521 909 664 909 q 300 807 378 909 q 223 499 223 705 q 300 195 223 294 q 522 95 378 95 m 463 1256 q 520 1275 492 1275 q 565 1252 550 1275 q 572 1226 572 1239 q 560 1191 572 1208 q 524 1159 547 1173 l 562 1101 q 625 1158 603 1126 q 647 1224 647 1190 q 624 1292 647 1259 q 582 1331 608 1317 q 524 1344 556 1344 q 426 1313 475 1344 l 463 1256 z "},"Ỡ":{"ha":1088,"x_min":86,"x_max":1029,"o":"m 1029 1026 q 994 872 1028 923 q 883 814 960 821 q 952 500 952 688 q 900 223 952 338 q 751 47 848 107 q 520 -14 653 -14 q 288 46 385 -14 q 138 221 190 106 q 86 498 86 336 q 139 779 86 662 q 290 957 192 896 q 521 1018 388 1018 q 693 986 616 1018 q 826 894 770 955 q 884 904 864 894 q 915 942 905 914 q 928 1026 926 969 l 1029 1026 m 522 95 q 741 194 665 95 q 816 499 816 294 q 740 807 816 706 q 521 909 664 909 q 300 807 378 909 q 223 499 223 705 q 300 195 223 294 q 522 95 378 95 m 731 1209 q 612 1169 676 1169 q 565 1174 586 1169 q 517 1189 544 1179 q 473 1201 490 1197 q 436 1206 456 1206 q 386 1196 406 1206 q 340 1167 367 1187 l 316 1233 q 369 1271 343 1258 q 431 1284 394 1284 q 476 1279 454 1284 q 526 1264 499 1274 q 574 1250 556 1255 q 613 1246 592 1246 q 661 1256 640 1246 q 708 1284 682 1265 l 731 1209 z "},"Ő":{"ha":1038,"x_min":86,"x_max":952,"o":"m 520 -14 q 288 46 385 -14 q 138 221 190 106 q 86 498 86 336 q 139 779 86 662 q 290 957 192 896 q 521 1018 388 1018 q 750 957 653 1018 q 900 780 847 896 q 952 500 952 663 q 900 223 952 338 q 751 47 848 107 q 520 -14 653 -14 m 522 95 q 741 194 665 95 q 816 499 816 294 q 740 807 816 706 q 521 909 664 909 q 300 807 378 909 q 223 499 223 705 q 300 195 223 294 q 522 95 378 95 m 806 1229 l 595 1063 l 553 1115 l 740 1306 l 806 1229 m 579 1229 l 371 1064 l 328 1115 l 516 1306 l 579 1229 z "},"Ȏ":{"ha":1038,"x_min":86,"x_max":952,"o":"m 520 -14 q 288 46 385 -14 q 138 221 190 106 q 86 498 86 336 q 139 779 86 662 q 290 957 192 896 q 521 1018 388 1018 q 750 957 653 1018 q 900 780 847 896 q 952 500 952 663 q 900 223 952 338 q 751 47 848 107 q 520 -14 653 -14 m 522 95 q 741 194 665 95 q 816 499 816 294 q 740 807 816 706 q 521 909 664 909 q 300 807 378 909 q 223 499 223 705 q 300 195 223 294 q 522 95 378 95 m 636 1197 q 519 1269 592 1269 q 449 1249 474 1269 q 404 1197 424 1228 l 313 1197 q 351 1273 324 1240 q 422 1326 379 1307 q 519 1346 465 1346 q 617 1325 573 1346 q 689 1270 660 1304 q 730 1197 718 1237 l 636 1197 z "},"Ō":{"ha":1038,"x_min":86,"x_max":952,"o":"m 520 -14 q 288 46 385 -14 q 138 221 190 106 q 86 498 86 336 q 139 779 86 662 q 290 957 192 896 q 521 1018 388 1018 q 750 957 653 1018 q 900 780 847 896 q 952 500 952 663 q 900 223 952 338 q 751 47 848 107 q 520 -14 653 -14 m 522 95 q 741 194 665 95 q 816 499 816 294 q 740 807 816 706 q 521 909 664 909 q 300 807 378 909 q 223 499 223 705 q 300 195 223 294 q 522 95 378 95 m 726 1184 l 316 1184 l 316 1272 l 726 1272 l 726 1184 z "},"Ǫ":{"ha":1038,"x_min":86,"x_max":952,"o":"m 632 -1 q 537 -56 565 -31 q 508 -113 508 -81 q 524 -152 508 -139 q 573 -165 539 -165 q 629 -157 603 -165 q 672 -139 655 -149 l 672 -205 q 618 -225 653 -216 q 544 -233 583 -233 q 443 -204 478 -233 q 408 -124 408 -175 q 426 -62 408 -89 q 490 -13 445 -35 q 273 56 364 -6 q 134 230 183 117 q 86 498 86 342 q 139 779 86 662 q 290 957 192 896 q 521 1018 388 1018 q 750 957 653 1018 q 900 780 847 896 q 952 500 952 663 q 914 258 952 363 q 804 87 876 153 q 632 -1 733 22 m 223 499 q 300 195 223 294 q 522 95 378 95 q 741 194 665 95 q 816 499 816 294 q 740 807 816 706 q 521 909 664 909 q 300 807 378 909 q 223 499 223 705 z "},"Ø":{"ha":1040,"x_min":40,"x_max":999,"o":"m 40 48 l 158 178 q 85 498 85 301 q 137 779 85 662 q 288 957 190 896 q 519 1018 385 1018 q 687 988 612 1018 q 819 899 763 958 l 931 1022 l 999 956 l 877 822 q 951 500 951 694 q 899 223 951 338 q 749 47 847 107 q 517 -14 651 -14 q 348 15 424 -14 q 219 101 273 44 l 108 -19 l 40 48 m 730 808 q 642 886 694 860 q 519 911 590 911 q 314 819 384 911 q 239 540 244 726 l 238 510 q 269 292 238 389 l 730 808 m 519 94 q 721 182 653 94 q 794 451 790 269 q 795 488 795 463 q 765 709 795 610 l 306 192 q 519 94 376 94 z "},"Ǿ":{"ha":1040,"x_min":40,"x_max":999,"o":"m 40 48 l 158 178 q 85 498 85 301 q 137 779 85 662 q 288 957 190 896 q 519 1018 385 1018 q 687 988 612 1018 q 819 899 763 958 l 931 1022 l 999 956 l 877 822 q 951 500 951 694 q 899 223 951 338 q 749 47 847 107 q 517 -14 651 -14 q 348 15 424 -14 q 219 101 273 44 l 108 -19 l 40 48 m 730 808 q 642 886 694 860 q 519 911 590 911 q 314 819 384 911 q 239 540 244 726 l 238 510 q 269 292 238 389 l 730 808 m 519 94 q 721 182 653 94 q 794 451 790 269 q 795 488 795 463 q 765 709 795 610 l 306 192 q 519 94 376 94 m 703 1208 l 354 1105 l 333 1169 l 672 1303 l 703 1208 z "},"Õ":{"ha":1038,"x_min":86,"x_max":952,"o":"m 520 -14 q 288 46 385 -14 q 138 221 190 106 q 86 498 86 336 q 139 779 86 662 q 290 957 192 896 q 521 1018 388 1018 q 750 957 653 1018 q 900 780 847 896 q 952 500 952 663 q 900 223 952 338 q 751 47 848 107 q 520 -14 653 -14 m 522 95 q 741 194 665 95 q 816 499 816 294 q 740 807 816 706 q 521 909 664 909 q 300 807 378 909 q 223 499 223 705 q 300 195 223 294 q 522 95 378 95 m 731 1209 q 612 1169 676 1169 q 565 1174 586 1169 q 517 1189 544 1179 q 473 1201 490 1197 q 436 1206 456 1206 q 386 1196 406 1206 q 340 1167 367 1187 l 316 1233 q 369 1271 343 1258 q 431 1284 394 1284 q 476 1279 454 1284 q 526 1264 499 1274 q 574 1250 556 1255 q 613 1246 592 1246 q 661 1256 640 1246 q 708 1284 682 1265 l 731 1209 z "},"Œ":{"ha":1553,"x_min":86,"x_max":1463,"o":"m 1463 0 l 842 0 l 819 128 q 699 22 774 58 q 526 -14 624 -14 q 290 46 389 -14 q 139 221 191 106 q 86 498 86 336 q 140 779 86 662 q 293 957 193 896 q 531 1018 393 1018 q 702 982 629 1018 q 819 875 775 946 l 847 1004 l 1444 1004 l 1444 896 l 947 896 l 947 560 l 1313 560 l 1313 453 l 947 453 l 947 109 l 1463 109 l 1463 0 m 522 93 q 733 192 665 93 q 801 499 801 290 q 732 810 801 709 q 521 912 663 912 q 307 810 378 912 q 235 499 235 708 q 306 192 235 292 q 522 93 378 93 z "},"P":{"ha":887,"x_min":130,"x_max":840,"o":"m 130 1004 l 468 1004 q 661 968 576 1004 q 793 860 745 931 q 840 688 840 788 q 796 518 840 589 q 671 409 751 447 q 485 372 591 372 l 258 372 l 258 0 l 130 0 l 130 1004 m 483 478 q 605 504 552 478 q 688 580 658 531 q 718 694 718 628 q 688 807 718 760 q 603 876 658 853 q 476 900 548 900 l 258 900 l 258 478 l 483 478 z "},"Þ":{"ha":924,"x_min":130,"x_max":877,"o":"m 877 520 q 832 357 877 422 q 706 260 787 292 q 518 228 626 228 l 272 228 l 272 0 l 130 0 l 130 1004 l 272 1004 l 272 797 l 501 797 q 697 767 612 797 q 829 675 781 737 q 877 520 877 613 m 731 522 q 669 650 731 609 q 494 690 607 690 l 272 690 l 272 335 l 503 335 q 671 382 610 335 q 731 522 731 428 z "},"Q":{"ha":1017,"x_min":65,"x_max":932,"o":"m 65 500 q 118 781 65 664 q 268 958 171 897 q 499 1018 366 1018 q 730 958 633 1018 q 880 781 827 897 q 932 500 932 664 q 884 229 932 340 q 734 53 836 118 q 809 -31 759 -3 q 924 -62 859 -60 l 924 -168 q 755 -133 834 -168 q 618 -1 676 -97 q 499 -14 549 -14 q 268 45 366 -14 q 118 220 171 105 q 65 500 65 335 m 203 497 q 279 194 203 293 q 499 95 355 95 q 720 194 644 95 q 796 499 796 294 q 720 806 796 703 q 499 909 644 909 q 278 806 354 909 q 203 497 203 703 z "},"R":{"ha":939,"x_min":130,"x_max":844,"o":"m 713 0 l 528 435 l 255 435 l 255 0 l 130 0 l 130 1004 l 517 1004 q 760 933 677 1004 q 843 731 843 861 q 788 554 843 619 q 647 458 732 489 l 844 0 l 713 0 m 476 539 q 653 585 592 539 q 715 724 715 632 q 661 857 715 812 q 506 901 606 901 l 255 901 l 255 539 l 476 539 z "},"Ŕ":{"ha":939,"x_min":130,"x_max":844,"o":"m 713 0 l 528 435 l 255 435 l 255 0 l 130 0 l 130 1004 l 517 1004 q 760 933 677 1004 q 843 731 843 861 q 788 554 843 619 q 647 458 732 489 l 844 0 l 713 0 m 476 539 q 653 585 592 539 q 715 724 715 632 q 661 857 715 812 q 506 901 606 901 l 255 901 l 255 539 l 476 539 m 639 1208 l 290 1105 l 269 1169 l 607 1303 l 639 1208 z "},"Ř":{"ha":939,"x_min":130,"x_max":844,"o":"m 713 0 l 528 435 l 255 435 l 255 0 l 130 0 l 130 1004 l 517 1004 q 760 933 677 1004 q 843 731 843 861 q 788 554 843 619 q 647 458 732 489 l 844 0 l 713 0 m 476 539 q 653 585 592 539 q 715 724 715 632 q 661 857 715 812 q 506 901 606 901 l 255 901 l 255 539 l 476 539 m 669 1291 l 499 1132 l 409 1132 l 235 1291 l 348 1291 l 453 1197 l 550 1291 l 669 1291 z "},"Ŗ":{"ha":939,"x_min":130,"x_max":844,"o":"m 713 0 l 528 435 l 255 435 l 255 0 l 130 0 l 130 1004 l 517 1004 q 760 933 677 1004 q 843 731 843 861 q 788 554 843 619 q 647 458 732 489 l 844 0 l 713 0 m 476 539 q 653 585 592 539 q 715 724 715 632 q 661 857 715 812 q 506 901 606 901 l 255 901 l 255 539 l 476 539 z "},"Ȑ":{"ha":939,"x_min":130,"x_max":844,"o":"m 713 0 l 528 435 l 255 435 l 255 0 l 130 0 l 130 1004 l 517 1004 q 760 933 677 1004 q 843 731 843 861 q 788 554 843 619 q 647 458 732 489 l 844 0 l 713 0 m 476 539 q 653 585 592 539 q 715 724 715 632 q 661 857 715 812 q 506 901 606 901 l 255 901 l 255 539 l 476 539 m 410 1115 l 369 1063 l 159 1229 l 223 1306 l 410 1115 m 635 1115 l 593 1063 l 383 1229 l 448 1306 l 635 1115 z "},"Ṛ":{"ha":939,"x_min":130,"x_max":844,"o":"m 713 0 l 528 435 l 255 435 l 255 0 l 130 0 l 130 1004 l 517 1004 q 760 933 677 1004 q 843 731 843 861 q 788 554 843 619 q 647 458 732 489 l 844 0 l 713 0 m 476 539 q 653 585 592 539 q 715 724 715 632 q 661 857 715 812 q 506 901 606 901 l 255 901 l 255 539 l 476 539 z "},"Ȓ":{"ha":939,"x_min":130,"x_max":844,"o":"m 713 0 l 528 435 l 255 435 l 255 0 l 130 0 l 130 1004 l 517 1004 q 760 933 677 1004 q 843 731 843 861 q 788 554 843 619 q 647 458 732 489 l 844 0 l 713 0 m 476 539 q 653 585 592 539 q 715 724 715 632 q 661 857 715 812 q 506 901 606 901 l 255 901 l 255 539 l 476 539 m 567 1197 q 450 1269 524 1269 q 380 1249 405 1269 q 335 1197 355 1228 l 244 1197 q 283 1273 255 1240 q 353 1326 310 1307 q 450 1346 396 1346 q 548 1325 504 1346 q 620 1270 592 1304 q 661 1197 649 1237 l 567 1197 z "},"S":{"ha":960,"x_min":84,"x_max":867,"o":"m 483 -14 q 298 17 385 -14 q 154 109 212 49 q 84 256 97 170 l 215 265 q 265 169 226 208 q 360 110 303 130 q 483 90 417 90 q 614 111 556 90 q 705 169 672 131 q 738 257 738 207 q 692 369 738 325 q 559 433 646 413 l 357 478 q 115 726 115 533 q 161 877 115 811 q 291 980 208 943 q 478 1017 374 1017 q 672 978 590 1017 q 799 875 753 939 q 852 734 844 810 l 726 726 q 644 867 710 823 q 478 910 578 910 q 366 890 419 910 q 281 831 314 870 q 249 737 249 792 q 265 672 249 699 q 320 624 282 645 q 426 588 359 603 l 622 541 q 813 434 759 510 q 867 258 867 357 q 821 120 867 183 q 688 22 775 58 q 483 -14 601 -14 z "},"Ś":{"ha":960,"x_min":84,"x_max":867,"o":"m 483 -14 q 298 17 385 -14 q 154 109 212 49 q 84 256 97 170 l 215 265 q 265 169 226 208 q 360 110 303 130 q 483 90 417 90 q 614 111 556 90 q 705 169 672 131 q 738 257 738 207 q 692 369 738 325 q 559 433 646 413 l 357 478 q 115 726 115 533 q 161 877 115 811 q 291 980 208 943 q 478 1017 374 1017 q 672 978 590 1017 q 799 875 753 939 q 852 734 844 810 l 726 726 q 644 867 710 823 q 478 910 578 910 q 366 890 419 910 q 281 831 314 870 q 249 737 249 792 q 265 672 249 699 q 320 624 282 645 q 426 588 359 603 l 622 541 q 813 434 759 510 q 867 258 867 357 q 821 120 867 183 q 688 22 775 58 q 483 -14 601 -14 m 662 1208 l 313 1105 l 292 1169 l 630 1303 l 662 1208 z "},"Š":{"ha":960,"x_min":84,"x_max":867,"o":"m 483 -14 q 298 17 385 -14 q 154 109 212 49 q 84 256 97 170 l 215 265 q 265 169 226 208 q 360 110 303 130 q 483 90 417 90 q 614 111 556 90 q 705 169 672 131 q 738 257 738 207 q 692 369 738 325 q 559 433 646 413 l 357 478 q 115 726 115 533 q 161 877 115 811 q 291 980 208 943 q 478 1017 374 1017 q 672 978 590 1017 q 799 875 753 939 q 852 734 844 810 l 726 726 q 644 867 710 823 q 478 910 578 910 q 366 890 419 910 q 281 831 314 870 q 249 737 249 792 q 265 672 249 699 q 320 624 282 645 q 426 588 359 603 l 622 541 q 813 434 759 510 q 867 258 867 357 q 821 120 867 183 q 688 22 775 58 q 483 -14 601 -14 m 693 1291 l 523 1132 l 433 1132 l 258 1291 l 372 1291 l 476 1197 l 574 1291 l 693 1291 z "},"Ş":{"ha":960,"x_min":84,"x_max":867,"o":"m 867 258 q 823 123 867 184 q 696 25 779 62 q 499 -14 613 -11 l 475 -77 q 569 -110 540 -81 q 599 -178 599 -139 q 556 -257 599 -228 q 449 -285 513 -285 q 319 -251 372 -285 l 340 -198 q 434 -231 382 -231 q 490 -217 472 -231 q 509 -179 509 -204 q 483 -134 509 -149 q 399 -118 457 -119 q 390 -116 392 -118 q 390 -109 388 -114 l 433 -12 q 269 29 344 -4 q 145 119 194 62 q 84 256 96 177 l 215 265 q 265 169 226 208 q 360 110 303 130 q 483 90 417 90 q 614 111 556 90 q 705 169 672 131 q 738 257 738 207 q 692 369 738 325 q 559 433 646 413 l 357 478 q 115 726 115 533 q 161 877 115 811 q 291 980 208 943 q 478 1017 374 1017 q 672 978 590 1017 q 799 875 753 939 q 852 734 844 810 l 726 726 q 644 867 710 823 q 478 910 578 910 q 366 890 419 910 q 281 831 314 870 q 249 737 249 792 q 265 672 249 699 q 320 624 282 645 q 426 588 359 603 l 622 541 q 813 434 759 510 q 867 258 867 357 z "},"Ŝ":{"ha":960,"x_min":84,"x_max":867,"o":"m 483 -14 q 298 17 385 -14 q 154 109 212 49 q 84 256 97 170 l 215 265 q 265 169 226 208 q 360 110 303 130 q 483 90 417 90 q 614 111 556 90 q 705 169 672 131 q 738 257 738 207 q 692 369 738 325 q 559 433 646 413 l 357 478 q 115 726 115 533 q 161 877 115 811 q 291 980 208 943 q 478 1017 374 1017 q 672 978 590 1017 q 799 875 753 939 q 852 734 844 810 l 726 726 q 644 867 710 823 q 478 910 578 910 q 366 890 419 910 q 281 831 314 870 q 249 737 249 792 q 265 672 249 699 q 320 624 282 645 q 426 588 359 603 l 622 541 q 813 434 759 510 q 867 258 867 357 q 821 120 867 183 q 688 22 775 58 q 483 -14 601 -14 m 476 1230 l 372 1137 l 259 1137 l 433 1295 l 523 1295 l 693 1137 l 574 1137 l 476 1230 z "},"Ș":{"ha":960,"x_min":84,"x_max":867,"o":"m 483 -14 q 298 17 385 -14 q 154 109 212 49 q 84 256 97 170 l 215 265 q 265 169 226 208 q 360 110 303 130 q 483 90 417 90 q 614 111 556 90 q 705 169 672 131 q 738 257 738 207 q 692 369 738 325 q 559 433 646 413 l 357 478 q 115 726 115 533 q 161 877 115 811 q 291 980 208 943 q 478 1017 374 1017 q 672 978 590 1017 q 799 875 753 939 q 852 734 844 810 l 726 726 q 644 867 710 823 q 478 910 578 910 q 366 890 419 910 q 281 831 314 870 q 249 737 249 792 q 265 672 249 699 q 320 624 282 645 q 426 588 359 603 l 622 541 q 813 434 759 510 q 867 258 867 357 q 821 120 867 183 q 688 22 775 58 q 483 -14 601 -14 z "},"Ṣ":{"ha":960,"x_min":84,"x_max":867,"o":"m 483 -14 q 298 17 385 -14 q 154 109 212 49 q 84 256 97 170 l 215 265 q 265 169 226 208 q 360 110 303 130 q 483 90 417 90 q 614 111 556 90 q 705 169 672 131 q 738 257 738 207 q 692 369 738 325 q 559 433 646 413 l 357 478 q 115 726 115 533 q 161 877 115 811 q 291 980 208 943 q 478 1017 374 1017 q 672 978 590 1017 q 799 875 753 939 q 852 734 844 810 l 726 726 q 644 867 710 823 q 478 910 578 910 q 366 890 419 910 q 281 831 314 870 q 249 737 249 792 q 265 672 249 699 q 320 624 282 645 q 426 588 359 603 l 622 541 q 813 434 759 510 q 867 258 867 357 q 821 120 867 183 q 688 22 775 58 q 483 -14 601 -14 z "},"Ə":{"ha":1036,"x_min":86,"x_max":951,"o":"m 798 549 q 739 795 798 688 q 519 902 680 902 q 382 870 435 902 q 302 798 328 839 q 252 701 276 757 q 235 664 239 670 q 229 660 234 660 q 217 663 224 660 l 122 705 q 114 714 114 708 q 118 727 114 719 q 192 860 153 802 q 314 968 232 919 q 519 1018 395 1018 q 769 944 673 1018 q 908 753 866 870 q 951 502 951 637 q 902 246 951 363 q 756 57 853 128 q 517 -14 658 -14 q 269 55 365 -14 q 129 240 172 123 q 86 510 86 357 q 89 530 86 524 q 104 535 92 535 l 784 535 q 795 538 792 535 q 798 549 798 541 m 258 435 q 244 432 248 435 q 241 421 241 429 q 268 261 241 335 q 356 141 294 188 q 517 94 417 94 q 727 188 665 94 q 797 435 790 282 l 258 435 z "},"T":{"ha":799,"x_min":21,"x_max":778,"o":"m 21 1004 l 778 1004 l 778 890 l 470 890 l 470 0 l 346 0 l 346 890 l 21 890 l 21 1004 z "},"Ŧ":{"ha":799,"x_min":21,"x_max":778,"o":"m 470 890 l 470 553 l 675 553 l 675 453 l 470 453 l 470 0 l 346 0 l 346 453 l 147 453 l 147 553 l 346 553 l 346 890 l 21 890 l 21 1004 l 778 1004 l 778 890 l 470 890 z "},"Ť":{"ha":799,"x_min":21,"x_max":778,"o":"m 21 1004 l 778 1004 l 778 890 l 470 890 l 470 0 l 346 0 l 346 890 l 21 890 l 21 1004 m 630 1291 l 460 1132 l 369 1132 l 195 1291 l 308 1291 l 413 1197 l 510 1291 l 630 1291 z "},"Ţ":{"ha":799,"x_min":21,"x_max":778,"o":"m 447 0 l 418 -75 q 512 -108 483 -78 q 542 -176 542 -137 q 499 -255 542 -226 q 392 -283 456 -283 q 262 -249 315 -283 l 283 -196 q 377 -228 325 -228 q 433 -215 415 -228 q 452 -177 452 -202 q 426 -132 452 -147 q 342 -116 400 -117 q 333 -114 335 -116 q 333 -107 331 -112 l 380 0 l 346 0 l 346 890 l 21 890 l 21 1004 l 778 1004 l 778 890 l 470 890 l 470 0 l 447 0 z "},"Ț":{"ha":799,"x_min":21,"x_max":778,"o":"m 21 1004 l 778 1004 l 778 890 l 470 890 l 470 0 l 346 0 l 346 890 l 21 890 l 21 1004 z "},"Ṭ":{"ha":799,"x_min":21,"x_max":778,"o":"m 21 1004 l 778 1004 l 778 890 l 470 890 l 470 0 l 346 0 l 346 890 l 21 890 l 21 1004 z "},"U":{"ha":984,"x_min":130,"x_max":861,"o":"m 861 345 q 772 77 861 168 q 495 -14 683 -14 q 217 80 305 -14 q 130 359 130 173 l 130 1004 l 259 1004 l 259 340 q 319 157 259 218 q 495 95 380 95 q 674 156 612 95 q 735 340 735 217 l 735 1004 l 861 1004 l 861 345 z "},"Ú":{"ha":984,"x_min":130,"x_max":861,"o":"m 861 345 q 772 77 861 168 q 495 -14 683 -14 q 217 80 305 -14 q 130 359 130 173 l 130 1004 l 259 1004 l 259 340 q 319 157 259 218 q 495 95 380 95 q 674 156 612 95 q 735 340 735 217 l 735 1004 l 861 1004 l 861 345 m 683 1208 l 333 1105 l 313 1169 l 651 1303 l 683 1208 z "},"Ŭ":{"ha":984,"x_min":130,"x_max":861,"o":"m 861 345 q 772 77 861 168 q 495 -14 683 -14 q 217 80 305 -14 q 130 359 130 173 l 130 1004 l 259 1004 l 259 340 q 319 157 259 218 q 495 95 380 95 q 674 156 612 95 q 735 340 735 217 l 735 1004 l 861 1004 l 861 345 m 710 1288 q 670 1215 699 1249 q 598 1160 642 1181 q 500 1140 554 1140 q 365 1181 419 1140 q 294 1288 310 1223 l 385 1288 q 429 1236 403 1257 q 500 1216 455 1216 q 617 1288 574 1216 l 710 1288 z "},"Û":{"ha":984,"x_min":130,"x_max":861,"o":"m 861 345 q 772 77 861 168 q 495 -14 683 -14 q 217 80 305 -14 q 130 359 130 173 l 130 1004 l 259 1004 l 259 340 q 319 157 259 218 q 495 95 380 95 q 674 156 612 95 q 735 340 735 217 l 735 1004 l 861 1004 l 861 345 m 497 1230 l 392 1137 l 279 1137 l 453 1295 l 543 1295 l 713 1137 l 594 1137 l 497 1230 z "},"Ȕ":{"ha":984,"x_min":130,"x_max":861,"o":"m 861 345 q 772 77 861 168 q 495 -14 683 -14 q 217 80 305 -14 q 130 359 130 173 l 130 1004 l 259 1004 l 259 340 q 319 157 259 218 q 495 95 380 95 q 674 156 612 95 q 735 340 735 217 l 735 1004 l 861 1004 l 861 345 m 454 1115 l 413 1063 l 203 1229 l 267 1306 l 454 1115 m 679 1115 l 637 1063 l 427 1229 l 492 1306 l 679 1115 z "},"Ü":{"ha":984,"x_min":130,"x_max":861,"o":"m 861 345 q 772 77 861 168 q 495 -14 683 -14 q 217 80 305 -14 q 130 359 130 173 l 130 1004 l 259 1004 l 259 340 q 319 157 259 218 q 495 95 380 95 q 674 156 612 95 q 735 340 735 217 l 735 1004 l 861 1004 l 861 345 m 312 1283 l 444 1283 l 444 1153 l 312 1153 l 312 1283 m 545 1283 l 678 1283 l 678 1153 l 545 1153 l 545 1283 z "},"Ụ":{"ha":984,"x_min":130,"x_max":861,"o":"m 861 345 q 772 77 861 168 q 495 -14 683 -14 q 217 80 305 -14 q 130 359 130 173 l 130 1004 l 259 1004 l 259 340 q 319 157 259 218 q 495 95 380 95 q 674 156 612 95 q 735 340 735 217 l 735 1004 l 861 1004 l 861 345 z "},"Ù":{"ha":984,"x_min":130,"x_max":861,"o":"m 861 345 q 772 77 861 168 q 495 -14 683 -14 q 217 80 305 -14 q 130 359 130 173 l 130 1004 l 259 1004 l 259 340 q 319 157 259 218 q 495 95 380 95 q 674 156 612 95 q 735 340 735 217 l 735 1004 l 861 1004 l 861 345 m 665 1169 l 644 1105 l 295 1208 l 327 1303 l 665 1169 z "},"Ủ":{"ha":984,"x_min":130,"x_max":861,"o":"m 861 345 q 772 77 861 168 q 495 -14 683 -14 q 217 80 305 -14 q 130 359 130 173 l 130 1004 l 259 1004 l 259 340 q 319 157 259 218 q 495 95 380 95 q 674 156 612 95 q 735 340 735 217 l 735 1004 l 861 1004 l 861 345 m 439 1256 q 496 1275 468 1275 q 540 1252 526 1275 q 548 1226 548 1239 q 535 1191 548 1208 q 500 1159 523 1173 l 538 1101 q 600 1158 578 1126 q 622 1224 622 1190 q 600 1292 622 1259 q 557 1331 583 1317 q 500 1344 531 1344 q 402 1313 451 1344 l 439 1256 z "},"Ư":{"ha":1139,"x_min":130,"x_max":1053,"o":"m 1053 1026 q 1033 900 1052 948 q 972 831 1014 853 q 861 813 931 810 l 861 345 q 772 77 861 168 q 495 -14 683 -14 q 217 80 305 -14 q 130 359 130 173 l 130 1004 l 259 1004 l 259 340 q 319 157 259 218 q 495 95 380 95 q 674 156 612 95 q 735 340 735 217 l 735 1004 l 861 1004 l 861 894 q 912 907 894 896 q 940 945 931 917 q 952 1026 949 972 l 1053 1026 z "},"Ứ":{"ha":1139,"x_min":130,"x_max":1053,"o":"m 333 1105 l 313 1169 l 651 1303 l 683 1208 l 333 1105 m 1053 1026 q 1033 900 1052 948 q 972 831 1014 853 q 861 813 931 810 l 861 345 q 772 77 861 168 q 495 -14 683 -14 q 217 80 305 -14 q 130 359 130 173 l 130 1004 l 259 1004 l 259 340 q 319 157 259 218 q 495 95 380 95 q 674 156 612 95 q 735 340 735 217 l 735 1004 l 861 1004 l 861 894 q 912 907 894 896 q 940 945 931 917 q 952 1026 949 972 l 1053 1026 z "},"Ự":{"ha":1139,"x_min":130,"x_max":1053,"o":"m 1053 1026 q 1033 900 1052 948 q 972 831 1014 853 q 861 813 931 810 l 861 345 q 772 77 861 168 q 495 -14 683 -14 q 217 80 305 -14 q 130 359 130 173 l 130 1004 l 259 1004 l 259 340 q 319 157 259 218 q 495 95 380 95 q 674 156 612 95 q 735 340 735 217 l 735 1004 l 861 1004 l 861 894 q 912 907 894 896 q 940 945 931 917 q 952 1026 949 972 l 1053 1026 m 426 -120 l 560 -120 l 560 -250 l 426 -250 l 426 -120 z "},"Ừ":{"ha":1139,"x_min":130,"x_max":1053,"o":"m 644 1105 l 295 1208 l 327 1303 l 665 1169 l 644 1105 m 1053 1026 q 1033 900 1052 948 q 972 831 1014 853 q 861 813 931 810 l 861 345 q 772 77 861 168 q 495 -14 683 -14 q 217 80 305 -14 q 130 359 130 173 l 130 1004 l 259 1004 l 259 340 q 319 157 259 218 q 495 95 380 95 q 674 156 612 95 q 735 340 735 217 l 735 1004 l 861 1004 l 861 894 q 912 907 894 896 q 940 945 931 917 q 952 1026 949 972 l 1053 1026 z "},"Ử":{"ha":1139,"x_min":130,"x_max":1053,"o":"m 540 1252 q 496 1275 526 1275 q 439 1256 468 1275 l 402 1313 q 500 1344 451 1344 q 557 1331 531 1344 q 600 1292 583 1317 q 622 1224 622 1259 q 600 1158 622 1190 q 538 1101 578 1126 l 500 1159 q 535 1191 523 1173 q 548 1226 548 1208 q 540 1252 548 1239 m 1053 1026 q 1033 900 1052 948 q 972 831 1014 853 q 861 813 931 810 l 861 345 q 772 77 861 168 q 495 -14 683 -14 q 217 80 305 -14 q 130 359 130 173 l 130 1004 l 259 1004 l 259 340 q 319 157 259 218 q 495 95 380 95 q 674 156 612 95 q 735 340 735 217 l 735 1004 l 861 1004 l 861 894 q 912 907 894 896 q 940 945 931 917 q 952 1026 949 972 l 1053 1026 z "},"Ữ":{"ha":1139,"x_min":130,"x_max":1053,"o":"m 412 1206 q 362 1196 381 1206 q 315 1167 342 1187 l 292 1233 q 344 1271 319 1258 q 406 1284 370 1284 q 452 1279 430 1284 q 502 1264 474 1274 q 550 1250 531 1255 q 588 1246 568 1246 q 637 1256 616 1246 q 684 1284 658 1265 l 706 1209 q 588 1169 652 1169 q 541 1174 562 1169 q 492 1189 519 1179 q 449 1201 466 1197 q 412 1206 432 1206 m 1053 1026 q 1033 900 1052 948 q 972 831 1014 853 q 861 813 931 810 l 861 345 q 772 77 861 168 q 495 -14 683 -14 q 217 80 305 -14 q 130 359 130 173 l 130 1004 l 259 1004 l 259 340 q 319 157 259 218 q 495 95 380 95 q 674 156 612 95 q 735 340 735 217 l 735 1004 l 861 1004 l 861 894 q 912 907 894 896 q 940 945 931 917 q 952 1026 949 972 l 1053 1026 z "},"Ű":{"ha":984,"x_min":130,"x_max":861,"o":"m 861 345 q 772 77 861 168 q 495 -14 683 -14 q 217 80 305 -14 q 130 359 130 173 l 130 1004 l 259 1004 l 259 340 q 319 157 259 218 q 495 95 380 95 q 674 156 612 95 q 735 340 735 217 l 735 1004 l 861 1004 l 861 345 m 781 1229 l 571 1063 l 529 1115 l 716 1306 l 781 1229 m 555 1229 l 347 1064 l 303 1115 l 492 1306 l 555 1229 z "},"Ȗ":{"ha":984,"x_min":130,"x_max":861,"o":"m 861 345 q 772 77 861 168 q 495 -14 683 -14 q 217 80 305 -14 q 130 359 130 173 l 130 1004 l 259 1004 l 259 340 q 319 157 259 218 q 495 95 380 95 q 674 156 612 95 q 735 340 735 217 l 735 1004 l 861 1004 l 861 345 m 611 1197 q 494 1269 567 1269 q 424 1249 449 1269 q 379 1197 399 1228 l 288 1197 q 326 1273 299 1240 q 397 1326 354 1307 q 494 1346 440 1346 q 592 1325 548 1346 q 664 1270 635 1304 q 705 1197 693 1237 l 611 1197 z "},"Ū":{"ha":984,"x_min":130,"x_max":861,"o":"m 861 345 q 772 77 861 168 q 495 -14 683 -14 q 217 80 305 -14 q 130 359 130 173 l 130 1004 l 259 1004 l 259 340 q 319 157 259 218 q 495 95 380 95 q 674 156 612 95 q 735 340 735 217 l 735 1004 l 861 1004 l 861 345 m 702 1184 l 292 1184 l 292 1272 l 702 1272 l 702 1184 z "},"Ų":{"ha":984,"x_min":130,"x_max":861,"o":"m 861 1004 l 861 345 q 794 103 861 192 q 588 -8 728 14 q 504 -58 529 -34 q 478 -112 478 -82 q 494 -151 478 -138 q 543 -164 509 -164 q 599 -156 573 -164 q 642 -138 625 -149 l 642 -204 q 588 -224 624 -215 q 515 -233 553 -233 q 413 -203 448 -233 q 378 -123 378 -174 q 396 -62 378 -89 q 458 -13 415 -35 q 209 89 288 -4 q 130 359 130 182 l 130 1004 l 259 1004 l 259 340 q 319 157 259 218 q 495 95 380 95 q 674 156 612 95 q 735 340 735 217 l 735 1004 l 861 1004 z "},"Ů":{"ha":984,"x_min":130,"x_max":861,"o":"m 861 345 q 772 77 861 168 q 495 -14 683 -14 q 217 80 305 -14 q 130 359 130 173 l 130 1004 l 259 1004 l 259 340 q 319 157 259 218 q 495 95 380 95 q 674 156 612 95 q 735 340 735 217 l 735 1004 l 861 1004 l 861 345 m 640 1230 q 621 1158 640 1190 q 569 1106 602 1125 q 497 1088 537 1088 q 425 1107 458 1088 q 374 1159 392 1126 q 355 1233 355 1192 q 374 1302 355 1270 q 426 1352 393 1333 q 497 1371 458 1371 q 569 1352 537 1371 q 621 1301 602 1333 q 640 1230 640 1269 m 570 1230 q 549 1283 570 1263 q 496 1304 528 1304 q 443 1283 465 1304 q 421 1230 421 1262 q 443 1176 421 1199 q 496 1153 466 1153 q 548 1176 526 1153 q 570 1230 570 1199 z "},"Ũ":{"ha":984,"x_min":130,"x_max":861,"o":"m 861 345 q 772 77 861 168 q 495 -14 683 -14 q 217 80 305 -14 q 130 359 130 173 l 130 1004 l 259 1004 l 259 340 q 319 157 259 218 q 495 95 380 95 q 674 156 612 95 q 735 340 735 217 l 735 1004 l 861 1004 l 861 345 m 706 1209 q 588 1169 652 1169 q 541 1174 562 1169 q 492 1189 519 1179 q 449 1201 466 1197 q 412 1206 432 1206 q 362 1196 381 1206 q 315 1167 342 1187 l 292 1233 q 344 1271 319 1258 q 406 1284 370 1284 q 452 1279 430 1284 q 502 1264 474 1274 q 550 1250 531 1255 q 588 1246 568 1246 q 637 1256 616 1246 q 684 1284 658 1265 l 706 1209 z "},"V":{"ha":894,"x_min":19,"x_max":876,"o":"m 519 0 l 369 0 l 19 1004 l 142 1004 l 444 142 l 753 1004 l 876 1004 l 519 0 z "},"W":{"ha":1328,"x_min":35,"x_max":1293,"o":"m 1001 0 l 884 0 l 663 785 l 437 0 l 324 0 l 35 1004 l 161 1004 l 385 197 l 614 1004 l 712 1004 l 940 197 l 1168 1004 l 1293 1004 l 1001 0 z "},"Ẃ":{"ha":1328,"x_min":35,"x_max":1293,"o":"m 1001 0 l 884 0 l 663 785 l 437 0 l 324 0 l 35 1004 l 161 1004 l 385 197 l 614 1004 l 712 1004 l 940 197 l 1168 1004 l 1293 1004 l 1001 0 m 849 1208 l 499 1105 l 478 1169 l 817 1303 l 849 1208 z "},"Ŵ":{"ha":1328,"x_min":35,"x_max":1293,"o":"m 1001 0 l 884 0 l 663 785 l 437 0 l 324 0 l 35 1004 l 161 1004 l 385 197 l 614 1004 l 712 1004 l 940 197 l 1168 1004 l 1293 1004 l 1001 0 m 663 1230 l 558 1137 l 445 1137 l 619 1295 l 709 1295 l 879 1137 l 760 1137 l 663 1230 z "},"Ẅ":{"ha":1328,"x_min":35,"x_max":1293,"o":"m 1001 0 l 884 0 l 663 785 l 437 0 l 324 0 l 35 1004 l 161 1004 l 385 197 l 614 1004 l 712 1004 l 940 197 l 1168 1004 l 1293 1004 l 1001 0 m 478 1283 l 611 1283 l 611 1153 l 478 1153 l 478 1283 m 712 1283 l 844 1283 l 844 1153 l 712 1153 l 712 1283 z "},"Ẁ":{"ha":1328,"x_min":35,"x_max":1293,"o":"m 1001 0 l 884 0 l 663 785 l 437 0 l 324 0 l 35 1004 l 161 1004 l 385 197 l 614 1004 l 712 1004 l 940 197 l 1168 1004 l 1293 1004 l 1001 0 m 831 1169 l 810 1105 l 461 1208 l 493 1303 l 831 1169 z "},"X":{"ha":909,"x_min":35,"x_max":874,"o":"m 717 0 l 446 414 l 175 0 l 35 0 l 376 513 l 48 1004 l 206 1004 l 455 620 l 706 1004 l 844 1004 l 524 525 l 874 0 l 717 0 z "},"Y":{"ha":829,"x_min":12,"x_max":817,"o":"m 478 428 l 478 0 l 353 0 l 353 428 l 12 1004 l 148 1004 l 417 540 l 681 1004 l 817 1004 l 478 428 z "},"Ý":{"ha":829,"x_min":12,"x_max":817,"o":"m 478 428 l 478 0 l 353 0 l 353 428 l 12 1004 l 148 1004 l 417 540 l 681 1004 l 817 1004 l 478 428 m 612 1210 l 263 1107 l 242 1171 l 580 1306 l 612 1210 z "},"Ŷ":{"ha":829,"x_min":12,"x_max":817,"o":"m 478 428 l 478 0 l 353 0 l 353 428 l 12 1004 l 148 1004 l 417 540 l 681 1004 l 817 1004 l 478 428 m 426 1232 l 321 1139 l 208 1139 l 383 1297 l 472 1297 l 642 1139 l 523 1139 l 426 1232 z "},"Ÿ":{"ha":829,"x_min":12,"x_max":817,"o":"m 478 428 l 478 0 l 353 0 l 353 428 l 12 1004 l 148 1004 l 417 540 l 681 1004 l 817 1004 l 478 428 m 241 1285 l 374 1285 l 374 1155 l 241 1155 l 241 1285 m 474 1285 l 607 1285 l 607 1155 l 474 1155 l 474 1285 z "},"Ỵ":{"ha":829,"x_min":12,"x_max":817,"o":"m 478 428 l 478 0 l 353 0 l 353 428 l 12 1004 l 148 1004 l 417 540 l 681 1004 l 817 1004 l 478 428 z "},"Ỳ":{"ha":829,"x_min":12,"x_max":817,"o":"m 478 428 l 478 0 l 353 0 l 353 428 l 12 1004 l 148 1004 l 417 540 l 681 1004 l 817 1004 l 478 428 m 594 1171 l 573 1107 l 224 1210 l 256 1306 l 594 1171 z "},"Ỷ":{"ha":829,"x_min":12,"x_max":817,"o":"m 478 428 l 478 0 l 353 0 l 353 428 l 12 1004 l 148 1004 l 417 540 l 681 1004 l 817 1004 l 478 428 m 368 1258 q 425 1277 397 1277 q 469 1254 455 1277 q 477 1228 477 1241 q 465 1193 477 1210 q 429 1161 452 1175 l 467 1103 q 530 1160 508 1128 q 551 1226 551 1192 q 529 1294 551 1261 q 486 1333 513 1319 q 429 1346 460 1346 q 331 1315 380 1346 l 368 1258 z "},"Ỹ":{"ha":829,"x_min":12,"x_max":817,"o":"m 478 428 l 478 0 l 353 0 l 353 428 l 12 1004 l 148 1004 l 417 540 l 681 1004 l 817 1004 l 478 428 m 635 1211 q 517 1172 581 1172 q 470 1176 491 1172 q 422 1191 449 1181 q 378 1203 395 1199 q 341 1208 361 1208 q 291 1198 310 1208 q 244 1169 272 1189 l 221 1235 q 274 1273 248 1260 q 335 1286 299 1286 q 381 1281 359 1286 q 431 1266 403 1276 q 479 1252 460 1257 q 517 1248 497 1248 q 566 1258 545 1248 q 613 1286 587 1267 l 635 1211 z "},"Z":{"ha":868,"x_min":72,"x_max":799,"o":"m 72 69 l 624 895 l 94 895 l 94 1004 l 799 1004 l 799 938 l 241 110 l 796 110 l 796 0 l 72 0 l 72 69 z "},"Ź":{"ha":868,"x_min":72,"x_max":799,"o":"m 72 69 l 624 895 l 94 895 l 94 1004 l 799 1004 l 799 938 l 241 110 l 796 110 l 796 0 l 72 0 l 72 69 m 637 1208 l 288 1105 l 267 1169 l 605 1303 l 637 1208 z "},"Ž":{"ha":868,"x_min":72,"x_max":799,"o":"m 72 69 l 624 895 l 94 895 l 94 1004 l 799 1004 l 799 938 l 241 110 l 796 110 l 796 0 l 72 0 l 72 69 m 667 1291 l 497 1132 l 407 1132 l 233 1291 l 346 1291 l 451 1197 l 548 1291 l 667 1291 z "},"Ż":{"ha":868,"x_min":72,"x_max":799,"o":"m 72 69 l 624 895 l 94 895 l 94 1004 l 799 1004 l 799 938 l 241 110 l 796 110 l 796 0 l 72 0 l 72 69 m 384 1258 l 517 1258 l 517 1128 l 384 1128 l 384 1258 z "},"Ẓ":{"ha":868,"x_min":72,"x_max":799,"o":"m 72 69 l 624 895 l 94 895 l 94 1004 l 799 1004 l 799 938 l 241 110 l 796 110 l 796 0 l 72 0 l 72 69 z "},"a":{"ha":758,"x_min":63,"x_max":663,"o":"m 299 -14 q 176 11 229 -14 q 93 83 123 36 q 63 194 63 130 q 100 326 63 274 q 213 405 136 378 q 413 434 290 431 l 542 438 l 542 494 q 498 601 542 563 q 376 640 453 640 q 263 607 311 639 q 202 516 215 576 l 92 516 q 132 627 96 578 q 233 704 169 676 q 382 732 298 732 q 536 704 473 732 q 631 624 599 676 q 663 501 663 572 l 663 0 l 557 0 l 547 131 q 445 19 508 51 q 299 -14 383 -14 m 335 76 q 432 99 383 76 q 511 159 481 122 q 542 235 542 197 l 542 360 l 435 358 q 245 320 306 356 q 184 206 184 285 q 226 111 184 146 q 335 76 267 76 z "},"á":{"ha":758,"x_min":63,"x_max":663,"o":"m 299 -14 q 176 11 229 -14 q 93 83 123 36 q 63 194 63 130 q 100 326 63 274 q 213 405 136 378 q 413 434 290 431 l 542 438 l 542 494 q 498 601 542 563 q 376 640 453 640 q 263 607 311 639 q 202 516 215 576 l 92 516 q 132 627 96 578 q 233 704 169 676 q 382 732 298 732 q 536 704 473 732 q 631 624 599 676 q 663 501 663 572 l 663 0 l 557 0 l 547 131 q 445 19 508 51 q 299 -14 383 -14 m 335 76 q 432 99 383 76 q 511 159 481 122 q 542 235 542 197 l 542 360 l 435 358 q 245 320 306 356 q 184 206 184 285 q 226 111 184 146 q 335 76 267 76 m 569 922 l 219 819 l 199 883 l 537 1017 l 569 922 z "},"ă":{"ha":758,"x_min":63,"x_max":663,"o":"m 299 -14 q 176 11 229 -14 q 93 83 123 36 q 63 194 63 130 q 100 326 63 274 q 213 405 136 378 q 413 434 290 431 l 542 438 l 542 494 q 498 601 542 563 q 376 640 453 640 q 263 607 311 639 q 202 516 215 576 l 92 516 q 132 627 96 578 q 233 704 169 676 q 382 732 298 732 q 536 704 473 732 q 631 624 599 676 q 663 501 663 572 l 663 0 l 557 0 l 547 131 q 445 19 508 51 q 299 -14 383 -14 m 335 76 q 432 99 383 76 q 511 159 481 122 q 542 235 542 197 l 542 360 l 435 358 q 245 320 306 356 q 184 206 184 285 q 226 111 184 146 q 335 76 267 76 m 597 1002 q 556 928 585 963 q 484 874 528 894 q 386 853 440 853 q 251 895 306 853 q 180 1002 197 937 l 272 1002 q 315 950 290 971 q 386 930 341 930 q 503 1002 460 930 l 597 1002 z "},"ắ":{"ha":758,"x_min":63,"x_max":663,"o":"m 299 -14 q 176 11 229 -14 q 93 83 123 36 q 63 194 63 130 q 100 326 63 274 q 213 405 136 378 q 413 434 290 431 l 542 438 l 542 494 q 498 601 542 563 q 376 640 453 640 q 263 607 311 639 q 202 516 215 576 l 92 516 q 132 627 96 578 q 233 704 169 676 q 382 732 298 732 q 536 704 473 732 q 631 624 599 676 q 663 501 663 572 l 663 0 l 557 0 l 547 131 q 445 19 508 51 q 299 -14 383 -14 m 335 76 q 432 99 383 76 q 511 159 481 122 q 542 235 542 197 l 542 360 l 435 358 q 245 320 306 356 q 184 206 184 285 q 226 111 184 146 q 335 76 267 76 z "},"ặ":{"ha":758,"x_min":63,"x_max":663,"o":"m 299 -14 q 176 11 229 -14 q 93 83 123 36 q 63 194 63 130 q 100 326 63 274 q 213 405 136 378 q 413 434 290 431 l 542 438 l 542 494 q 498 601 542 563 q 376 640 453 640 q 263 607 311 639 q 202 516 215 576 l 92 516 q 132 627 96 578 q 233 704 169 676 q 382 732 298 732 q 536 704 473 732 q 631 624 599 676 q 663 501 663 572 l 663 0 l 557 0 l 547 131 q 445 19 508 51 q 299 -14 383 -14 m 335 76 q 432 99 383 76 q 511 159 481 122 q 542 235 542 197 l 542 360 l 435 358 q 245 320 306 356 q 184 206 184 285 q 226 111 184 146 q 335 76 267 76 m 597 1002 q 556 928 585 963 q 484 874 528 894 q 386 853 440 853 q 251 895 306 853 q 180 1002 197 937 l 272 1002 q 315 950 290 971 q 386 930 341 930 q 503 1002 460 930 l 597 1002 z "},"ằ":{"ha":758,"x_min":63,"x_max":663,"o":"m 299 -14 q 176 11 229 -14 q 93 83 123 36 q 63 194 63 130 q 100 326 63 274 q 213 405 136 378 q 413 434 290 431 l 542 438 l 542 494 q 498 601 542 563 q 376 640 453 640 q 263 607 311 639 q 202 516 215 576 l 92 516 q 132 627 96 578 q 233 704 169 676 q 382 732 298 732 q 536 704 473 732 q 631 624 599 676 q 663 501 663 572 l 663 0 l 557 0 l 547 131 q 445 19 508 51 q 299 -14 383 -14 m 335 76 q 432 99 383 76 q 511 159 481 122 q 542 235 542 197 l 542 360 l 435 358 q 245 320 306 356 q 184 206 184 285 q 226 111 184 146 q 335 76 267 76 z "},"ẳ":{"ha":758,"x_min":63,"x_max":663,"o":"m 299 -14 q 176 11 229 -14 q 93 83 123 36 q 63 194 63 130 q 100 326 63 274 q 213 405 136 378 q 413 434 290 431 l 542 438 l 542 494 q 498 601 542 563 q 376 640 453 640 q 263 607 311 639 q 202 516 215 576 l 92 516 q 132 627 96 578 q 233 704 169 676 q 382 732 298 732 q 536 704 473 732 q 631 624 599 676 q 663 501 663 572 l 663 0 l 557 0 l 547 131 q 445 19 508 51 q 299 -14 383 -14 m 335 76 q 432 99 383 76 q 511 159 481 122 q 542 235 542 197 l 542 360 l 435 358 q 245 320 306 356 q 184 206 184 285 q 226 111 184 146 q 335 76 267 76 z "},"ẵ":{"ha":758,"x_min":63,"x_max":663,"o":"m 299 -14 q 176 11 229 -14 q 93 83 123 36 q 63 194 63 130 q 100 326 63 274 q 213 405 136 378 q 413 434 290 431 l 542 438 l 542 494 q 498 601 542 563 q 376 640 453 640 q 263 607 311 639 q 202 516 215 576 l 92 516 q 132 627 96 578 q 233 704 169 676 q 382 732 298 732 q 536 704 473 732 q 631 624 599 676 q 663 501 663 572 l 663 0 l 557 0 l 547 131 q 445 19 508 51 q 299 -14 383 -14 m 335 76 q 432 99 383 76 q 511 159 481 122 q 542 235 542 197 l 542 360 l 435 358 q 245 320 306 356 q 184 206 184 285 q 226 111 184 146 q 335 76 267 76 z "},"â":{"ha":758,"x_min":63,"x_max":663,"o":"m 299 -14 q 176 11 229 -14 q 93 83 123 36 q 63 194 63 130 q 100 326 63 274 q 213 405 136 378 q 413 434 290 431 l 542 438 l 542 494 q 498 601 542 563 q 376 640 453 640 q 263 607 311 639 q 202 516 215 576 l 92 516 q 132 627 96 578 q 233 704 169 676 q 382 732 298 732 q 536 704 473 732 q 631 624 599 676 q 663 501 663 572 l 663 0 l 557 0 l 547 131 q 445 19 508 51 q 299 -14 383 -14 m 335 76 q 432 99 383 76 q 511 159 481 122 q 542 235 542 197 l 542 360 l 435 358 q 245 320 306 356 q 184 206 184 285 q 226 111 184 146 q 335 76 267 76 m 383 944 l 278 851 l 165 851 l 340 1009 l 429 1009 l 599 851 l 480 851 l 383 944 z "},"ấ":{"ha":758,"x_min":63,"x_max":663,"o":"m 299 -14 q 176 11 229 -14 q 93 83 123 36 q 63 194 63 130 q 100 326 63 274 q 213 405 136 378 q 413 434 290 431 l 542 438 l 542 494 q 498 601 542 563 q 376 640 453 640 q 263 607 311 639 q 202 516 215 576 l 92 516 q 132 627 96 578 q 233 704 169 676 q 382 732 298 732 q 536 704 473 732 q 631 624 599 676 q 663 501 663 572 l 663 0 l 557 0 l 547 131 q 445 19 508 51 q 299 -14 383 -14 m 335 76 q 432 99 383 76 q 511 159 481 122 q 542 235 542 197 l 542 360 l 435 358 q 245 320 306 356 q 184 206 184 285 q 226 111 184 146 q 335 76 267 76 z "},"ậ":{"ha":758,"x_min":63,"x_max":663,"o":"m 299 -14 q 176 11 229 -14 q 93 83 123 36 q 63 194 63 130 q 100 326 63 274 q 213 405 136 378 q 413 434 290 431 l 542 438 l 542 494 q 498 601 542 563 q 376 640 453 640 q 263 607 311 639 q 202 516 215 576 l 92 516 q 132 627 96 578 q 233 704 169 676 q 382 732 298 732 q 536 704 473 732 q 631 624 599 676 q 663 501 663 572 l 663 0 l 557 0 l 547 131 q 445 19 508 51 q 299 -14 383 -14 m 335 76 q 432 99 383 76 q 511 159 481 122 q 542 235 542 197 l 542 360 l 435 358 q 245 320 306 356 q 184 206 184 285 q 226 111 184 146 q 335 76 267 76 m 383 944 l 278 851 l 165 851 l 340 1009 l 429 1009 l 599 851 l 480 851 l 383 944 z "},"ầ":{"ha":758,"x_min":63,"x_max":663,"o":"m 299 -14 q 176 11 229 -14 q 93 83 123 36 q 63 194 63 130 q 100 326 63 274 q 213 405 136 378 q 413 434 290 431 l 542 438 l 542 494 q 498 601 542 563 q 376 640 453 640 q 263 607 311 639 q 202 516 215 576 l 92 516 q 132 627 96 578 q 233 704 169 676 q 382 732 298 732 q 536 704 473 732 q 631 624 599 676 q 663 501 663 572 l 663 0 l 557 0 l 547 131 q 445 19 508 51 q 299 -14 383 -14 m 335 76 q 432 99 383 76 q 511 159 481 122 q 542 235 542 197 l 542 360 l 435 358 q 245 320 306 356 q 184 206 184 285 q 226 111 184 146 q 335 76 267 76 z "},"ẩ":{"ha":758,"x_min":63,"x_max":663,"o":"m 299 -14 q 176 11 229 -14 q 93 83 123 36 q 63 194 63 130 q 100 326 63 274 q 213 405 136 378 q 413 434 290 431 l 542 438 l 542 494 q 498 601 542 563 q 376 640 453 640 q 263 607 311 639 q 202 516 215 576 l 92 516 q 132 627 96 578 q 233 704 169 676 q 382 732 298 732 q 536 704 473 732 q 631 624 599 676 q 663 501 663 572 l 663 0 l 557 0 l 547 131 q 445 19 508 51 q 299 -14 383 -14 m 335 76 q 432 99 383 76 q 511 159 481 122 q 542 235 542 197 l 542 360 l 435 358 q 245 320 306 356 q 184 206 184 285 q 226 111 184 146 q 335 76 267 76 z "},"ẫ":{"ha":758,"x_min":63,"x_max":663,"o":"m 299 -14 q 176 11 229 -14 q 93 83 123 36 q 63 194 63 130 q 100 326 63 274 q 213 405 136 378 q 413 434 290 431 l 542 438 l 542 494 q 498 601 542 563 q 376 640 453 640 q 263 607 311 639 q 202 516 215 576 l 92 516 q 132 627 96 578 q 233 704 169 676 q 382 732 298 732 q 536 704 473 732 q 631 624 599 676 q 663 501 663 572 l 663 0 l 557 0 l 547 131 q 445 19 508 51 q 299 -14 383 -14 m 335 76 q 432 99 383 76 q 511 159 481 122 q 542 235 542 197 l 542 360 l 435 358 q 245 320 306 356 q 184 206 184 285 q 226 111 184 146 q 335 76 267 76 z "},"ȁ":{"ha":758,"x_min":63,"x_max":663,"o":"m 299 -14 q 176 11 229 -14 q 93 83 123 36 q 63 194 63 130 q 100 326 63 274 q 213 405 136 378 q 413 434 290 431 l 542 438 l 542 494 q 498 601 542 563 q 376 640 453 640 q 263 607 311 639 q 202 516 215 576 l 92 516 q 132 627 96 578 q 233 704 169 676 q 382 732 298 732 q 536 704 473 732 q 631 624 599 676 q 663 501 663 572 l 663 0 l 557 0 l 547 131 q 445 19 508 51 q 299 -14 383 -14 m 335 76 q 432 99 383 76 q 511 159 481 122 q 542 235 542 197 l 542 360 l 435 358 q 245 320 306 356 q 184 206 184 285 q 226 111 184 146 q 335 76 267 76 m 340 829 l 299 777 l 89 943 l 153 1020 l 340 829 m 565 829 l 523 777 l 313 943 l 378 1020 l 565 829 z "},"ä":{"ha":758,"x_min":63,"x_max":663,"o":"m 299 -14 q 176 11 229 -14 q 93 83 123 36 q 63 194 63 130 q 100 326 63 274 q 213 405 136 378 q 413 434 290 431 l 542 438 l 542 494 q 498 601 542 563 q 376 640 453 640 q 263 607 311 639 q 202 516 215 576 l 92 516 q 132 627 96 578 q 233 704 169 676 q 382 732 298 732 q 536 704 473 732 q 631 624 599 676 q 663 501 663 572 l 663 0 l 557 0 l 547 131 q 445 19 508 51 q 299 -14 383 -14 m 335 76 q 432 99 383 76 q 511 159 481 122 q 542 235 542 197 l 542 360 l 435 358 q 245 320 306 356 q 184 206 184 285 q 226 111 184 146 q 335 76 267 76 m 199 997 l 331 997 l 331 867 l 199 867 l 199 997 m 432 997 l 565 997 l 565 867 l 432 867 l 432 997 z "},"ạ":{"ha":758,"x_min":63,"x_max":663,"o":"m 299 -14 q 176 11 229 -14 q 93 83 123 36 q 63 194 63 130 q 100 326 63 274 q 213 405 136 378 q 413 434 290 431 l 542 438 l 542 494 q 498 601 542 563 q 376 640 453 640 q 263 607 311 639 q 202 516 215 576 l 92 516 q 132 627 96 578 q 233 704 169 676 q 382 732 298 732 q 536 704 473 732 q 631 624 599 676 q 663 501 663 572 l 663 0 l 557 0 l 547 131 q 445 19 508 51 q 299 -14 383 -14 m 335 76 q 432 99 383 76 q 511 159 481 122 q 542 235 542 197 l 542 360 l 435 358 q 245 320 306 356 q 184 206 184 285 q 226 111 184 146 q 335 76 267 76 z "},"à":{"ha":758,"x_min":63,"x_max":663,"o":"m 299 -14 q 176 11 229 -14 q 93 83 123 36 q 63 194 63 130 q 100 326 63 274 q 213 405 136 378 q 413 434 290 431 l 542 438 l 542 494 q 498 601 542 563 q 376 640 453 640 q 263 607 311 639 q 202 516 215 576 l 92 516 q 132 627 96 578 q 233 704 169 676 q 382 732 298 732 q 536 704 473 732 q 631 624 599 676 q 663 501 663 572 l 663 0 l 557 0 l 547 131 q 445 19 508 51 q 299 -14 383 -14 m 335 76 q 432 99 383 76 q 511 159 481 122 q 542 235 542 197 l 542 360 l 435 358 q 245 320 306 356 q 184 206 184 285 q 226 111 184 146 q 335 76 267 76 m 551 883 l 530 819 l 181 922 l 213 1017 l 551 883 z "},"ả":{"ha":758,"x_min":63,"x_max":663,"o":"m 299 -14 q 176 11 229 -14 q 93 83 123 36 q 63 194 63 130 q 100 326 63 274 q 213 405 136 378 q 413 434 290 431 l 542 438 l 542 494 q 498 601 542 563 q 376 640 453 640 q 263 607 311 639 q 202 516 215 576 l 92 516 q 132 627 96 578 q 233 704 169 676 q 382 732 298 732 q 536 704 473 732 q 631 624 599 676 q 663 501 663 572 l 663 0 l 557 0 l 547 131 q 445 19 508 51 q 299 -14 383 -14 m 335 76 q 432 99 383 76 q 511 159 481 122 q 542 235 542 197 l 542 360 l 435 358 q 245 320 306 356 q 184 206 184 285 q 226 111 184 146 q 335 76 267 76 m 325 969 q 382 989 354 989 q 426 966 412 989 q 434 940 434 953 q 422 905 434 922 q 386 873 409 887 l 424 815 q 486 872 465 840 q 508 938 508 903 q 486 1006 508 973 q 443 1044 469 1031 q 386 1058 417 1058 q 288 1026 337 1058 l 325 969 z "},"ȃ":{"ha":758,"x_min":63,"x_max":663,"o":"m 299 -14 q 176 11 229 -14 q 93 83 123 36 q 63 194 63 130 q 100 326 63 274 q 213 405 136 378 q 413 434 290 431 l 542 438 l 542 494 q 498 601 542 563 q 376 640 453 640 q 263 607 311 639 q 202 516 215 576 l 92 516 q 132 627 96 578 q 233 704 169 676 q 382 732 298 732 q 536 704 473 732 q 631 624 599 676 q 663 501 663 572 l 663 0 l 557 0 l 547 131 q 445 19 508 51 q 299 -14 383 -14 m 335 76 q 432 99 383 76 q 511 159 481 122 q 542 235 542 197 l 542 360 l 435 358 q 245 320 306 356 q 184 206 184 285 q 226 111 184 146 q 335 76 267 76 m 497 911 q 380 983 453 983 q 310 963 335 983 q 265 911 285 942 l 174 911 q 213 987 185 953 q 283 1040 240 1021 q 380 1060 326 1060 q 478 1039 434 1060 q 550 984 522 1018 q 591 911 579 951 l 497 911 z "},"ā":{"ha":758,"x_min":63,"x_max":663,"o":"m 299 -14 q 176 11 229 -14 q 93 83 123 36 q 63 194 63 130 q 100 326 63 274 q 213 405 136 378 q 413 434 290 431 l 542 438 l 542 494 q 498 601 542 563 q 376 640 453 640 q 263 607 311 639 q 202 516 215 576 l 92 516 q 132 627 96 578 q 233 704 169 676 q 382 732 298 732 q 536 704 473 732 q 631 624 599 676 q 663 501 663 572 l 663 0 l 557 0 l 547 131 q 445 19 508 51 q 299 -14 383 -14 m 335 76 q 432 99 383 76 q 511 159 481 122 q 542 235 542 197 l 542 360 l 435 358 q 245 320 306 356 q 184 206 184 285 q 226 111 184 146 q 335 76 267 76 m 588 898 l 178 898 l 178 986 l 588 986 l 588 898 z "},"ą":{"ha":758,"x_min":63,"x_max":691,"o":"m 592 -160 q 648 -152 622 -160 q 691 -134 674 -144 l 691 -200 q 637 -220 672 -211 q 563 -228 601 -228 q 461 -199 497 -228 q 426 -119 426 -170 q 456 -45 426 -76 q 556 11 485 -13 l 547 131 q 445 19 508 51 q 299 -14 383 -14 q 176 11 229 -14 q 93 83 123 36 q 63 194 63 130 q 100 326 63 274 q 213 405 136 378 q 413 434 290 431 l 542 438 l 542 494 q 498 601 542 563 q 376 640 453 640 q 263 607 311 639 q 202 516 215 576 l 92 516 q 132 627 96 578 q 233 704 169 676 q 382 732 298 732 q 536 704 473 732 q 631 624 599 676 q 663 501 663 572 l 663 0 l 644 0 q 554 -52 581 -28 q 527 -108 527 -77 q 542 -147 527 -134 q 592 -160 558 -160 m 542 360 l 435 358 q 245 320 306 356 q 184 206 184 285 q 226 111 184 146 q 335 76 267 76 q 432 99 383 76 q 511 159 481 122 q 542 235 542 197 l 542 360 z "},"å":{"ha":758,"x_min":63,"x_max":663,"o":"m 299 -14 q 176 11 229 -14 q 93 83 123 36 q 63 194 63 130 q 100 326 63 274 q 213 405 136 378 q 413 434 290 431 l 542 438 l 542 494 q 498 601 542 563 q 376 640 453 640 q 263 607 311 639 q 202 516 215 576 l 92 516 q 132 627 96 578 q 233 704 169 676 q 382 732 298 732 q 536 704 473 732 q 631 624 599 676 q 663 501 663 572 l 663 0 l 557 0 l 547 131 q 445 19 508 51 q 299 -14 383 -14 m 335 76 q 432 99 383 76 q 511 159 481 122 q 542 235 542 197 l 542 360 l 435 358 q 245 320 306 356 q 184 206 184 285 q 226 111 184 146 q 335 76 267 76 m 526 944 q 507 872 526 904 q 456 820 488 839 q 383 801 423 801 q 311 821 344 801 q 260 873 278 840 q 241 947 241 906 q 260 1016 241 984 q 312 1066 279 1047 q 383 1085 344 1085 q 456 1066 423 1085 q 507 1015 488 1047 q 526 944 526 983 m 456 944 q 435 997 456 976 q 382 1018 414 1018 q 329 997 351 1018 q 307 944 307 976 q 330 890 307 913 q 382 867 352 867 q 434 890 413 867 q 456 944 456 913 z "},"ǻ":{"ha":758,"x_min":63,"x_max":663,"o":"m 490 719 q 619 641 575 698 q 663 501 663 584 l 663 0 l 557 0 l 547 131 q 445 19 508 51 q 299 -14 383 -14 q 176 11 229 -14 q 93 83 123 36 q 63 194 63 130 q 100 326 63 274 q 213 405 136 378 q 413 434 290 431 l 542 438 l 542 494 q 498 601 542 563 q 376 640 453 640 q 263 607 311 639 q 202 516 215 576 l 92 516 q 148 646 97 591 q 286 722 199 701 q 259 765 269 740 q 249 818 249 790 q 282 904 249 867 q 363 949 314 940 l 384 1038 l 479 1038 l 439 942 q 504 893 479 928 q 528 815 528 859 q 490 719 528 759 m 388 889 q 334 867 357 889 q 312 814 312 846 q 323 777 312 794 q 351 749 333 760 q 388 738 368 738 q 440 761 418 738 q 462 814 462 784 q 440 868 462 847 q 388 889 419 889 m 542 360 l 435 358 q 245 320 306 356 q 184 206 184 285 q 226 111 184 146 q 335 76 267 76 q 432 99 383 76 q 511 159 481 122 q 542 235 542 197 l 542 360 z "},"ã":{"ha":758,"x_min":63,"x_max":663,"o":"m 299 -14 q 176 11 229 -14 q 93 83 123 36 q 63 194 63 130 q 100 326 63 274 q 213 405 136 378 q 413 434 290 431 l 542 438 l 542 494 q 498 601 542 563 q 376 640 453 640 q 263 607 311 639 q 202 516 215 576 l 92 516 q 132 627 96 578 q 233 704 169 676 q 382 732 298 732 q 536 704 473 732 q 631 624 599 676 q 663 501 663 572 l 663 0 l 557 0 l 547 131 q 445 19 508 51 q 299 -14 383 -14 m 335 76 q 432 99 383 76 q 511 159 481 122 q 542 235 542 197 l 542 360 l 435 358 q 245 320 306 356 q 184 206 184 285 q 226 111 184 146 q 335 76 267 76 m 592 923 q 474 883 538 883 q 427 888 448 883 q 378 903 406 893 q 335 915 352 911 q 298 919 318 919 q 248 910 267 919 q 201 881 228 901 l 178 947 q 231 985 205 972 q 292 998 256 998 q 338 993 316 998 q 388 978 360 988 q 436 964 417 969 q 474 960 454 960 q 523 969 502 960 q 570 998 544 979 l 592 923 z "},"æ":{"ha":1272,"x_min":63,"x_max":1211,"o":"m 667 332 q 697 209 667 268 q 780 115 728 151 q 894 79 833 79 q 988 95 948 79 q 1056 137 1028 112 q 1113 199 1083 162 l 1195 157 q 1066 30 1146 73 q 881 -14 987 -14 q 716 27 781 -14 q 603 130 651 69 q 598 133 600 133 q 594 130 596 133 q 518 58 556 88 q 423 7 479 27 q 291 -14 366 -14 q 168 11 219 -14 q 90 81 117 35 q 63 188 63 126 q 150 353 63 292 q 408 427 237 415 l 545 438 l 545 492 q 502 603 545 563 q 379 644 460 644 q 274 614 323 644 q 186 526 224 585 l 82 560 q 388 732 172 732 q 544 700 485 731 q 631 605 604 668 q 736 700 672 667 q 882 732 800 732 q 1054 685 979 732 q 1170 548 1128 638 q 1211 333 1211 458 l 667 332 m 883 644 q 775 616 824 644 q 698 535 726 588 q 669 413 669 483 l 1087 412 q 1061 526 1087 472 q 989 612 1035 579 q 883 644 943 644 m 431 351 q 251 303 314 342 q 188 195 188 263 q 225 107 188 140 q 327 74 262 74 q 435 95 385 74 q 515 153 485 117 q 545 233 545 190 l 545 359 l 431 351 z "},"ǽ":{"ha":1272,"x_min":63,"x_max":1211,"o":"m 667 332 q 697 209 667 268 q 780 115 728 151 q 894 79 833 79 q 988 95 948 79 q 1056 137 1028 112 q 1113 199 1083 162 l 1195 157 q 1066 30 1146 73 q 881 -14 987 -14 q 716 27 781 -14 q 603 130 651 69 q 598 133 600 133 q 594 130 596 133 q 518 58 556 88 q 423 7 479 27 q 291 -14 366 -14 q 168 11 219 -14 q 90 81 117 35 q 63 188 63 126 q 150 353 63 292 q 408 427 237 415 l 545 438 l 545 492 q 502 603 545 563 q 379 644 460 644 q 274 614 323 644 q 186 526 224 585 l 82 560 q 388 732 172 732 q 544 700 485 731 q 631 605 604 668 q 736 700 672 667 q 882 732 800 732 q 1054 685 979 732 q 1170 548 1128 638 q 1211 333 1211 458 l 667 332 m 883 644 q 775 616 824 644 q 698 535 726 588 q 669 413 669 483 l 1087 412 q 1061 526 1087 472 q 989 612 1035 579 q 883 644 943 644 m 431 351 q 251 303 314 342 q 188 195 188 263 q 225 107 188 140 q 327 74 262 74 q 435 95 385 74 q 515 153 485 117 q 545 233 545 190 l 545 359 l 431 351 m 812 922 l 463 819 l 442 883 l 780 1017 l 812 922 z "},"b":{"ha":815,"x_min":107,"x_max":754,"o":"m 455 -14 q 293 32 351 -14 q 213 132 236 78 l 201 0 l 107 0 l 107 1032 l 231 1032 l 231 592 q 315 689 260 647 q 465 732 369 732 q 625 684 560 732 q 722 553 690 637 q 754 362 754 469 q 720 161 754 246 q 619 32 686 77 q 455 -14 551 -14 m 431 82 q 574 151 522 82 q 626 363 626 220 q 575 565 626 496 q 429 635 525 635 q 278 572 320 635 q 231 437 236 510 l 231 286 q 258 183 233 230 q 327 109 283 136 q 431 82 372 82 z "},"c":{"ha":735,"x_min":60,"x_max":674,"o":"m 388 732 q 524 703 463 732 q 624 621 585 675 q 674 494 664 567 l 564 492 q 502 595 547 558 q 394 631 457 631 q 280 598 328 631 q 206 503 232 565 q 180 358 180 441 q 206 212 180 274 q 281 115 232 149 q 394 81 329 81 q 505 119 459 81 q 565 219 551 158 l 674 219 q 623 92 663 145 q 522 13 583 40 q 388 -14 461 -14 q 216 33 290 -14 q 101 163 142 79 q 60 356 60 247 q 101 551 60 465 q 216 684 142 637 q 388 732 290 732 z "},"ć":{"ha":735,"x_min":60,"x_max":674,"o":"m 388 732 q 524 703 463 732 q 624 621 585 675 q 674 494 664 567 l 564 492 q 502 595 547 558 q 394 631 457 631 q 280 598 328 631 q 206 503 232 565 q 180 358 180 441 q 206 212 180 274 q 281 115 232 149 q 394 81 329 81 q 505 119 459 81 q 565 219 551 158 l 674 219 q 623 92 663 145 q 522 13 583 40 q 388 -14 461 -14 q 216 33 290 -14 q 101 163 142 79 q 60 356 60 247 q 101 551 60 465 q 216 684 142 637 q 388 732 290 732 m 573 922 l 224 819 l 203 883 l 541 1017 l 573 922 z "},"č":{"ha":735,"x_min":60,"x_max":674,"o":"m 388 732 q 524 703 463 732 q 624 621 585 675 q 674 494 664 567 l 564 492 q 502 595 547 558 q 394 631 457 631 q 280 598 328 631 q 206 503 232 565 q 180 358 180 441 q 206 212 180 274 q 281 115 232 149 q 394 81 329 81 q 505 119 459 81 q 565 219 551 158 l 674 219 q 623 92 663 145 q 522 13 583 40 q 388 -14 461 -14 q 216 33 290 -14 q 101 163 142 79 q 60 356 60 247 q 101 551 60 465 q 216 684 142 637 q 388 732 290 732 m 603 1005 l 433 846 l 343 846 l 169 1005 l 282 1005 l 387 911 l 484 1005 l 603 1005 z "},"ç":{"ha":735,"x_min":60,"x_max":674,"o":"m 394 81 q 505 119 459 81 q 565 219 551 158 l 674 219 q 627 100 663 150 q 538 21 592 49 q 418 -12 484 -7 l 393 -77 q 487 -110 458 -81 q 517 -178 517 -139 q 474 -257 517 -228 q 367 -285 431 -285 q 237 -251 290 -285 l 258 -198 q 352 -231 300 -231 q 408 -217 390 -231 q 427 -179 427 -204 q 401 -134 427 -149 q 317 -118 375 -119 q 308 -116 310 -118 q 308 -109 306 -114 l 351 -12 q 198 45 263 -3 q 96 173 132 93 q 60 356 60 253 q 101 551 60 465 q 216 684 142 637 q 388 732 290 732 q 524 703 463 732 q 624 621 585 675 q 674 494 664 567 l 564 492 q 502 595 547 558 q 394 631 457 631 q 280 598 328 631 q 206 503 232 565 q 180 358 180 441 q 206 212 180 274 q 281 115 232 149 q 394 81 329 81 z "},"ĉ":{"ha":735,"x_min":60,"x_max":674,"o":"m 388 732 q 524 703 463 732 q 624 621 585 675 q 674 494 664 567 l 564 492 q 502 595 547 558 q 394 631 457 631 q 280 598 328 631 q 206 503 232 565 q 180 358 180 441 q 206 212 180 274 q 281 115 232 149 q 394 81 329 81 q 505 119 459 81 q 565 219 551 158 l 674 219 q 623 92 663 145 q 522 13 583 40 q 388 -14 461 -14 q 216 33 290 -14 q 101 163 142 79 q 60 356 60 247 q 101 551 60 465 q 216 684 142 637 q 388 732 290 732 m 387 944 l 282 851 l 169 851 l 344 1009 l 433 1009 l 603 851 l 484 851 l 387 944 z "},"ċ":{"ha":735,"x_min":60,"x_max":674,"o":"m 388 732 q 524 703 463 732 q 624 621 585 675 q 674 494 664 567 l 564 492 q 502 595 547 558 q 394 631 457 631 q 280 598 328 631 q 206 503 232 565 q 180 358 180 441 q 206 212 180 274 q 281 115 232 149 q 394 81 329 81 q 505 119 459 81 q 565 219 551 158 l 674 219 q 623 92 663 145 q 522 13 583 40 q 388 -14 461 -14 q 216 33 290 -14 q 101 163 142 79 q 60 356 60 247 q 101 551 60 465 q 216 684 142 637 q 388 732 290 732 m 320 972 l 453 972 l 453 842 l 320 842 l 320 972 z "},"d":{"ha":815,"x_min":60,"x_max":708,"o":"m 360 -14 q 195 32 263 -14 q 94 161 128 77 q 60 362 60 246 q 92 553 60 469 q 189 684 124 637 q 350 732 254 732 q 461 712 413 732 q 539 664 510 692 q 583 608 569 635 l 583 1032 l 708 1032 l 708 0 l 613 0 l 600 147 q 525 36 580 86 q 360 -14 469 -14 m 382 82 q 486 108 440 82 q 557 178 531 134 q 583 275 582 223 l 583 446 q 562 526 581 483 q 499 602 543 569 q 383 635 454 635 q 236 565 288 635 q 185 363 185 496 q 238 151 185 221 q 382 82 291 82 z "},"ð":{"ha":811,"x_min":60,"x_max":751,"o":"m 751 358 q 708 164 751 248 q 588 33 666 79 q 403 -14 509 -14 q 225 32 303 -14 q 104 159 147 78 q 60 342 60 240 q 104 528 60 446 q 224 658 147 611 q 397 704 301 704 q 487 689 447 704 q 556 644 527 673 q 483 755 528 703 q 372 852 438 806 l 163 734 l 130 787 l 314 888 q 158 960 253 923 l 238 1019 q 411 944 324 990 l 551 1022 l 580 967 l 470 906 q 682 668 614 807 q 751 358 751 529 m 408 77 q 520 111 471 77 q 596 206 569 145 q 623 345 623 267 q 595 484 623 423 q 519 580 568 546 q 406 615 469 615 q 293 580 343 615 q 216 484 244 546 q 188 345 188 423 q 216 206 188 267 q 294 111 244 145 q 408 77 344 77 z "},"ď":{"ha":964,"x_min":60,"x_max":906,"o":"m 360 -14 q 195 32 263 -14 q 94 161 128 77 q 60 362 60 246 q 92 553 60 469 q 189 684 124 637 q 350 732 254 732 q 461 712 413 732 q 539 664 510 692 q 583 608 569 635 l 583 1032 l 708 1032 l 708 0 l 613 0 l 600 147 q 525 36 580 86 q 360 -14 469 -14 m 382 82 q 486 108 440 82 q 557 178 531 134 q 583 275 582 223 l 583 446 q 562 526 581 483 q 499 602 543 569 q 383 635 454 635 q 236 565 288 635 q 185 363 185 496 q 238 151 185 221 q 382 82 291 82 m 839 864 l 802 871 l 802 1005 l 906 1005 l 906 865 l 852 738 l 787 738 l 839 864 z "},"đ":{"ha":878,"x_min":60,"x_max":814,"o":"m 814 828 l 708 828 l 708 0 l 613 0 l 600 147 q 525 36 580 86 q 360 -14 469 -14 q 195 32 263 -14 q 94 161 128 77 q 60 362 60 246 q 92 553 60 469 q 189 684 124 637 q 350 732 254 732 q 461 712 413 732 q 539 664 510 692 q 583 608 569 635 l 583 828 l 387 828 l 387 907 l 583 907 l 583 1032 l 708 1032 l 708 907 l 814 907 l 814 828 m 583 446 q 562 526 581 483 q 499 602 543 569 q 383 635 454 635 q 236 565 288 635 q 185 363 185 496 q 238 151 185 221 q 382 82 291 82 q 486 108 440 82 q 557 178 531 134 q 583 275 582 223 l 583 446 z "},"ḍ":{"ha":815,"x_min":60,"x_max":708,"o":"m 360 -14 q 195 32 263 -14 q 94 161 128 77 q 60 362 60 246 q 92 553 60 469 q 189 684 124 637 q 350 732 254 732 q 461 712 413 732 q 539 664 510 692 q 583 608 569 635 l 583 1032 l 708 1032 l 708 0 l 613 0 l 600 147 q 525 36 580 86 q 360 -14 469 -14 m 382 82 q 486 108 440 82 q 557 178 531 134 q 583 275 582 223 l 583 446 q 562 526 581 483 q 499 602 543 569 q 383 635 454 635 q 236 565 288 635 q 185 363 185 496 q 238 151 185 221 q 382 82 291 82 z "},"e":{"ha":760,"x_min":60,"x_max":699,"o":"m 186 329 q 209 203 185 259 q 279 116 232 148 q 394 84 326 84 q 510 116 464 84 q 577 209 556 147 l 694 209 q 634 86 678 136 q 529 11 590 36 q 397 -14 467 -14 q 221 30 297 -14 q 102 157 144 74 q 60 352 60 240 q 99 552 60 466 q 212 685 138 638 q 388 732 285 732 q 556 689 486 732 q 663 566 626 646 q 699 376 699 485 l 699 329 l 186 329 m 580 415 q 558 529 580 479 q 493 608 537 579 q 387 636 450 636 q 276 605 322 636 q 208 522 231 573 q 187 415 186 472 l 580 415 z "},"é":{"ha":760,"x_min":60,"x_max":699,"o":"m 186 329 q 209 203 185 259 q 279 116 232 148 q 394 84 326 84 q 510 116 464 84 q 577 209 556 147 l 694 209 q 634 86 678 136 q 529 11 590 36 q 397 -14 467 -14 q 221 30 297 -14 q 102 157 144 74 q 60 352 60 240 q 99 552 60 466 q 212 685 138 638 q 388 732 285 732 q 556 689 486 732 q 663 566 626 646 q 699 376 699 485 l 699 329 l 186 329 m 580 415 q 558 529 580 479 q 493 608 537 579 q 387 636 450 636 q 276 605 322 636 q 208 522 231 573 q 187 415 186 472 l 580 415 m 574 922 l 224 819 l 203 883 l 542 1017 l 574 922 z "},"ĕ":{"ha":760,"x_min":60,"x_max":699,"o":"m 186 329 q 209 203 185 259 q 279 116 232 148 q 394 84 326 84 q 510 116 464 84 q 577 209 556 147 l 694 209 q 634 86 678 136 q 529 11 590 36 q 397 -14 467 -14 q 221 30 297 -14 q 102 157 144 74 q 60 352 60 240 q 99 552 60 466 q 212 685 138 638 q 388 732 285 732 q 556 689 486 732 q 663 566 626 646 q 699 376 699 485 l 699 329 l 186 329 m 580 415 q 558 529 580 479 q 493 608 537 579 q 387 636 450 636 q 276 605 322 636 q 208 522 231 573 q 187 415 186 472 l 580 415 m 601 1002 q 561 928 590 963 q 489 874 533 894 q 391 853 445 853 q 256 895 310 853 q 185 1002 201 937 l 276 1002 q 320 950 294 971 q 391 930 346 930 q 508 1002 465 930 l 601 1002 z "},"ě":{"ha":767,"x_min":60,"x_max":699,"o":"m 186 329 q 209 203 185 259 q 279 116 232 148 q 394 84 326 84 q 510 116 464 84 q 577 209 556 147 l 694 209 q 634 86 678 136 q 529 11 590 36 q 397 -14 467 -14 q 221 30 297 -14 q 102 157 144 74 q 60 352 60 240 q 99 552 60 466 q 212 685 138 638 q 388 732 285 732 q 556 689 486 732 q 663 566 626 646 q 699 376 699 485 l 699 329 l 186 329 m 580 415 q 558 529 580 479 q 493 608 537 579 q 387 636 450 636 q 276 605 322 636 q 208 522 231 573 q 187 415 186 472 l 580 415 m 606 1005 l 436 846 l 346 846 l 172 1005 l 285 1005 l 390 911 l 487 1005 l 606 1005 z "},"ê":{"ha":760,"x_min":60,"x_max":699,"o":"m 186 329 q 209 203 185 259 q 279 116 232 148 q 394 84 326 84 q 510 116 464 84 q 577 209 556 147 l 694 209 q 634 86 678 136 q 529 11 590 36 q 397 -14 467 -14 q 221 30 297 -14 q 102 157 144 74 q 60 352 60 240 q 99 552 60 466 q 212 685 138 638 q 388 732 285 732 q 556 689 486 732 q 663 566 626 646 q 699 376 699 485 l 699 329 l 186 329 m 580 415 q 558 529 580 479 q 493 608 537 579 q 387 636 450 636 q 276 605 322 636 q 208 522 231 573 q 187 415 186 472 l 580 415 m 388 944 l 283 851 l 170 851 l 344 1009 l 434 1009 l 604 851 l 485 851 l 388 944 z "},"ế":{"ha":760,"x_min":60,"x_max":699,"o":"m 186 329 q 209 203 185 259 q 279 116 232 148 q 394 84 326 84 q 510 116 464 84 q 577 209 556 147 l 694 209 q 634 86 678 136 q 529 11 590 36 q 397 -14 467 -14 q 221 30 297 -14 q 102 157 144 74 q 60 352 60 240 q 99 552 60 466 q 212 685 138 638 q 388 732 285 732 q 556 689 486 732 q 663 566 626 646 q 699 376 699 485 l 699 329 l 186 329 m 580 415 q 558 529 580 479 q 493 608 537 579 q 387 636 450 636 q 276 605 322 636 q 208 522 231 573 q 187 415 186 472 l 580 415 z "},"ệ":{"ha":760,"x_min":60,"x_max":699,"o":"m 186 329 q 209 203 185 259 q 279 116 232 148 q 394 84 326 84 q 510 116 464 84 q 577 209 556 147 l 694 209 q 634 86 678 136 q 529 11 590 36 q 397 -14 467 -14 q 221 30 297 -14 q 102 157 144 74 q 60 352 60 240 q 99 552 60 466 q 212 685 138 638 q 388 732 285 732 q 556 689 486 732 q 663 566 626 646 q 699 376 699 485 l 699 329 l 186 329 m 580 415 q 558 529 580 479 q 493 608 537 579 q 387 636 450 636 q 276 605 322 636 q 208 522 231 573 q 187 415 186 472 l 580 415 m 388 944 l 283 851 l 170 851 l 344 1009 l 434 1009 l 604 851 l 485 851 l 388 944 z "},"ề":{"ha":760,"x_min":60,"x_max":699,"o":"m 186 329 q 209 203 185 259 q 279 116 232 148 q 394 84 326 84 q 510 116 464 84 q 577 209 556 147 l 694 209 q 634 86 678 136 q 529 11 590 36 q 397 -14 467 -14 q 221 30 297 -14 q 102 157 144 74 q 60 352 60 240 q 99 552 60 466 q 212 685 138 638 q 388 732 285 732 q 556 689 486 732 q 663 566 626 646 q 699 376 699 485 l 699 329 l 186 329 m 580 415 q 558 529 580 479 q 493 608 537 579 q 387 636 450 636 q 276 605 322 636 q 208 522 231 573 q 187 415 186 472 l 580 415 z "},"ể":{"ha":760,"x_min":60,"x_max":699,"o":"m 186 329 q 209 203 185 259 q 279 116 232 148 q 394 84 326 84 q 510 116 464 84 q 577 209 556 147 l 694 209 q 634 86 678 136 q 529 11 590 36 q 397 -14 467 -14 q 221 30 297 -14 q 102 157 144 74 q 60 352 60 240 q 99 552 60 466 q 212 685 138 638 q 388 732 285 732 q 556 689 486 732 q 663 566 626 646 q 699 376 699 485 l 699 329 l 186 329 m 580 415 q 558 529 580 479 q 493 608 537 579 q 387 636 450 636 q 276 605 322 636 q 208 522 231 573 q 187 415 186 472 l 580 415 z "},"ễ":{"ha":760,"x_min":60,"x_max":699,"o":"m 186 329 q 209 203 185 259 q 279 116 232 148 q 394 84 326 84 q 510 116 464 84 q 577 209 556 147 l 694 209 q 634 86 678 136 q 529 11 590 36 q 397 -14 467 -14 q 221 30 297 -14 q 102 157 144 74 q 60 352 60 240 q 99 552 60 466 q 212 685 138 638 q 388 732 285 732 q 556 689 486 732 q 663 566 626 646 q 699 376 699 485 l 699 329 l 186 329 m 580 415 q 558 529 580 479 q 493 608 537 579 q 387 636 450 636 q 276 605 322 636 q 208 522 231 573 q 187 415 186 472 l 580 415 z "},"ȅ":{"ha":760,"x_min":60,"x_max":699,"o":"m 186 329 q 209 203 185 259 q 279 116 232 148 q 394 84 326 84 q 510 116 464 84 q 577 209 556 147 l 694 209 q 634 86 678 136 q 529 11 590 36 q 397 -14 467 -14 q 221 30 297 -14 q 102 157 144 74 q 60 352 60 240 q 99 552 60 466 q 212 685 138 638 q 388 732 285 732 q 556 689 486 732 q 663 566 626 646 q 699 376 699 485 l 699 329 l 186 329 m 580 415 q 558 529 580 479 q 493 608 537 579 q 387 636 450 636 q 276 605 322 636 q 208 522 231 573 q 187 415 186 472 l 580 415 m 345 829 l 303 777 l 94 943 l 158 1020 l 345 829 m 570 829 l 528 777 l 318 943 l 383 1020 l 570 829 z "},"ë":{"ha":760,"x_min":60,"x_max":699,"o":"m 186 329 q 209 203 185 259 q 279 116 232 148 q 394 84 326 84 q 510 116 464 84 q 577 209 556 147 l 694 209 q 634 86 678 136 q 529 11 590 36 q 397 -14 467 -14 q 221 30 297 -14 q 102 157 144 74 q 60 352 60 240 q 99 552 60 466 q 212 685 138 638 q 388 732 285 732 q 556 689 486 732 q 663 566 626 646 q 699 376 699 485 l 699 329 l 186 329 m 580 415 q 558 529 580 479 q 493 608 537 579 q 387 636 450 636 q 276 605 322 636 q 208 522 231 573 q 187 415 186 472 l 580 415 m 203 997 l 336 997 l 336 867 l 203 867 l 203 997 m 437 997 l 569 997 l 569 867 l 437 867 l 437 997 z "},"ė":{"ha":760,"x_min":60,"x_max":699,"o":"m 186 329 q 209 203 185 259 q 279 116 232 148 q 394 84 326 84 q 510 116 464 84 q 577 209 556 147 l 694 209 q 634 86 678 136 q 529 11 590 36 q 397 -14 467 -14 q 221 30 297 -14 q 102 157 144 74 q 60 352 60 240 q 99 552 60 466 q 212 685 138 638 q 388 732 285 732 q 556 689 486 732 q 663 566 626 646 q 699 376 699 485 l 699 329 l 186 329 m 580 415 q 558 529 580 479 q 493 608 537 579 q 387 636 450 636 q 276 605 322 636 q 208 522 231 573 q 187 415 186 472 l 580 415 m 321 972 l 454 972 l 454 842 l 321 842 l 321 972 z "},"ẹ":{"ha":760,"x_min":60,"x_max":699,"o":"m 186 329 q 209 203 185 259 q 279 116 232 148 q 394 84 326 84 q 510 116 464 84 q 577 209 556 147 l 694 209 q 634 86 678 136 q 529 11 590 36 q 397 -14 467 -14 q 221 30 297 -14 q 102 157 144 74 q 60 352 60 240 q 99 552 60 466 q 212 685 138 638 q 388 732 285 732 q 556 689 486 732 q 663 566 626 646 q 699 376 699 485 l 699 329 l 186 329 m 580 415 q 558 529 580 479 q 493 608 537 579 q 387 636 450 636 q 276 605 322 636 q 208 522 231 573 q 187 415 186 472 l 580 415 z "},"è":{"ha":760,"x_min":60,"x_max":699,"o":"m 186 329 q 209 203 185 259 q 279 116 232 148 q 394 84 326 84 q 510 116 464 84 q 577 209 556 147 l 694 209 q 634 86 678 136 q 529 11 590 36 q 397 -14 467 -14 q 221 30 297 -14 q 102 157 144 74 q 60 352 60 240 q 99 552 60 466 q 212 685 138 638 q 388 732 285 732 q 556 689 486 732 q 663 566 626 646 q 699 376 699 485 l 699 329 l 186 329 m 580 415 q 558 529 580 479 q 493 608 537 579 q 387 636 450 636 q 276 605 322 636 q 208 522 231 573 q 187 415 186 472 l 580 415 m 556 883 l 535 819 l 186 922 l 218 1017 l 556 883 z "},"ẻ":{"ha":760,"x_min":60,"x_max":699,"o":"m 186 329 q 209 203 185 259 q 279 116 232 148 q 394 84 326 84 q 510 116 464 84 q 577 209 556 147 l 694 209 q 634 86 678 136 q 529 11 590 36 q 397 -14 467 -14 q 221 30 297 -14 q 102 157 144 74 q 60 352 60 240 q 99 552 60 466 q 212 685 138 638 q 388 732 285 732 q 556 689 486 732 q 663 566 626 646 q 699 376 699 485 l 699 329 l 186 329 m 580 415 q 558 529 580 479 q 493 608 537 579 q 387 636 450 636 q 276 605 322 636 q 208 522 231 573 q 187 415 186 472 l 580 415 m 330 969 q 387 989 359 989 q 431 966 417 989 q 439 940 439 953 q 426 905 439 922 q 391 873 414 887 l 428 815 q 491 872 469 840 q 513 938 513 903 q 491 1006 513 973 q 448 1044 474 1031 q 391 1058 422 1058 q 293 1026 342 1058 l 330 969 z "},"ȇ":{"ha":760,"x_min":60,"x_max":699,"o":"m 186 329 q 209 203 185 259 q 279 116 232 148 q 394 84 326 84 q 510 116 464 84 q 577 209 556 147 l 694 209 q 634 86 678 136 q 529 11 590 36 q 397 -14 467 -14 q 221 30 297 -14 q 102 157 144 74 q 60 352 60 240 q 99 552 60 466 q 212 685 138 638 q 388 732 285 732 q 556 689 486 732 q 663 566 626 646 q 699 376 699 485 l 699 329 l 186 329 m 580 415 q 558 529 580 479 q 493 608 537 579 q 387 636 450 636 q 276 605 322 636 q 208 522 231 573 q 187 415 186 472 l 580 415 m 502 911 q 385 983 458 983 q 315 963 340 983 q 270 911 290 942 l 178 911 q 217 987 190 953 q 288 1040 245 1021 q 385 1060 331 1060 q 483 1039 439 1060 q 555 984 526 1018 q 596 911 584 951 l 502 911 z "},"ē":{"ha":760,"x_min":60,"x_max":699,"o":"m 186 329 q 209 203 185 259 q 279 116 232 148 q 394 84 326 84 q 510 116 464 84 q 577 209 556 147 l 694 209 q 634 86 678 136 q 529 11 590 36 q 397 -14 467 -14 q 221 30 297 -14 q 102 157 144 74 q 60 352 60 240 q 99 552 60 466 q 212 685 138 638 q 388 732 285 732 q 556 689 486 732 q 663 566 626 646 q 699 376 699 485 l 699 329 l 186 329 m 580 415 q 558 529 580 479 q 493 608 537 579 q 387 636 450 636 q 276 605 322 636 q 208 522 231 573 q 187 415 186 472 l 580 415 m 593 898 l 183 898 l 183 986 l 593 986 l 593 898 z "},"ę":{"ha":760,"x_min":60,"x_max":699,"o":"m 186 329 q 209 203 185 259 q 279 116 232 148 q 394 84 326 84 q 510 116 464 84 q 577 209 556 147 l 694 209 q 640 93 678 141 q 544 18 601 44 l 548 17 q 446 -39 476 -13 q 415 -98 415 -65 q 431 -136 415 -124 q 480 -149 446 -149 q 536 -142 510 -149 q 579 -124 562 -134 l 579 -190 q 525 -209 560 -201 q 451 -218 490 -218 q 350 -189 385 -218 q 315 -108 315 -160 q 327 -56 315 -80 q 369 -13 340 -33 q 207 38 277 -7 q 99 164 138 83 q 60 352 60 244 q 99 552 60 466 q 212 685 138 638 q 388 732 285 732 q 556 689 486 732 q 663 566 626 646 q 699 376 699 485 l 699 329 l 186 329 m 387 636 q 276 605 322 636 q 208 522 231 573 q 187 415 186 472 l 580 415 q 558 529 580 479 q 493 608 537 579 q 387 636 450 636 z "},"ẽ":{"ha":760,"x_min":60,"x_max":699,"o":"m 186 329 q 209 203 185 259 q 279 116 232 148 q 394 84 326 84 q 510 116 464 84 q 577 209 556 147 l 694 209 q 634 86 678 136 q 529 11 590 36 q 397 -14 467 -14 q 221 30 297 -14 q 102 157 144 74 q 60 352 60 240 q 99 552 60 466 q 212 685 138 638 q 388 732 285 732 q 556 689 486 732 q 663 566 626 646 q 699 376 699 485 l 699 329 l 186 329 m 580 415 q 558 529 580 479 q 493 608 537 579 q 387 636 450 636 q 276 605 322 636 q 208 522 231 573 q 187 415 186 472 l 580 415 m 597 923 q 478 883 543 883 q 432 888 453 883 q 383 903 410 893 q 340 915 357 911 q 303 919 323 919 q 253 910 272 919 q 206 881 233 901 l 183 947 q 235 985 210 972 q 297 998 261 998 q 343 993 321 998 q 393 978 365 988 q 441 964 422 969 q 479 960 459 960 q 528 969 507 960 q 575 998 549 979 l 597 923 z "},"ə":{"ha":760,"x_min":62,"x_max":700,"o":"m 574 389 q 552 515 575 459 q 481 602 528 570 q 366 634 434 634 q 250 602 297 634 q 183 509 204 571 l 66 509 q 126 632 83 582 q 232 707 170 682 q 364 732 293 732 q 540 688 464 732 q 658 562 616 644 q 700 366 700 479 q 661 166 700 252 q 549 33 622 81 q 373 -14 475 -14 q 204 29 274 -14 q 98 152 134 72 q 62 342 62 233 l 62 389 l 574 389 m 181 303 q 202 189 181 239 q 267 110 224 139 q 374 82 310 82 q 484 114 439 82 q 552 196 530 145 q 574 303 574 247 l 181 303 z "},"f":{"ha":547,"x_min":44,"x_max":504,"o":"m 497 626 l 322 626 l 322 0 l 197 0 l 197 626 l 44 626 l 44 718 l 197 718 l 197 830 q 241 960 197 915 q 370 1004 284 1004 l 503 1004 l 504 915 l 397 915 q 337 893 353 915 q 320 819 320 870 l 320 718 l 497 718 l 497 626 z "},"g":{"ha":849,"x_min":44,"x_max":798,"o":"m 401 -237 q 206 -214 286 -237 q 85 -148 126 -191 q 44 -48 44 -106 q 65 21 44 -8 q 109 67 85 50 q 164 100 134 85 q 180 109 178 108 q 154 124 175 112 q 120 155 133 136 q 107 199 107 174 q 139 261 107 233 q 233 303 172 289 q 131 387 163 338 q 99 502 99 436 q 138 624 99 572 q 247 702 177 675 q 410 729 317 729 q 525 714 477 729 q 617 667 573 698 l 798 742 l 798 625 l 672 601 q 689 552 681 582 q 696 502 696 522 q 663 388 696 440 q 563 306 630 337 q 398 276 495 276 q 356 277 380 276 q 256 261 287 275 q 224 228 224 247 q 238 207 224 215 q 280 195 251 199 q 363 187 308 190 l 447 181 l 519 177 q 694 119 637 170 q 752 -17 752 69 q 711 -134 752 -85 q 591 -211 670 -184 q 401 -237 513 -237 m 401 356 q 532 393 488 356 q 577 501 577 431 q 530 612 577 573 q 401 651 482 651 q 271 611 318 651 q 224 501 224 570 q 270 394 224 432 q 401 356 317 356 m 423 -157 q 580 -127 529 -157 q 631 -35 631 -97 q 599 39 631 13 q 499 69 568 65 l 295 83 q 238 69 268 84 q 188 26 208 53 q 168 -34 168 -1 q 233 -126 168 -95 q 423 -157 298 -157 z "},"ğ":{"ha":849,"x_min":44,"x_max":798,"o":"m 401 -237 q 206 -214 286 -237 q 85 -148 126 -191 q 44 -48 44 -106 q 65 21 44 -8 q 109 67 85 50 q 164 100 134 85 q 180 109 178 108 q 154 124 175 112 q 120 155 133 136 q 107 199 107 174 q 139 261 107 233 q 233 303 172 289 q 131 387 163 338 q 99 502 99 436 q 138 624 99 572 q 247 702 177 675 q 410 729 317 729 q 525 714 477 729 q 617 667 573 698 l 798 742 l 798 625 l 672 601 q 689 552 681 582 q 696 502 696 522 q 663 388 696 440 q 563 306 630 337 q 398 276 495 276 q 356 277 380 276 q 256 261 287 275 q 224 228 224 247 q 238 207 224 215 q 280 195 251 199 q 363 187 308 190 l 447 181 l 519 177 q 694 119 637 170 q 752 -17 752 69 q 711 -134 752 -85 q 591 -211 670 -184 q 401 -237 513 -237 m 401 356 q 532 393 488 356 q 577 501 577 431 q 530 612 577 573 q 401 651 482 651 q 271 611 318 651 q 224 501 224 570 q 270 394 224 432 q 401 356 317 356 m 423 -157 q 580 -127 529 -157 q 631 -35 631 -97 q 599 39 631 13 q 499 69 568 65 l 295 83 q 238 69 268 84 q 188 26 208 53 q 168 -34 168 -1 q 233 -126 168 -95 q 423 -157 298 -157 m 621 1002 q 581 928 609 963 q 508 874 552 894 q 410 853 465 853 q 275 895 330 853 q 204 1002 221 937 l 296 1002 q 340 950 314 971 q 410 930 365 930 q 527 1002 485 930 l 621 1002 z "},"ĝ":{"ha":849,"x_min":44,"x_max":798,"o":"m 401 -237 q 206 -214 286 -237 q 85 -148 126 -191 q 44 -48 44 -106 q 65 21 44 -8 q 109 67 85 50 q 164 100 134 85 q 180 109 178 108 q 154 124 175 112 q 120 155 133 136 q 107 199 107 174 q 139 261 107 233 q 233 303 172 289 q 131 387 163 338 q 99 502 99 436 q 138 624 99 572 q 247 702 177 675 q 410 729 317 729 q 525 714 477 729 q 617 667 573 698 l 798 742 l 798 625 l 672 601 q 689 552 681 582 q 696 502 696 522 q 663 388 696 440 q 563 306 630 337 q 398 276 495 276 q 356 277 380 276 q 256 261 287 275 q 224 228 224 247 q 238 207 224 215 q 280 195 251 199 q 363 187 308 190 l 447 181 l 519 177 q 694 119 637 170 q 752 -17 752 69 q 711 -134 752 -85 q 591 -211 670 -184 q 401 -237 513 -237 m 401 356 q 532 393 488 356 q 577 501 577 431 q 530 612 577 573 q 401 651 482 651 q 271 611 318 651 q 224 501 224 570 q 270 394 224 432 q 401 356 317 356 m 423 -157 q 580 -127 529 -157 q 631 -35 631 -97 q 599 39 631 13 q 499 69 568 65 l 295 83 q 238 69 268 84 q 188 26 208 53 q 168 -34 168 -1 q 233 -126 168 -95 q 423 -157 298 -157 m 407 944 l 302 851 l 190 851 l 364 1009 l 453 1009 l 624 851 l 504 851 l 407 944 z "},"ģ":{"ha":849,"x_min":44,"x_max":798,"o":"m 329 969 l 391 1069 l 450 1069 l 390 963 l 438 963 l 438 841 l 329 841 l 329 969 m 401 -237 q 206 -214 286 -237 q 85 -148 126 -191 q 44 -48 44 -106 q 65 21 44 -8 q 109 67 85 50 q 164 100 134 85 q 180 109 178 108 q 154 124 175 112 q 120 155 133 136 q 107 199 107 174 q 139 261 107 233 q 233 303 172 289 q 131 387 163 338 q 99 502 99 436 q 138 624 99 572 q 247 702 177 675 q 410 729 317 729 q 525 714 477 729 q 617 667 573 698 l 798 742 l 798 625 l 672 601 q 689 552 681 582 q 696 502 696 522 q 663 388 696 440 q 563 306 630 337 q 398 276 495 276 q 356 277 380 276 q 256 261 287 275 q 224 228 224 247 q 238 207 224 215 q 280 195 251 199 q 363 187 308 190 l 447 181 l 519 177 q 694 119 637 170 q 752 -17 752 69 q 711 -134 752 -85 q 591 -211 670 -184 q 401 -237 513 -237 m 401 356 q 532 393 488 356 q 577 501 577 431 q 530 612 577 573 q 401 651 482 651 q 271 611 318 651 q 224 501 224 570 q 270 394 224 432 q 401 356 317 356 m 423 -157 q 580 -127 529 -157 q 631 -35 631 -97 q 599 39 631 13 q 499 69 568 65 l 295 83 q 238 69 268 84 q 188 26 208 53 q 168 -34 168 -1 q 233 -126 168 -95 q 423 -157 298 -157 z "},"ġ":{"ha":849,"x_min":44,"x_max":798,"o":"m 401 -237 q 206 -214 286 -237 q 85 -148 126 -191 q 44 -48 44 -106 q 65 21 44 -8 q 109 67 85 50 q 164 100 134 85 q 180 109 178 108 q 154 124 175 112 q 120 155 133 136 q 107 199 107 174 q 139 261 107 233 q 233 303 172 289 q 131 387 163 338 q 99 502 99 436 q 138 624 99 572 q 247 702 177 675 q 410 729 317 729 q 525 714 477 729 q 617 667 573 698 l 798 742 l 798 625 l 672 601 q 689 552 681 582 q 696 502 696 522 q 663 388 696 440 q 563 306 630 337 q 398 276 495 276 q 356 277 380 276 q 256 261 287 275 q 224 228 224 247 q 238 207 224 215 q 280 195 251 199 q 363 187 308 190 l 447 181 l 519 177 q 694 119 637 170 q 752 -17 752 69 q 711 -134 752 -85 q 591 -211 670 -184 q 401 -237 513 -237 m 401 356 q 532 393 488 356 q 577 501 577 431 q 530 612 577 573 q 401 651 482 651 q 271 611 318 651 q 224 501 224 570 q 270 394 224 432 q 401 356 317 356 m 423 -157 q 580 -127 529 -157 q 631 -35 631 -97 q 599 39 631 13 q 499 69 568 65 l 295 83 q 238 69 268 84 q 188 26 208 53 q 168 -34 168 -1 q 233 -126 168 -95 q 423 -157 298 -157 m 341 972 l 474 972 l 474 842 l 341 842 l 341 972 z "},"h":{"ha":800,"x_min":107,"x_max":705,"o":"m 107 1032 l 228 1032 l 228 617 q 316 697 258 665 q 454 728 373 728 q 582 701 524 728 q 672 626 639 674 q 705 515 705 577 l 705 0 l 580 0 l 580 491 q 536 590 580 553 q 419 626 492 626 q 325 609 368 626 q 257 561 283 593 q 231 483 231 528 l 231 0 l 107 0 l 107 1032 z "},"ħ":{"ha":816,"x_min":28,"x_max":720,"o":"m 470 728 q 597 701 540 728 q 687 626 654 674 q 720 515 720 577 l 720 0 l 596 0 l 596 491 q 552 590 596 553 q 435 626 508 626 q 341 609 384 626 q 273 561 299 593 q 247 483 247 528 l 247 0 l 123 0 l 123 828 l 28 828 l 28 907 l 123 907 l 123 1032 l 244 1032 l 244 907 l 455 907 l 455 828 l 244 828 l 244 617 q 332 697 274 665 q 470 728 389 728 z "},"ĥ":{"ha":800,"x_min":107,"x_max":715,"o":"m 107 1032 l 228 1032 l 228 617 q 316 697 258 665 q 454 728 373 728 q 582 701 524 728 q 672 626 639 674 q 705 515 705 577 l 705 0 l 580 0 l 580 491 q 536 590 580 553 q 419 626 492 626 q 325 609 368 626 q 257 561 283 593 q 231 483 231 528 l 231 0 l 107 0 l 107 1032 m 498 944 l 393 851 l 281 851 l 455 1009 l 544 1009 l 715 851 l 595 851 l 498 944 z "},"ḥ":{"ha":800,"x_min":107,"x_max":705,"o":"m 107 1032 l 228 1032 l 228 617 q 316 697 258 665 q 454 728 373 728 q 582 701 524 728 q 672 626 639 674 q 705 515 705 577 l 705 0 l 580 0 l 580 491 q 536 590 580 553 q 419 626 492 626 q 325 609 368 626 q 257 561 283 593 q 231 483 231 528 l 231 0 l 107 0 l 107 1032 z "},"i":{"ha":363,"x_min":117,"x_max":249,"o":"m 249 868 l 117 868 l 117 998 l 249 998 l 249 868 m 246 0 l 121 0 l 121 718 l 246 718 l 246 0 z "},"ı":{"ha":355,"x_min":117,"x_max":241,"o":"m 241 0 l 117 0 l 117 718 l 241 718 l 241 0 z "},"í":{"ha":355,"x_min":-5,"x_max":365,"o":"m 241 0 l 117 0 l 117 718 l 241 718 l 241 0 m 365 922 l 16 819 l -5 883 l 333 1017 l 365 922 z "},"ĭ":{"ha":355,"x_min":-24,"x_max":393,"o":"m 241 0 l 117 0 l 117 718 l 241 718 l 241 0 m 393 1002 q 353 928 381 963 q 281 874 324 894 q 183 853 237 853 q 48 895 102 853 q -24 1002 -7 937 l 68 1002 q 112 950 86 971 q 183 930 138 930 q 299 1002 257 930 l 393 1002 z "},"î":{"ha":355,"x_min":-38,"x_max":396,"o":"m 241 0 l 117 0 l 117 718 l 241 718 l 241 0 m 179 944 l 74 851 l -38 851 l 136 1009 l 226 1009 l 396 851 l 276 851 l 179 944 z "},"ȉ":{"ha":355,"x_min":-115,"x_max":362,"o":"m 241 0 l 117 0 l 117 718 l 241 718 l 241 0 m 137 829 l 95 777 l -115 943 l -51 1020 l 137 829 m 362 829 l 319 777 l 110 943 l 174 1020 l 362 829 z "},"ï":{"ha":355,"x_min":-5,"x_max":361,"o":"m 241 0 l 117 0 l 117 718 l 241 718 l 241 0 m -5 997 l 128 997 l 128 867 l -5 867 l -5 997 m 228 997 l 361 997 l 361 867 l 228 867 l 228 997 z "},"ị":{"ha":365,"x_min":117,"x_max":250,"o":"m 250 868 l 117 868 l 117 998 l 250 998 l 250 868 m 247 0 l 122 0 l 122 718 l 247 718 l 247 0 z "},"ì":{"ha":355,"x_min":-22,"x_max":348,"o":"m 241 0 l 117 0 l 117 718 l 241 718 l 241 0 m 348 883 l 326 819 l -22 922 l 10 1017 l 348 883 z "},"ỉ":{"ha":355,"x_min":85,"x_max":305,"o":"m 241 0 l 117 0 l 117 718 l 241 718 l 241 0 m 122 969 q 178 989 151 989 q 223 966 208 989 q 231 940 231 953 q 218 905 231 922 q 183 873 206 887 l 220 815 q 283 872 261 840 q 305 938 305 903 q 283 1006 305 973 q 240 1044 266 1031 q 183 1058 214 1058 q 85 1026 133 1058 l 122 969 z "},"ȋ":{"ha":355,"x_min":-30,"x_max":388,"o":"m 241 0 l 117 0 l 117 718 l 241 718 l 241 0 m 294 911 q 176 983 250 983 q 106 963 131 983 q 62 911 81 942 l -30 911 q 9 987 -19 953 q 80 1040 37 1021 q 176 1060 122 1060 q 274 1039 231 1060 q 347 984 318 1018 q 388 911 376 951 l 294 911 z "},"ī":{"ha":355,"x_min":-26,"x_max":385,"o":"m 241 0 l 117 0 l 117 718 l 241 718 l 241 0 m 385 898 l -26 898 l -26 986 l 385 986 l 385 898 z "},"į":{"ha":355,"x_min":2,"x_max":267,"o":"m 246 842 l 113 842 l 113 972 l 246 972 l 246 842 m 167 -161 q 223 -153 197 -161 q 267 -135 249 -146 l 267 -201 q 213 -221 248 -212 q 139 -230 177 -230 q 37 -201 72 -230 q 2 -120 2 -172 q 28 -49 2 -80 q 117 4 53 -19 l 117 718 l 241 718 l 241 0 l 222 0 q 131 -53 158 -28 q 103 -110 103 -78 q 118 -148 103 -135 q 167 -161 133 -161 z "},"ĩ":{"ha":355,"x_min":-26,"x_max":389,"o":"m 241 0 l 117 0 l 117 718 l 241 718 l 241 0 m 389 923 q 270 883 335 883 q 223 888 244 883 q 175 903 202 893 q 132 915 149 911 q 94 919 115 919 q 44 910 64 919 q -2 881 25 901 l -26 947 q 27 985 1 972 q 89 998 53 998 q 135 993 113 998 q 185 978 157 988 q 232 964 214 969 q 271 960 251 960 q 319 969 299 960 q 367 998 340 979 l 389 923 z "},"j":{"ha":366,"x_min":-33,"x_max":257,"o":"m 257 868 l 124 868 l 124 998 l 257 998 l 257 868 m 252 -34 q 233 -145 252 -103 q 172 -209 215 -188 q 57 -231 129 -231 q -3 -226 19 -231 q -32 -215 -26 -222 l -33 -131 l 39 -128 q 108 -103 88 -125 q 128 -30 128 -81 l 128 718 l 252 718 l 252 -34 z "},"ȷ":{"ha":363,"x_min":-33,"x_max":253,"o":"m 253 -34 q 234 -145 253 -102 q 172 -209 215 -188 q 58 -231 129 -231 q -14 -226 5 -231 q -32 -215 -32 -222 l -33 -131 l 40 -128 q 108 -103 88 -125 q 128 -30 128 -81 l 128 718 l 253 718 l 253 -34 z "},"ĵ":{"ha":363,"x_min":-33,"x_max":406,"o":"m 253 -34 q 234 -145 253 -102 q 172 -209 215 -188 q 58 -231 129 -231 q -14 -226 5 -231 q -32 -215 -32 -222 l -33 -131 l 40 -128 q 108 -103 88 -125 q 128 -30 128 -81 l 128 718 l 253 718 l 253 -34 m 190 944 l 85 851 l -28 851 l 147 1009 l 236 1009 l 406 851 l 287 851 l 190 944 z "},"k":{"ha":779,"x_min":107,"x_max":735,"o":"m 602 0 l 376 363 l 231 214 l 231 0 l 107 0 l 107 1032 l 231 1032 l 231 356 l 573 718 l 717 718 l 458 445 l 735 0 l 602 0 z "},"ķ":{"ha":779,"x_min":107,"x_max":735,"o":"m 602 0 l 376 363 l 231 214 l 231 0 l 107 0 l 107 1032 l 231 1032 l 231 356 l 573 718 l 717 718 l 458 445 l 735 0 l 602 0 z "},"ĸ":{"ha":793,"x_min":107,"x_max":749,"o":"m 602 0 l 390 373 l 231 214 l 231 0 l 107 0 l 107 718 l 231 718 l 231 346 l 587 718 l 724 718 l 476 467 l 749 0 l 602 0 z "},"l":{"ha":406,"x_min":112,"x_max":354,"o":"m 290 -9 q 149 43 187 -9 q 112 184 112 95 l 112 1032 l 235 1032 l 235 196 q 256 114 235 142 q 315 83 276 86 l 354 83 l 354 2 q 290 -9 319 -9 z "},"ĺ":{"ha":406,"x_min":-14,"x_max":356,"o":"m 290 -9 q 149 43 187 -9 q 112 184 112 95 l 112 1032 l 235 1032 l 235 196 q 256 114 235 142 q 315 83 276 86 l 354 83 l 354 2 q 290 -9 319 -9 m 356 1263 l 7 1160 l -14 1224 l 324 1359 l 356 1263 z "},"ľ":{"ha":406,"x_min":112,"x_max":424,"o":"m 290 -9 q 149 43 187 -9 q 112 184 112 95 l 112 1032 l 235 1032 l 235 196 q 256 114 235 142 q 315 83 276 86 l 354 83 l 354 2 q 290 -9 319 -9 m 356 882 l 319 889 l 319 1023 l 424 1023 l 424 883 l 369 756 l 304 756 l 356 882 z "},"ļ":{"ha":406,"x_min":92,"x_max":354,"o":"m 290 -9 q 149 43 187 -9 q 112 184 112 95 l 112 1032 l 235 1032 l 235 196 q 256 114 235 142 q 315 83 276 86 l 354 83 l 354 2 q 290 -9 319 -9 z "},"ŀ":{"ha":480,"x_min":112,"x_max":506,"o":"m 290 -9 q 149 43 187 -9 q 112 184 112 95 l 112 1032 l 235 1032 l 235 196 q 256 114 235 142 q 315 83 276 86 l 354 83 l 354 2 q 290 -9 319 -9 m 506 322 l 349 322 l 349 472 l 506 472 l 506 322 z "},"ł":{"ha":385,"x_min":18,"x_max":394,"o":"m 394 83 l 394 2 q 331 -9 360 -9 q 189 43 227 -9 q 151 184 151 95 l 151 334 l 18 224 l 18 339 l 151 447 l 151 1032 l 274 1032 l 274 547 l 377 631 l 377 522 l 274 436 l 274 196 q 295 114 274 142 q 355 83 316 86 l 394 83 z "},"m":{"ha":1199,"x_min":107,"x_max":1103,"o":"m 107 718 l 227 718 l 227 618 q 443 732 299 732 q 566 703 507 732 q 651 619 624 674 q 743 702 685 672 q 870 732 802 732 q 981 709 928 732 q 1068 630 1033 686 q 1103 478 1103 573 l 1103 0 l 979 0 l 979 468 q 938 596 979 558 q 831 634 897 634 q 715 596 763 634 q 667 478 667 558 l 667 0 l 542 0 l 542 506 q 520 575 542 547 q 465 619 499 604 q 395 634 431 634 q 318 619 356 634 q 256 571 280 603 q 231 492 231 539 l 231 0 l 107 0 l 107 718 z "},"n":{"ha":801,"x_min":107,"x_max":705,"o":"m 107 718 l 228 718 l 228 618 q 316 698 260 668 q 453 728 372 728 q 581 699 524 728 q 672 611 638 669 q 705 472 705 553 l 705 0 l 581 0 l 581 460 q 537 582 581 539 q 420 626 494 626 q 326 610 369 626 q 257 561 283 594 q 231 483 231 529 l 231 0 l 107 0 l 107 718 z "},"ń":{"ha":801,"x_min":107,"x_max":705,"o":"m 107 718 l 228 718 l 228 618 q 316 698 260 668 q 453 728 372 728 q 581 699 524 728 q 672 611 638 669 q 705 472 705 553 l 705 0 l 581 0 l 581 460 q 537 582 581 539 q 420 626 494 626 q 326 610 369 626 q 257 561 283 594 q 231 483 231 529 l 231 0 l 107 0 l 107 718 m 601 922 l 252 819 l 231 883 l 569 1017 l 601 922 z "},"ň":{"ha":801,"x_min":107,"x_max":705,"o":"m 107 718 l 228 718 l 228 618 q 316 698 260 668 q 453 728 372 728 q 581 699 524 728 q 672 611 638 669 q 705 472 705 553 l 705 0 l 581 0 l 581 460 q 537 582 581 539 q 420 626 494 626 q 326 610 369 626 q 257 561 283 594 q 231 483 231 529 l 231 0 l 107 0 l 107 718 m 632 1005 l 462 846 l 372 846 l 197 1005 l 310 1005 l 415 911 l 513 1005 l 632 1005 z "},"ņ":{"ha":801,"x_min":107,"x_max":705,"o":"m 107 718 l 228 718 l 228 618 q 316 698 260 668 q 453 728 372 728 q 581 699 524 728 q 672 611 638 669 q 705 472 705 553 l 705 0 l 581 0 l 581 460 q 537 582 581 539 q 420 626 494 626 q 326 610 369 626 q 257 561 283 594 q 231 483 231 529 l 231 0 l 107 0 l 107 718 z "},"ṅ":{"ha":801,"x_min":107,"x_max":705,"o":"m 107 718 l 228 718 l 228 618 q 316 698 260 668 q 453 728 372 728 q 581 699 524 728 q 672 611 638 669 q 705 472 705 553 l 705 0 l 581 0 l 581 460 q 537 582 581 539 q 420 626 494 626 q 326 610 369 626 q 257 561 283 594 q 231 483 231 529 l 231 0 l 107 0 l 107 718 m 349 972 l 482 972 l 482 842 l 349 842 l 349 972 z "},"ŋ":{"ha":815,"x_min":107,"x_max":706,"o":"m 512 -231 q 447 -227 463 -231 q 431 -216 431 -223 l 431 -133 l 493 -131 q 561 -105 540 -128 q 581 -31 581 -83 l 581 494 q 548 598 581 560 q 442 635 514 635 q 233 526 340 635 l 233 0 l 107 0 l 108 718 l 228 718 l 228 608 q 364 704 306 676 q 488 732 422 732 q 604 706 555 732 q 679 634 653 681 q 706 526 706 587 l 706 -25 q 656 -177 706 -123 q 512 -231 606 -231 z "},"ñ":{"ha":801,"x_min":107,"x_max":705,"o":"m 107 718 l 228 718 l 228 618 q 316 698 260 668 q 453 728 372 728 q 581 699 524 728 q 672 611 638 669 q 705 472 705 553 l 705 0 l 581 0 l 581 460 q 537 582 581 539 q 420 626 494 626 q 326 610 369 626 q 257 561 283 594 q 231 483 231 529 l 231 0 l 107 0 l 107 718 m 625 923 q 506 883 571 883 q 459 888 481 883 q 411 903 438 893 q 368 915 385 911 q 331 919 351 919 q 281 910 300 919 q 234 881 261 901 l 210 947 q 263 985 238 972 q 325 998 289 998 q 371 993 349 998 q 421 978 393 988 q 468 964 450 969 q 507 960 487 960 q 556 969 535 960 q 603 998 576 979 l 625 923 z "},"o":{"ha":776,"x_min":60,"x_max":715,"o":"m 388 -14 q 212 32 286 -14 q 99 162 138 78 q 60 354 60 245 q 100 551 60 465 q 215 684 140 637 q 390 732 289 732 q 564 684 490 732 q 676 551 637 636 q 715 356 715 466 q 676 163 715 247 q 563 33 637 79 q 388 -14 489 -14 m 390 85 q 541 160 491 85 q 591 359 591 236 q 540 558 591 483 q 390 633 490 633 q 275 598 322 633 q 207 501 229 563 q 184 359 184 439 q 207 218 184 281 q 275 120 229 156 q 390 85 322 85 z "},"ó":{"ha":776,"x_min":60,"x_max":715,"o":"m 388 -14 q 212 32 286 -14 q 99 162 138 78 q 60 354 60 245 q 100 551 60 465 q 215 684 140 637 q 390 732 289 732 q 564 684 490 732 q 676 551 637 636 q 715 356 715 466 q 676 163 715 247 q 563 33 637 79 q 388 -14 489 -14 m 390 85 q 541 160 491 85 q 591 359 591 236 q 540 558 591 483 q 390 633 490 633 q 275 598 322 633 q 207 501 229 563 q 184 359 184 439 q 207 218 184 281 q 275 120 229 156 q 390 85 322 85 m 576 922 l 226 819 l 206 883 l 544 1017 l 576 922 z "},"ŏ":{"ha":776,"x_min":60,"x_max":715,"o":"m 388 -14 q 212 32 286 -14 q 99 162 138 78 q 60 354 60 245 q 100 551 60 465 q 215 684 140 637 q 390 732 289 732 q 564 684 490 732 q 676 551 637 636 q 715 356 715 466 q 676 163 715 247 q 563 33 637 79 q 388 -14 489 -14 m 390 85 q 541 160 491 85 q 591 359 591 236 q 540 558 591 483 q 390 633 490 633 q 275 598 322 633 q 207 501 229 563 q 184 359 184 439 q 207 218 184 281 q 275 120 229 156 q 390 85 322 85 m 603 1002 q 563 928 592 963 q 491 874 535 894 q 393 853 447 853 q 258 895 313 853 q 187 1002 203 937 l 278 1002 q 322 950 297 971 q 393 930 348 930 q 510 1002 467 930 l 603 1002 z "},"ô":{"ha":776,"x_min":60,"x_max":715,"o":"m 388 -14 q 212 32 286 -14 q 99 162 138 78 q 60 354 60 245 q 100 551 60 465 q 215 684 140 637 q 390 732 289 732 q 564 684 490 732 q 676 551 637 636 q 715 356 715 466 q 676 163 715 247 q 563 33 637 79 q 388 -14 489 -14 m 390 85 q 541 160 491 85 q 591 359 591 236 q 540 558 591 483 q 390 633 490 633 q 275 598 322 633 q 207 501 229 563 q 184 359 184 439 q 207 218 184 281 q 275 120 229 156 q 390 85 322 85 m 390 944 l 285 851 l 172 851 l 347 1009 l 436 1009 l 606 851 l 487 851 l 390 944 z "},"ố":{"ha":776,"x_min":60,"x_max":715,"o":"m 388 -14 q 212 32 286 -14 q 99 162 138 78 q 60 354 60 245 q 100 551 60 465 q 215 684 140 637 q 390 732 289 732 q 564 684 490 732 q 676 551 637 636 q 715 356 715 466 q 676 163 715 247 q 563 33 637 79 q 388 -14 489 -14 m 390 85 q 541 160 491 85 q 591 359 591 236 q 540 558 591 483 q 390 633 490 633 q 275 598 322 633 q 207 501 229 563 q 184 359 184 439 q 207 218 184 281 q 275 120 229 156 q 390 85 322 85 z "},"ộ":{"ha":776,"x_min":60,"x_max":715,"o":"m 388 -14 q 212 32 286 -14 q 99 162 138 78 q 60 354 60 245 q 100 551 60 465 q 215 684 140 637 q 390 732 289 732 q 564 684 490 732 q 676 551 637 636 q 715 356 715 466 q 676 163 715 247 q 563 33 637 79 q 388 -14 489 -14 m 390 85 q 541 160 491 85 q 591 359 591 236 q 540 558 591 483 q 390 633 490 633 q 275 598 322 633 q 207 501 229 563 q 184 359 184 439 q 207 218 184 281 q 275 120 229 156 q 390 85 322 85 m 390 944 l 285 851 l 172 851 l 347 1009 l 436 1009 l 606 851 l 487 851 l 390 944 z "},"ồ":{"ha":776,"x_min":60,"x_max":715,"o":"m 388 -14 q 212 32 286 -14 q 99 162 138 78 q 60 354 60 245 q 100 551 60 465 q 215 684 140 637 q 390 732 289 732 q 564 684 490 732 q 676 551 637 636 q 715 356 715 466 q 676 163 715 247 q 563 33 637 79 q 388 -14 489 -14 m 390 85 q 541 160 491 85 q 591 359 591 236 q 540 558 591 483 q 390 633 490 633 q 275 598 322 633 q 207 501 229 563 q 184 359 184 439 q 207 218 184 281 q 275 120 229 156 q 390 85 322 85 z "},"ổ":{"ha":776,"x_min":60,"x_max":715,"o":"m 388 -14 q 212 32 286 -14 q 99 162 138 78 q 60 354 60 245 q 100 551 60 465 q 215 684 140 637 q 390 732 289 732 q 564 684 490 732 q 676 551 637 636 q 715 356 715 466 q 676 163 715 247 q 563 33 637 79 q 388 -14 489 -14 m 390 85 q 541 160 491 85 q 591 359 591 236 q 540 558 591 483 q 390 633 490 633 q 275 598 322 633 q 207 501 229 563 q 184 359 184 439 q 207 218 184 281 q 275 120 229 156 q 390 85 322 85 z "},"ỗ":{"ha":776,"x_min":60,"x_max":715,"o":"m 388 -14 q 212 32 286 -14 q 99 162 138 78 q 60 354 60 245 q 100 551 60 465 q 215 684 140 637 q 390 732 289 732 q 564 684 490 732 q 676 551 637 636 q 715 356 715 466 q 676 163 715 247 q 563 33 637 79 q 388 -14 489 -14 m 390 85 q 541 160 491 85 q 591 359 591 236 q 540 558 591 483 q 390 633 490 633 q 275 598 322 633 q 207 501 229 563 q 184 359 184 439 q 207 218 184 281 q 275 120 229 156 q 390 85 322 85 z "},"ȍ":{"ha":776,"x_min":60,"x_max":715,"o":"m 388 -14 q 212 32 286 -14 q 99 162 138 78 q 60 354 60 245 q 100 551 60 465 q 215 684 140 637 q 390 732 289 732 q 564 684 490 732 q 676 551 637 636 q 715 356 715 466 q 676 163 715 247 q 563 33 637 79 q 388 -14 489 -14 m 390 85 q 541 160 491 85 q 591 359 591 236 q 540 558 591 483 q 390 633 490 633 q 275 598 322 633 q 207 501 229 563 q 184 359 184 439 q 207 218 184 281 q 275 120 229 156 q 390 85 322 85 m 347 829 l 306 777 l 96 943 l 160 1020 l 347 829 m 572 829 l 530 777 l 320 943 l 385 1020 l 572 829 z "},"ö":{"ha":776,"x_min":60,"x_max":715,"o":"m 388 -14 q 212 32 286 -14 q 99 162 138 78 q 60 354 60 245 q 100 551 60 465 q 215 684 140 637 q 390 732 289 732 q 564 684 490 732 q 676 551 637 636 q 715 356 715 466 q 676 163 715 247 q 563 33 637 79 q 388 -14 489 -14 m 390 85 q 541 160 491 85 q 591 359 591 236 q 540 558 591 483 q 390 633 490 633 q 275 598 322 633 q 207 501 229 563 q 184 359 184 439 q 207 218 184 281 q 275 120 229 156 q 390 85 322 85 m 206 997 l 338 997 l 338 867 l 206 867 l 206 997 m 439 997 l 572 997 l 572 867 l 439 867 l 439 997 z "},"ọ":{"ha":776,"x_min":60,"x_max":715,"o":"m 388 -14 q 212 32 286 -14 q 99 162 138 78 q 60 354 60 245 q 100 551 60 465 q 215 684 140 637 q 390 732 289 732 q 564 684 490 732 q 676 551 637 636 q 715 356 715 466 q 676 163 715 247 q 563 33 637 79 q 388 -14 489 -14 m 390 85 q 541 160 491 85 q 591 359 591 236 q 540 558 591 483 q 390 633 490 633 q 275 598 322 633 q 207 501 229 563 q 184 359 184 439 q 207 218 184 281 q 275 120 229 156 q 390 85 322 85 z "},"ò":{"ha":776,"x_min":60,"x_max":715,"o":"m 388 -14 q 212 32 286 -14 q 99 162 138 78 q 60 354 60 245 q 100 551 60 465 q 215 684 140 637 q 390 732 289 732 q 564 684 490 732 q 676 551 637 636 q 715 356 715 466 q 676 163 715 247 q 563 33 637 79 q 388 -14 489 -14 m 390 85 q 541 160 491 85 q 591 359 591 236 q 540 558 591 483 q 390 633 490 633 q 275 598 322 633 q 207 501 229 563 q 184 359 184 439 q 207 218 184 281 q 275 120 229 156 q 390 85 322 85 m 558 883 l 537 819 l 188 922 l 220 1017 l 558 883 z "},"ỏ":{"ha":776,"x_min":60,"x_max":715,"o":"m 388 -14 q 212 32 286 -14 q 99 162 138 78 q 60 354 60 245 q 100 551 60 465 q 215 684 140 637 q 390 732 289 732 q 564 684 490 732 q 676 551 637 636 q 715 356 715 466 q 676 163 715 247 q 563 33 637 79 q 388 -14 489 -14 m 390 85 q 541 160 491 85 q 591 359 591 236 q 540 558 591 483 q 390 633 490 633 q 275 598 322 633 q 207 501 229 563 q 184 359 184 439 q 207 218 184 281 q 275 120 229 156 q 390 85 322 85 m 332 969 q 389 989 361 989 q 433 966 419 989 q 441 940 441 953 q 428 905 441 922 q 393 873 416 887 l 431 815 q 493 872 472 840 q 515 938 515 903 q 493 1006 515 973 q 450 1044 476 1031 q 393 1058 424 1058 q 295 1026 344 1058 l 332 969 z "},"ơ":{"ha":931,"x_min":60,"x_max":872,"o":"m 872 697 q 832 534 872 585 q 699 483 792 483 q 715 356 715 426 q 676 163 715 247 q 563 33 637 79 q 388 -14 489 -14 q 212 32 286 -14 q 99 162 138 78 q 60 354 60 245 q 100 551 60 465 q 215 684 140 637 q 390 732 289 732 q 557 688 485 732 q 669 565 629 644 q 727 575 707 565 q 758 613 748 585 q 772 697 769 640 l 872 697 m 390 85 q 541 160 491 85 q 591 359 591 236 q 540 558 591 483 q 390 633 490 633 q 275 598 322 633 q 207 501 229 563 q 184 359 184 439 q 207 218 184 281 q 275 120 229 156 q 390 85 322 85 z "},"ớ":{"ha":931,"x_min":60,"x_max":872,"o":"m 226 819 l 206 883 l 544 1017 l 576 922 l 226 819 m 872 697 q 832 534 872 585 q 699 483 792 483 q 715 356 715 426 q 676 163 715 247 q 563 33 637 79 q 388 -14 489 -14 q 212 32 286 -14 q 99 162 138 78 q 60 354 60 245 q 100 551 60 465 q 215 684 140 637 q 390 732 289 732 q 557 688 485 732 q 669 565 629 644 q 727 575 707 565 q 758 613 748 585 q 772 697 769 640 l 872 697 m 390 85 q 541 160 491 85 q 591 359 591 236 q 540 558 591 483 q 390 633 490 633 q 275 598 322 633 q 207 501 229 563 q 184 359 184 439 q 207 218 184 281 q 275 120 229 156 q 390 85 322 85 z "},"ợ":{"ha":931,"x_min":60,"x_max":872,"o":"m 872 697 q 832 534 872 585 q 699 483 792 483 q 715 356 715 426 q 676 163 715 247 q 563 33 637 79 q 388 -14 489 -14 q 212 32 286 -14 q 99 162 138 78 q 60 354 60 245 q 100 551 60 465 q 215 684 140 637 q 390 732 289 732 q 557 688 485 732 q 669 565 629 644 q 727 575 707 565 q 758 613 748 585 q 772 697 769 640 l 872 697 m 390 85 q 541 160 491 85 q 591 359 591 236 q 540 558 591 483 q 390 633 490 633 q 275 598 322 633 q 207 501 229 563 q 184 359 184 439 q 207 218 184 281 q 275 120 229 156 q 390 85 322 85 m 322 -122 l 455 -122 l 455 -252 l 322 -252 l 322 -122 z "},"ờ":{"ha":931,"x_min":60,"x_max":872,"o":"m 537 819 l 188 922 l 220 1017 l 558 883 l 537 819 m 872 697 q 832 534 872 585 q 699 483 792 483 q 715 356 715 426 q 676 163 715 247 q 563 33 637 79 q 388 -14 489 -14 q 212 32 286 -14 q 99 162 138 78 q 60 354 60 245 q 100 551 60 465 q 215 684 140 637 q 390 732 289 732 q 557 688 485 732 q 669 565 629 644 q 727 575 707 565 q 758 613 748 585 q 772 697 769 640 l 872 697 m 390 85 q 541 160 491 85 q 591 359 591 236 q 540 558 591 483 q 390 633 490 633 q 275 598 322 633 q 207 501 229 563 q 184 359 184 439 q 207 218 184 281 q 275 120 229 156 q 390 85 322 85 z "},"ở":{"ha":931,"x_min":60,"x_max":872,"o":"m 433 966 q 389 989 419 989 q 332 969 361 989 l 295 1026 q 393 1058 344 1058 q 450 1044 424 1058 q 493 1006 476 1031 q 515 938 515 973 q 493 872 515 903 q 431 815 472 840 l 393 873 q 428 905 416 887 q 441 940 441 922 q 433 966 441 953 m 872 697 q 832 534 872 585 q 699 483 792 483 q 715 356 715 426 q 676 163 715 247 q 563 33 637 79 q 388 -14 489 -14 q 212 32 286 -14 q 99 162 138 78 q 60 354 60 245 q 100 551 60 465 q 215 684 140 637 q 390 732 289 732 q 557 688 485 732 q 669 565 629 644 q 727 575 707 565 q 758 613 748 585 q 772 697 769 640 l 872 697 m 390 85 q 541 160 491 85 q 591 359 591 236 q 540 558 591 483 q 390 633 490 633 q 275 598 322 633 q 207 501 229 563 q 184 359 184 439 q 207 218 184 281 q 275 120 229 156 q 390 85 322 85 z "},"ỡ":{"ha":931,"x_min":60,"x_max":872,"o":"m 305 919 q 255 910 274 919 q 208 881 235 901 l 185 947 q 238 985 212 972 q 299 998 263 998 q 345 993 323 998 q 395 978 367 988 q 443 964 424 969 q 481 960 461 960 q 530 969 509 960 q 577 998 551 979 l 599 923 q 481 883 545 883 q 434 888 455 883 q 385 903 413 893 q 342 915 359 911 q 305 919 325 919 m 872 697 q 832 534 872 585 q 699 483 792 483 q 715 356 715 426 q 676 163 715 247 q 563 33 637 79 q 388 -14 489 -14 q 212 32 286 -14 q 99 162 138 78 q 60 354 60 245 q 100 551 60 465 q 215 684 140 637 q 390 732 289 732 q 557 688 485 732 q 669 565 629 644 q 727 575 707 565 q 758 613 748 585 q 772 697 769 640 l 872 697 m 390 85 q 541 160 491 85 q 591 359 591 236 q 540 558 591 483 q 390 633 490 633 q 275 598 322 633 q 207 501 229 563 q 184 359 184 439 q 207 218 184 281 q 275 120 229 156 q 390 85 322 85 z "},"ő":{"ha":776,"x_min":60,"x_max":715,"o":"m 388 -14 q 212 32 286 -14 q 99 162 138 78 q 60 354 60 245 q 100 551 60 465 q 215 684 140 637 q 390 732 289 732 q 564 684 490 732 q 676 551 637 636 q 715 356 715 466 q 676 163 715 247 q 563 33 637 79 q 388 -14 489 -14 m 390 85 q 541 160 491 85 q 591 359 591 236 q 540 558 591 483 q 390 633 490 633 q 275 598 322 633 q 207 501 229 563 q 184 359 184 439 q 207 218 184 281 q 275 120 229 156 q 390 85 322 85 m 674 943 l 464 776 l 422 829 l 609 1020 l 674 943 m 448 943 l 240 778 l 197 829 l 385 1019 l 448 943 z "},"ȏ":{"ha":776,"x_min":60,"x_max":715,"o":"m 388 -14 q 212 32 286 -14 q 99 162 138 78 q 60 354 60 245 q 100 551 60 465 q 215 684 140 637 q 390 732 289 732 q 564 684 490 732 q 676 551 637 636 q 715 356 715 466 q 676 163 715 247 q 563 33 637 79 q 388 -14 489 -14 m 390 85 q 541 160 491 85 q 591 359 591 236 q 540 558 591 483 q 390 633 490 633 q 275 598 322 633 q 207 501 229 563 q 184 359 184 439 q 207 218 184 281 q 275 120 229 156 q 390 85 322 85 m 505 911 q 388 983 461 983 q 317 963 342 983 q 273 911 292 942 l 181 911 q 220 987 192 953 q 291 1040 248 1021 q 388 1060 333 1060 q 485 1039 442 1060 q 558 984 529 1018 q 599 911 587 951 l 505 911 z "},"ō":{"ha":776,"x_min":60,"x_max":715,"o":"m 388 -14 q 212 32 286 -14 q 99 162 138 78 q 60 354 60 245 q 100 551 60 465 q 215 684 140 637 q 390 732 289 732 q 564 684 490 732 q 676 551 637 636 q 715 356 715 466 q 676 163 715 247 q 563 33 637 79 q 388 -14 489 -14 m 390 85 q 541 160 491 85 q 591 359 591 236 q 540 558 591 483 q 390 633 490 633 q 275 598 322 633 q 207 501 229 563 q 184 359 184 439 q 207 218 184 281 q 275 120 229 156 q 390 85 322 85 m 595 898 l 185 898 l 185 986 l 595 986 l 595 898 z "},"ǫ":{"ha":776,"x_min":60,"x_max":715,"o":"m 489 0 q 392 -55 422 -29 q 363 -112 363 -80 q 378 -151 363 -138 q 428 -164 394 -164 q 484 -156 458 -164 q 527 -138 510 -149 l 527 -204 q 473 -224 508 -215 q 399 -233 438 -233 q 298 -203 333 -233 q 263 -123 263 -174 q 281 -61 263 -88 q 346 -12 300 -33 q 192 46 256 -2 q 94 174 128 94 q 60 354 60 253 q 100 551 60 465 q 215 684 140 637 q 390 732 289 732 q 564 684 490 732 q 676 551 637 636 q 715 356 715 466 q 688 193 715 267 q 611 70 662 120 q 489 0 560 21 m 184 359 q 207 218 184 281 q 275 120 229 156 q 390 85 322 85 q 541 160 491 85 q 591 359 591 236 q 540 558 591 483 q 390 633 490 633 q 275 598 322 633 q 207 501 229 563 q 184 359 184 439 z "},"ø":{"ha":812,"x_min":28,"x_max":780,"o":"m 678 572 q 727 356 727 481 q 688 163 727 247 q 575 33 649 79 q 401 -14 501 -14 q 269 10 328 -14 q 168 78 210 34 l 79 -8 l 28 47 l 124 139 q 73 354 73 228 q 113 551 73 465 q 227 684 153 637 q 402 732 301 732 q 534 707 475 732 q 635 633 593 681 l 728 724 l 780 669 l 678 572 m 197 359 q 216 228 197 285 l 554 556 q 402 633 502 633 q 288 598 334 633 q 219 501 242 563 q 197 359 197 439 m 603 359 q 588 483 603 427 l 251 158 q 403 85 306 85 q 553 160 503 85 q 603 359 603 236 z "},"ǿ":{"ha":812,"x_min":28,"x_max":780,"o":"m 678 572 q 727 356 727 481 q 688 163 727 247 q 575 33 649 79 q 401 -14 501 -14 q 269 10 328 -14 q 168 78 210 34 l 79 -8 l 28 47 l 124 139 q 73 354 73 228 q 113 551 73 465 q 227 684 153 637 q 402 732 301 732 q 534 707 475 732 q 635 633 593 681 l 728 724 l 780 669 l 678 572 m 197 359 q 216 228 197 285 l 554 556 q 402 633 502 633 q 288 598 334 633 q 219 501 242 563 q 197 359 197 439 m 603 359 q 588 483 603 427 l 251 158 q 403 85 306 85 q 553 160 503 85 q 603 359 603 236 m 590 922 l 241 819 l 220 883 l 558 1017 l 590 922 z "},"õ":{"ha":776,"x_min":60,"x_max":715,"o":"m 388 -14 q 212 32 286 -14 q 99 162 138 78 q 60 354 60 245 q 100 551 60 465 q 215 684 140 637 q 390 732 289 732 q 564 684 490 732 q 676 551 637 636 q 715 356 715 466 q 676 163 715 247 q 563 33 637 79 q 388 -14 489 -14 m 390 85 q 541 160 491 85 q 591 359 591 236 q 540 558 591 483 q 390 633 490 633 q 275 598 322 633 q 207 501 229 563 q 184 359 184 439 q 207 218 184 281 q 275 120 229 156 q 390 85 322 85 m 599 923 q 481 883 545 883 q 434 888 455 883 q 385 903 413 893 q 342 915 359 911 q 305 919 325 919 q 255 910 274 919 q 208 881 235 901 l 185 947 q 238 985 212 972 q 299 998 263 998 q 345 993 323 998 q 395 978 367 988 q 443 964 424 969 q 481 960 461 960 q 530 969 509 960 q 577 998 551 979 l 599 923 z "},"œ":{"ha":1353,"x_min":60,"x_max":1292,"o":"m 405 -14 q 225 32 303 -14 q 103 162 147 78 q 60 354 60 246 q 104 551 60 465 q 227 685 148 638 q 406 732 306 732 q 564 693 494 732 q 675 584 634 654 q 687 575 683 575 q 699 584 692 575 q 807 693 738 653 q 960 732 876 732 q 1137 684 1062 732 q 1252 547 1212 636 q 1292 333 1292 457 l 749 333 q 780 205 749 263 q 863 113 810 147 q 977 80 915 80 q 1192 199 1111 80 l 1276 157 q 1145 26 1219 67 q 965 -14 1071 -14 q 809 23 879 -14 q 696 127 739 60 q 685 137 690 137 q 672 124 679 137 q 560 22 628 58 q 405 -14 491 -14 m 966 644 q 856 615 905 644 q 779 533 807 585 q 752 413 751 481 l 1169 412 q 1144 526 1169 473 q 1073 611 1119 579 q 966 644 1026 644 m 408 78 q 523 112 474 78 q 597 208 572 145 q 623 358 623 271 q 597 509 623 445 q 521 607 570 573 q 406 641 472 641 q 291 607 340 641 q 215 509 242 573 q 188 358 188 445 q 215 209 188 272 q 291 112 242 146 q 408 78 341 78 z "},"p":{"ha":813,"x_min":107,"x_max":753,"o":"m 107 718 l 230 718 l 230 619 q 319 698 266 665 q 453 732 372 732 q 606 691 538 732 q 714 569 674 651 q 753 369 753 487 q 712 163 753 249 q 599 31 671 76 q 434 -14 526 -14 q 323 13 373 -14 q 231 99 272 40 l 231 -224 l 107 -224 l 107 718 m 415 82 q 527 115 477 82 q 605 213 576 149 q 633 365 633 276 q 604 514 633 453 q 527 605 575 574 q 421 635 478 635 q 325 609 369 635 q 256 545 281 584 q 231 468 231 506 l 231 194 q 313 112 266 142 q 415 82 360 82 z "},"þ":{"ha":813,"x_min":107,"x_max":753,"o":"m 230 619 q 284 673 260 651 q 353 713 308 694 q 458 732 397 732 q 609 691 542 732 q 714 569 676 651 q 753 369 753 488 q 714 163 753 249 q 606 31 676 76 q 444 -14 536 -14 q 253 55 333 -14 q 238 64 243 64 q 233 60 234 64 q 231 46 231 56 l 231 -224 l 107 -224 l 107 1004 l 230 1004 l 230 619 m 231 161 q 315 97 272 119 q 408 74 358 74 q 522 107 473 74 q 598 206 571 140 q 626 367 626 272 q 598 524 626 462 q 523 614 570 585 q 415 643 475 643 q 322 620 364 643 q 255 563 279 598 q 231 492 231 527 l 231 161 z "},"q":{"ha":814,"x_min":60,"x_max":707,"o":"m 583 -224 l 583 112 q 498 18 551 51 q 373 -14 444 -14 q 210 31 281 -14 q 100 163 139 76 q 60 369 60 249 q 100 569 60 487 q 207 691 139 651 q 360 732 275 732 q 460 715 416 732 q 528 678 503 697 q 584 628 552 658 l 584 718 l 707 718 l 707 -224 l 583 -224 m 405 78 q 503 108 463 78 q 563 187 543 138 q 583 290 583 235 l 583 452 q 559 544 583 501 q 493 613 535 587 q 397 639 451 639 q 292 609 340 639 q 216 518 244 579 q 188 367 188 457 q 216 213 188 278 q 293 113 244 147 q 405 78 342 78 z "},"r":{"ha":529,"x_min":107,"x_max":490,"o":"m 107 718 l 226 718 l 226 581 q 323 690 254 647 q 489 732 392 732 l 490 612 q 463 613 481 613 q 288 568 344 613 q 231 449 231 524 l 231 0 l 107 0 l 107 718 z "},"ŕ":{"ha":529,"x_min":107,"x_max":490,"o":"m 107 718 l 226 718 l 226 581 q 323 690 254 647 q 489 732 392 732 l 490 612 q 463 613 481 613 q 288 568 344 613 q 231 449 231 524 l 231 0 l 107 0 l 107 718 m 478 922 l 129 819 l 108 883 l 447 1017 l 478 922 z "},"ř":{"ha":529,"x_min":74,"x_max":509,"o":"m 107 718 l 226 718 l 226 581 q 323 690 254 647 q 489 732 392 732 l 490 612 q 463 613 481 613 q 288 568 344 613 q 231 449 231 524 l 231 0 l 107 0 l 107 718 m 509 1005 l 339 846 l 249 846 l 74 1005 l 188 1005 l 292 911 l 390 1005 l 509 1005 z "},"ŗ":{"ha":529,"x_min":80,"x_max":490,"o":"m 107 718 l 226 718 l 226 581 q 323 690 254 647 q 489 732 392 732 l 490 612 q 463 613 481 613 q 288 568 344 613 q 231 449 231 524 l 231 0 l 107 0 l 107 718 z "},"ȑ":{"ha":529,"x_min":-1,"x_max":490,"o":"m 107 718 l 226 718 l 226 581 q 323 690 254 647 q 489 732 392 732 l 490 612 q 463 613 481 613 q 288 568 344 613 q 231 449 231 524 l 231 0 l 107 0 l 107 718 m 250 829 l 208 777 l -1 943 l 63 1020 l 250 829 m 475 829 l 433 777 l 223 943 l 288 1020 l 475 829 z "},"ṛ":{"ha":529,"x_min":106,"x_max":490,"o":"m 107 718 l 226 718 l 226 581 q 323 690 254 647 q 489 732 392 732 l 490 612 q 463 613 481 613 q 288 568 344 613 q 231 449 231 524 l 231 0 l 107 0 l 107 718 z "},"ȓ":{"ha":529,"x_min":84,"x_max":501,"o":"m 107 718 l 226 718 l 226 581 q 323 690 254 647 q 489 732 392 732 l 490 612 q 463 613 481 613 q 288 568 344 613 q 231 449 231 524 l 231 0 l 107 0 l 107 718 m 408 911 q 290 983 364 983 q 220 963 245 983 q 176 911 195 942 l 84 911 q 123 987 95 953 q 193 1040 151 1021 q 290 1060 236 1060 q 388 1039 344 1060 q 461 984 432 1018 q 501 911 490 951 l 408 911 z "},"s":{"ha":717,"x_min":72,"x_max":644,"o":"m 370 -14 q 229 11 293 -14 q 124 86 165 36 q 72 208 82 135 l 188 208 q 251 113 201 144 q 369 81 301 81 q 488 110 444 81 q 533 192 533 140 q 506 256 533 231 q 428 294 480 281 l 286 331 q 145 398 194 354 q 97 518 97 442 q 131 634 97 585 q 227 707 165 682 q 369 732 289 732 q 505 708 447 732 q 597 637 564 683 q 631 526 630 590 l 519 526 q 471 607 512 578 q 367 637 431 637 q 258 611 304 637 q 211 526 211 585 q 240 466 211 488 q 333 429 269 444 l 478 392 q 606 315 567 368 q 644 199 644 261 q 608 83 644 131 q 509 11 572 35 q 370 -14 447 -14 z "},"ś":{"ha":717,"x_min":72,"x_max":644,"o":"m 370 -14 q 229 11 293 -14 q 124 86 165 36 q 72 208 82 135 l 188 208 q 251 113 201 144 q 369 81 301 81 q 488 110 444 81 q 533 192 533 140 q 506 256 533 231 q 428 294 480 281 l 286 331 q 145 398 194 354 q 97 518 97 442 q 131 634 97 585 q 227 707 165 682 q 369 732 289 732 q 505 708 447 732 q 597 637 564 683 q 631 526 630 590 l 519 526 q 471 607 512 578 q 367 637 431 637 q 258 611 304 637 q 211 526 211 585 q 240 466 211 488 q 333 429 269 444 l 478 392 q 606 315 567 368 q 644 199 644 261 q 608 83 644 131 q 509 11 572 35 q 370 -14 447 -14 m 537 922 l 188 819 l 167 883 l 505 1017 l 537 922 z "},"š":{"ha":717,"x_min":72,"x_max":644,"o":"m 370 -14 q 229 11 293 -14 q 124 86 165 36 q 72 208 82 135 l 188 208 q 251 113 201 144 q 369 81 301 81 q 488 110 444 81 q 533 192 533 140 q 506 256 533 231 q 428 294 480 281 l 286 331 q 145 398 194 354 q 97 518 97 442 q 131 634 97 585 q 227 707 165 682 q 369 732 289 732 q 505 708 447 732 q 597 637 564 683 q 631 526 630 590 l 519 526 q 471 607 512 578 q 367 637 431 637 q 258 611 304 637 q 211 526 211 585 q 240 466 211 488 q 333 429 269 444 l 478 392 q 606 315 567 368 q 644 199 644 261 q 608 83 644 131 q 509 11 572 35 q 370 -14 447 -14 m 567 1005 l 397 846 l 307 846 l 133 1005 l 246 1005 l 351 911 l 448 1005 l 567 1005 z "},"ş":{"ha":717,"x_min":72,"x_max":644,"o":"m 644 199 q 610 87 644 134 q 518 15 576 40 q 388 -14 460 -11 l 363 -77 q 457 -110 427 -81 q 486 -178 486 -139 q 443 -257 486 -228 q 336 -285 400 -285 q 206 -251 259 -285 l 227 -198 q 322 -231 269 -231 q 378 -217 359 -231 q 397 -179 397 -204 q 370 -134 397 -149 q 286 -118 344 -119 q 277 -116 279 -118 q 278 -109 276 -114 l 321 -11 q 152 56 219 0 q 72 208 85 112 l 188 208 q 251 113 201 144 q 369 81 301 81 q 488 110 444 81 q 533 192 533 140 q 506 256 533 231 q 428 294 480 281 l 286 331 q 145 398 194 354 q 97 518 97 442 q 131 634 97 585 q 227 707 165 682 q 369 732 289 732 q 505 708 447 732 q 597 637 564 683 q 631 526 630 590 l 519 526 q 471 607 512 578 q 367 637 431 637 q 258 611 304 637 q 211 526 211 585 q 240 466 211 488 q 333 429 269 444 l 478 392 q 606 315 567 368 q 644 199 644 261 z "},"ŝ":{"ha":717,"x_min":72,"x_max":644,"o":"m 370 -14 q 229 11 293 -14 q 124 86 165 36 q 72 208 82 135 l 188 208 q 251 113 201 144 q 369 81 301 81 q 488 110 444 81 q 533 192 533 140 q 506 256 533 231 q 428 294 480 281 l 286 331 q 145 398 194 354 q 97 518 97 442 q 131 634 97 585 q 227 707 165 682 q 369 732 289 732 q 505 708 447 732 q 597 637 564 683 q 631 526 630 590 l 519 526 q 471 607 512 578 q 367 637 431 637 q 258 611 304 637 q 211 526 211 585 q 240 466 211 488 q 333 429 269 444 l 478 392 q 606 315 567 368 q 644 199 644 261 q 608 83 644 131 q 509 11 572 35 q 370 -14 447 -14 m 351 944 l 246 851 l 133 851 l 308 1009 l 397 1009 l 567 851 l 448 851 l 351 944 z "},"ș":{"ha":717,"x_min":72,"x_max":644,"o":"m 370 -14 q 229 11 293 -14 q 124 86 165 36 q 72 208 82 135 l 188 208 q 251 113 201 144 q 369 81 301 81 q 488 110 444 81 q 533 192 533 140 q 506 256 533 231 q 428 294 480 281 l 286 331 q 145 398 194 354 q 97 518 97 442 q 131 634 97 585 q 227 707 165 682 q 369 732 289 732 q 505 708 447 732 q 597 637 564 683 q 631 526 630 590 l 519 526 q 471 607 512 578 q 367 637 431 637 q 258 611 304 637 q 211 526 211 585 q 240 466 211 488 q 333 429 269 444 l 478 392 q 606 315 567 368 q 644 199 644 261 q 608 83 644 131 q 509 11 572 35 q 370 -14 447 -14 z "},"ṣ":{"ha":717,"x_min":72,"x_max":644,"o":"m 370 -14 q 229 11 293 -14 q 124 86 165 36 q 72 208 82 135 l 188 208 q 251 113 201 144 q 369 81 301 81 q 488 110 444 81 q 533 192 533 140 q 506 256 533 231 q 428 294 480 281 l 286 331 q 145 398 194 354 q 97 518 97 442 q 131 634 97 585 q 227 707 165 682 q 369 732 289 732 q 505 708 447 732 q 597 637 564 683 q 631 526 630 590 l 519 526 q 471 607 512 578 q 367 637 431 637 q 258 611 304 637 q 211 526 211 585 q 240 466 211 488 q 333 429 269 444 l 478 392 q 606 315 567 368 q 644 199 644 261 q 608 83 644 131 q 509 11 572 35 q 370 -14 447 -14 z "},"ß":{"ha":853,"x_min":42,"x_max":781,"o":"m 446 1004 q 583 978 528 1004 q 663 909 638 953 q 688 813 688 866 q 668 729 688 763 q 613 672 647 695 q 522 623 579 649 q 474 595 489 605 q 452 575 460 585 q 445 548 445 564 q 452 523 445 532 q 474 506 459 513 q 520 489 489 499 l 536 483 q 659 428 610 455 q 744 351 708 401 q 781 224 781 301 q 745 95 781 149 q 648 14 710 41 q 508 -14 586 -14 q 405 -1 456 -14 q 318 34 353 13 l 363 117 q 428 86 399 97 q 499 75 458 75 q 620 111 575 75 q 665 211 665 147 q 642 286 665 257 q 586 332 620 315 q 493 369 551 349 q 417 402 448 385 q 366 450 386 420 q 345 525 345 480 q 373 608 345 574 q 461 678 400 642 q 480 690 474 686 q 528 723 510 709 q 559 759 547 738 q 572 810 572 781 q 536 886 572 858 q 435 915 500 915 q 306 866 354 915 q 258 725 258 817 l 258 0 l 135 0 l 135 612 l 42 612 l 42 703 l 134 703 q 171 860 135 792 q 276 966 206 928 q 446 1004 346 1004 z "},"t":{"ha":519,"x_min":44,"x_max":454,"o":"m 287 626 l 288 182 q 296 124 288 143 q 323 99 305 105 q 376 92 342 92 l 454 92 l 454 8 q 349 -3 422 -3 q 236 16 277 -3 q 178 74 195 36 q 161 173 161 113 l 161 626 l 44 626 l 44 718 l 164 718 l 187 926 l 287 926 l 287 719 l 449 719 l 449 626 l 287 626 z "},"ŧ":{"ha":535,"x_min":58,"x_max":469,"o":"m 469 92 l 469 8 q 363 -3 437 -3 q 250 16 291 -3 q 192 74 209 36 q 175 173 175 113 l 175 358 l 65 358 l 65 437 l 175 437 l 175 626 l 58 626 l 58 718 l 178 718 l 201 926 l 301 926 l 301 719 l 464 719 l 464 626 l 301 626 l 301 437 l 438 437 l 438 358 l 301 358 l 301 182 q 310 124 301 143 q 338 99 319 105 q 391 92 356 92 l 469 92 z "},"ť":{"ha":519,"x_min":44,"x_max":524,"o":"m 287 626 l 288 182 q 296 124 288 143 q 323 99 305 105 q 376 92 342 92 l 454 92 l 454 8 q 349 -3 422 -3 q 236 16 277 -3 q 178 74 195 36 q 161 173 161 113 l 161 626 l 44 626 l 44 718 l 164 718 l 187 926 l 287 926 l 287 719 l 449 719 l 449 626 l 287 626 m 456 908 l 419 915 l 419 1049 l 524 1049 l 524 908 l 469 781 l 404 781 l 456 908 z "},"ţ":{"ha":519,"x_min":44,"x_max":454,"o":"m 334 -3 l 307 -73 q 401 -106 372 -76 q 431 -174 431 -135 q 388 -253 431 -224 q 281 -281 344 -281 q 151 -247 203 -281 l 172 -194 q 266 -226 214 -226 q 322 -213 303 -226 q 341 -175 341 -200 q 315 -130 341 -145 q 231 -114 289 -115 q 222 -112 224 -114 q 222 -105 220 -110 l 270 4 q 186 60 210 19 q 161 173 161 101 l 161 626 l 44 626 l 44 718 l 164 718 l 187 926 l 287 926 l 287 719 l 449 719 l 449 626 l 287 626 l 288 182 q 296 124 288 143 q 323 99 305 105 q 376 92 342 92 l 454 92 l 454 8 q 349 -3 422 -3 l 334 -3 z "},"ț":{"ha":519,"x_min":44,"x_max":454,"o":"m 287 626 l 288 182 q 296 124 288 143 q 323 99 305 105 q 376 92 342 92 l 454 92 l 454 8 q 349 -3 422 -3 q 236 16 277 -3 q 178 74 195 36 q 161 173 161 113 l 161 626 l 44 626 l 44 718 l 164 718 l 187 926 l 287 926 l 287 719 l 449 719 l 449 626 l 287 626 z "},"ṭ":{"ha":519,"x_min":44,"x_max":454,"o":"m 287 626 l 288 182 q 296 124 288 143 q 323 99 305 105 q 376 92 342 92 l 454 92 l 454 8 q 349 -3 422 -3 q 236 16 277 -3 q 178 74 195 36 q 161 173 161 113 l 161 626 l 44 626 l 44 718 l 164 718 l 187 926 l 287 926 l 287 719 l 449 719 l 449 626 l 287 626 z "},"u":{"ha":812,"x_min":107,"x_max":705,"o":"m 378 -13 q 251 13 313 -13 q 148 93 189 38 q 107 232 107 148 l 107 720 l 231 720 l 231 244 q 257 152 231 188 q 321 101 282 117 q 402 85 360 85 q 490 103 450 85 q 555 160 531 122 q 580 252 580 198 l 580 720 l 705 720 l 703 1 l 605 1 l 592 138 q 547 54 579 88 q 470 3 515 20 q 378 -13 426 -13 z "},"ú":{"ha":812,"x_min":107,"x_max":705,"o":"m 378 -13 q 251 13 313 -13 q 148 93 189 38 q 107 232 107 148 l 107 720 l 231 720 l 231 244 q 257 152 231 188 q 321 101 282 117 q 402 85 360 85 q 490 103 450 85 q 555 160 531 122 q 580 252 580 198 l 580 720 l 705 720 l 703 1 l 605 1 l 592 138 q 547 54 579 88 q 470 3 515 20 q 378 -13 426 -13 m 591 922 l 242 819 l 221 883 l 559 1017 l 591 922 z "},"ŭ":{"ha":812,"x_min":107,"x_max":705,"o":"m 378 -13 q 251 13 313 -13 q 148 93 189 38 q 107 232 107 148 l 107 720 l 231 720 l 231 244 q 257 152 231 188 q 321 101 282 117 q 402 85 360 85 q 490 103 450 85 q 555 160 531 122 q 580 252 580 198 l 580 720 l 705 720 l 703 1 l 605 1 l 592 138 q 547 54 579 88 q 470 3 515 20 q 378 -13 426 -13 m 619 1002 q 578 928 607 963 q 506 874 550 894 q 408 853 463 853 q 273 895 328 853 q 202 1002 219 937 l 294 1002 q 338 950 312 971 q 408 930 363 930 q 525 1002 483 930 l 619 1002 z "},"û":{"ha":812,"x_min":107,"x_max":705,"o":"m 378 -13 q 251 13 313 -13 q 148 93 189 38 q 107 232 107 148 l 107 720 l 231 720 l 231 244 q 257 152 231 188 q 321 101 282 117 q 402 85 360 85 q 490 103 450 85 q 555 160 531 122 q 580 252 580 198 l 580 720 l 705 720 l 703 1 l 605 1 l 592 138 q 547 54 579 88 q 470 3 515 20 q 378 -13 426 -13 m 405 944 l 300 851 l 188 851 l 362 1009 l 451 1009 l 622 851 l 502 851 l 405 944 z "},"ȕ":{"ha":812,"x_min":107,"x_max":705,"o":"m 378 -13 q 251 13 313 -13 q 148 93 189 38 q 107 232 107 148 l 107 720 l 231 720 l 231 244 q 257 152 231 188 q 321 101 282 117 q 402 85 360 85 q 490 103 450 85 q 555 160 531 122 q 580 252 580 198 l 580 720 l 705 720 l 703 1 l 605 1 l 592 138 q 547 54 579 88 q 470 3 515 20 q 378 -13 426 -13 m 363 829 l 321 777 l 111 943 l 175 1020 l 363 829 m 588 829 l 545 777 l 335 943 l 400 1020 l 588 829 z "},"ü":{"ha":812,"x_min":107,"x_max":705,"o":"m 378 -13 q 251 13 313 -13 q 148 93 189 38 q 107 232 107 148 l 107 720 l 231 720 l 231 244 q 257 152 231 188 q 321 101 282 117 q 402 85 360 85 q 490 103 450 85 q 555 160 531 122 q 580 252 580 198 l 580 720 l 705 720 l 703 1 l 605 1 l 592 138 q 547 54 579 88 q 470 3 515 20 q 378 -13 426 -13 m 221 997 l 353 997 l 353 867 l 221 867 l 221 997 m 454 997 l 587 997 l 587 867 l 454 867 l 454 997 z "},"ụ":{"ha":812,"x_min":107,"x_max":705,"o":"m 378 -13 q 251 13 313 -13 q 148 93 189 38 q 107 232 107 148 l 107 720 l 231 720 l 231 244 q 257 152 231 188 q 321 101 282 117 q 402 85 360 85 q 490 103 450 85 q 555 160 531 122 q 580 252 580 198 l 580 720 l 705 720 l 703 1 l 605 1 l 592 138 q 547 54 579 88 q 470 3 515 20 q 378 -13 426 -13 z "},"ù":{"ha":812,"x_min":107,"x_max":705,"o":"m 378 -13 q 251 13 313 -13 q 148 93 189 38 q 107 232 107 148 l 107 720 l 231 720 l 231 244 q 257 152 231 188 q 321 101 282 117 q 402 85 360 85 q 490 103 450 85 q 555 160 531 122 q 580 252 580 198 l 580 720 l 705 720 l 703 1 l 605 1 l 592 138 q 547 54 579 88 q 470 3 515 20 q 378 -13 426 -13 m 574 883 l 552 819 l 203 922 l 235 1017 l 574 883 z "},"ủ":{"ha":812,"x_min":107,"x_max":705,"o":"m 378 -13 q 251 13 313 -13 q 148 93 189 38 q 107 232 107 148 l 107 720 l 231 720 l 231 244 q 257 152 231 188 q 321 101 282 117 q 402 85 360 85 q 490 103 450 85 q 555 160 531 122 q 580 252 580 198 l 580 720 l 705 720 l 703 1 l 605 1 l 592 138 q 547 54 579 88 q 470 3 515 20 q 378 -13 426 -13 m 347 969 q 404 989 376 989 q 449 966 434 989 q 456 940 456 953 q 444 905 456 922 q 408 873 431 887 l 446 815 q 509 872 487 840 q 531 938 531 903 q 508 1006 531 973 q 466 1044 492 1031 q 408 1058 440 1058 q 310 1026 359 1058 l 347 969 z "},"ư":{"ha":967,"x_min":107,"x_max":898,"o":"m 898 773 q 857 611 897 663 q 726 560 817 560 q 705 560 712 560 l 703 1 l 605 1 l 592 138 q 547 54 579 88 q 470 3 515 20 q 378 -13 426 -13 q 251 13 313 -13 q 148 93 189 38 q 107 232 107 148 l 107 720 l 231 720 l 231 244 q 257 152 231 188 q 321 101 282 117 q 402 85 360 85 q 490 103 450 85 q 555 160 531 122 q 580 252 580 198 l 580 720 l 705 720 l 705 641 q 757 653 738 642 q 785 692 775 664 q 797 773 794 719 l 898 773 z "},"ứ":{"ha":967,"x_min":107,"x_max":898,"o":"m 242 819 l 221 883 l 559 1017 l 591 922 l 242 819 m 898 773 q 857 611 897 663 q 726 560 817 560 q 705 560 712 560 l 703 1 l 605 1 l 592 138 q 547 54 579 88 q 470 3 515 20 q 378 -13 426 -13 q 251 13 313 -13 q 148 93 189 38 q 107 232 107 148 l 107 720 l 231 720 l 231 244 q 257 152 231 188 q 321 101 282 117 q 402 85 360 85 q 490 103 450 85 q 555 160 531 122 q 580 252 580 198 l 580 720 l 705 720 l 705 641 q 757 653 738 642 q 785 692 775 664 q 797 773 794 719 l 898 773 z "},"ự":{"ha":967,"x_min":107,"x_max":898,"o":"m 898 773 q 857 611 897 663 q 726 560 817 560 q 705 560 712 560 l 703 1 l 605 1 l 592 138 q 547 54 579 88 q 470 3 515 20 q 378 -13 426 -13 q 251 13 313 -13 q 148 93 189 38 q 107 232 107 148 l 107 720 l 231 720 l 231 244 q 257 152 231 188 q 321 101 282 117 q 402 85 360 85 q 490 103 450 85 q 555 160 531 122 q 580 252 580 198 l 580 720 l 705 720 l 705 641 q 757 653 738 642 q 785 692 775 664 q 797 773 794 719 l 898 773 m 338 -122 l 471 -122 l 471 -252 l 338 -252 l 338 -122 z "},"ừ":{"ha":967,"x_min":107,"x_max":898,"o":"m 552 819 l 203 922 l 235 1017 l 574 883 l 552 819 m 898 773 q 857 611 897 663 q 726 560 817 560 q 705 560 712 560 l 703 1 l 605 1 l 592 138 q 547 54 579 88 q 470 3 515 20 q 378 -13 426 -13 q 251 13 313 -13 q 148 93 189 38 q 107 232 107 148 l 107 720 l 231 720 l 231 244 q 257 152 231 188 q 321 101 282 117 q 402 85 360 85 q 490 103 450 85 q 555 160 531 122 q 580 252 580 198 l 580 720 l 705 720 l 705 641 q 757 653 738 642 q 785 692 775 664 q 797 773 794 719 l 898 773 z "},"ử":{"ha":967,"x_min":107,"x_max":898,"o":"m 449 966 q 404 989 434 989 q 347 969 376 989 l 310 1026 q 408 1058 359 1058 q 466 1044 440 1058 q 508 1006 492 1031 q 531 938 531 973 q 509 872 531 903 q 446 815 487 840 l 408 873 q 444 905 431 887 q 456 940 456 922 q 449 966 456 953 m 898 773 q 857 611 897 663 q 726 560 817 560 q 705 560 712 560 l 703 1 l 605 1 l 592 138 q 547 54 579 88 q 470 3 515 20 q 378 -13 426 -13 q 251 13 313 -13 q 148 93 189 38 q 107 232 107 148 l 107 720 l 231 720 l 231 244 q 257 152 231 188 q 321 101 282 117 q 402 85 360 85 q 490 103 450 85 q 555 160 531 122 q 580 252 580 198 l 580 720 l 705 720 l 705 641 q 757 653 738 642 q 785 692 775 664 q 797 773 794 719 l 898 773 z "},"ữ":{"ha":967,"x_min":107,"x_max":898,"o":"m 320 919 q 270 910 290 919 q 224 881 251 901 l 200 947 q 253 985 227 972 q 315 998 278 998 q 360 993 338 998 q 410 978 383 988 q 458 964 440 969 q 497 960 476 960 q 545 969 524 960 q 592 998 566 979 l 615 923 q 496 883 560 883 q 449 888 470 883 q 401 903 428 893 q 357 915 374 911 q 320 919 340 919 m 898 773 q 857 611 897 663 q 726 560 817 560 q 705 560 712 560 l 703 1 l 605 1 l 592 138 q 547 54 579 88 q 470 3 515 20 q 378 -13 426 -13 q 251 13 313 -13 q 148 93 189 38 q 107 232 107 148 l 107 720 l 231 720 l 231 244 q 257 152 231 188 q 321 101 282 117 q 402 85 360 85 q 490 103 450 85 q 555 160 531 122 q 580 252 580 198 l 580 720 l 705 720 l 705 641 q 757 653 738 642 q 785 692 775 664 q 797 773 794 719 l 898 773 z "},"ű":{"ha":812,"x_min":107,"x_max":705,"o":"m 378 -13 q 251 13 313 -13 q 148 93 189 38 q 107 232 107 148 l 107 720 l 231 720 l 231 244 q 257 152 231 188 q 321 101 282 117 q 402 85 360 85 q 490 103 450 85 q 555 160 531 122 q 580 252 580 198 l 580 720 l 705 720 l 703 1 l 605 1 l 592 138 q 547 54 579 88 q 470 3 515 20 q 378 -13 426 -13 m 690 943 l 479 776 l 438 829 l 624 1020 l 690 943 m 463 943 l 255 778 l 212 829 l 400 1019 l 463 943 z "},"ȗ":{"ha":812,"x_min":107,"x_max":705,"o":"m 378 -13 q 251 13 313 -13 q 148 93 189 38 q 107 232 107 148 l 107 720 l 231 720 l 231 244 q 257 152 231 188 q 321 101 282 117 q 402 85 360 85 q 490 103 450 85 q 555 160 531 122 q 580 252 580 198 l 580 720 l 705 720 l 703 1 l 605 1 l 592 138 q 547 54 579 88 q 470 3 515 20 q 378 -13 426 -13 m 519 911 q 402 983 476 983 q 332 963 357 983 q 288 911 307 942 l 196 911 q 235 987 207 953 q 305 1040 263 1021 q 402 1060 348 1060 q 500 1039 456 1060 q 573 984 544 1018 q 613 911 601 951 l 519 911 z "},"ū":{"ha":812,"x_min":107,"x_max":705,"o":"m 378 -13 q 251 13 313 -13 q 148 93 189 38 q 107 232 107 148 l 107 720 l 231 720 l 231 244 q 257 152 231 188 q 321 101 282 117 q 402 85 360 85 q 490 103 450 85 q 555 160 531 122 q 580 252 580 198 l 580 720 l 705 720 l 703 1 l 605 1 l 592 138 q 547 54 579 88 q 470 3 515 20 q 378 -13 426 -13 m 610 898 l 200 898 l 200 986 l 610 986 l 610 898 z "},"ų":{"ha":812,"x_min":107,"x_max":728,"o":"m 629 -162 q 685 -155 659 -162 q 728 -137 711 -147 l 728 -203 q 674 -223 710 -214 q 601 -231 639 -231 q 499 -202 534 -231 q 464 -122 464 -173 q 495 -45 464 -78 q 603 12 526 -13 l 592 138 q 547 54 579 88 q 470 3 515 20 q 378 -13 426 -13 q 251 13 313 -13 q 148 93 189 38 q 107 232 107 148 l 107 720 l 231 720 l 231 244 q 257 152 231 188 q 321 101 282 117 q 402 85 360 85 q 490 103 450 85 q 555 160 531 122 q 580 252 580 198 l 580 720 l 705 720 l 703 1 l 689 1 q 593 -54 622 -28 q 565 -111 565 -79 q 580 -150 565 -137 q 629 -162 595 -162 z "},"ů":{"ha":812,"x_min":107,"x_max":705,"o":"m 378 -13 q 251 13 313 -13 q 148 93 189 38 q 107 232 107 148 l 107 720 l 231 720 l 231 244 q 257 152 231 188 q 321 101 282 117 q 402 85 360 85 q 490 103 450 85 q 555 160 531 122 q 580 252 580 198 l 580 720 l 705 720 l 703 1 l 605 1 l 592 138 q 547 54 579 88 q 470 3 515 20 q 378 -13 426 -13 m 549 944 q 530 872 549 904 q 478 820 510 839 q 406 801 445 801 q 333 821 366 801 q 282 873 301 840 q 263 947 263 906 q 282 1016 263 984 q 334 1066 301 1047 q 406 1085 367 1085 q 478 1066 445 1085 q 530 1015 510 1047 q 549 944 549 983 m 478 944 q 457 997 478 976 q 404 1018 436 1018 q 351 997 374 1018 q 329 944 329 976 q 352 890 329 913 q 404 867 374 867 q 457 890 435 867 q 478 944 478 913 z "},"ũ":{"ha":812,"x_min":107,"x_max":705,"o":"m 378 -13 q 251 13 313 -13 q 148 93 189 38 q 107 232 107 148 l 107 720 l 231 720 l 231 244 q 257 152 231 188 q 321 101 282 117 q 402 85 360 85 q 490 103 450 85 q 555 160 531 122 q 580 252 580 198 l 580 720 l 705 720 l 703 1 l 605 1 l 592 138 q 547 54 579 88 q 470 3 515 20 q 378 -13 426 -13 m 615 923 q 496 883 560 883 q 449 888 470 883 q 401 903 428 893 q 357 915 374 911 q 320 919 340 919 q 270 910 290 919 q 224 881 251 901 l 200 947 q 253 985 227 972 q 315 998 278 998 q 360 993 338 998 q 410 978 383 988 q 458 964 440 969 q 497 960 476 960 q 545 969 524 960 q 592 998 566 979 l 615 923 z "},"v":{"ha":711,"x_min":40,"x_max":672,"o":"m 414 0 l 299 0 l 40 718 l 157 718 l 349 156 l 361 156 l 556 718 l 672 718 l 414 0 z "},"w":{"ha":1088,"x_min":40,"x_max":1048,"o":"m 832 0 l 707 0 l 542 535 l 385 0 l 261 0 l 40 718 l 156 718 l 322 160 l 333 160 l 497 718 l 591 718 l 761 162 l 772 162 l 931 718 l 1048 718 l 832 0 z "},"ẃ":{"ha":1088,"x_min":40,"x_max":1048,"o":"m 832 0 l 707 0 l 542 535 l 385 0 l 261 0 l 40 718 l 156 718 l 322 160 l 333 160 l 497 718 l 591 718 l 761 162 l 772 162 l 931 718 l 1048 718 l 832 0 m 735 922 l 385 819 l 365 883 l 703 1017 l 735 922 z "},"ŵ":{"ha":1088,"x_min":40,"x_max":1048,"o":"m 832 0 l 707 0 l 542 535 l 385 0 l 261 0 l 40 718 l 156 718 l 322 160 l 333 160 l 497 718 l 591 718 l 761 162 l 772 162 l 931 718 l 1048 718 l 832 0 m 549 944 l 444 851 l 332 851 l 506 1009 l 596 1009 l 766 851 l 647 851 l 549 944 z "},"ẅ":{"ha":1088,"x_min":40,"x_max":1048,"o":"m 832 0 l 707 0 l 542 535 l 385 0 l 261 0 l 40 718 l 156 718 l 322 160 l 333 160 l 497 718 l 591 718 l 761 162 l 772 162 l 931 718 l 1048 718 l 832 0 m 365 997 l 497 997 l 497 867 l 365 867 l 365 997 m 598 997 l 731 997 l 731 867 l 598 867 l 598 997 z "},"ẁ":{"ha":1088,"x_min":40,"x_max":1048,"o":"m 832 0 l 707 0 l 542 535 l 385 0 l 261 0 l 40 718 l 156 718 l 322 160 l 333 160 l 497 718 l 591 718 l 761 162 l 772 162 l 931 718 l 1048 718 l 832 0 m 717 883 l 696 819 l 347 922 l 379 1017 l 717 883 z "},"x":{"ha":782,"x_min":44,"x_max":738,"o":"m 601 0 l 391 284 l 181 0 l 44 0 l 322 373 l 67 718 l 203 718 l 391 463 l 580 718 l 717 718 l 461 373 l 738 0 l 601 0 z "},"y":{"ha":753,"x_min":40,"x_max":714,"o":"m 183 -229 q 114 -224 142 -229 q 74 -212 86 -219 l 74 -131 l 147 -132 q 249 -112 217 -135 q 294 -53 280 -90 l 320 17 l 40 718 l 165 718 l 379 159 l 592 718 l 714 718 l 410 -57 q 316 -191 372 -153 q 183 -229 261 -229 z "},"ý":{"ha":753,"x_min":40,"x_max":714,"o":"m 183 -229 q 114 -224 142 -229 q 74 -212 86 -219 l 74 -131 l 147 -132 q 249 -112 217 -135 q 294 -53 280 -90 l 320 17 l 40 718 l 165 718 l 379 159 l 592 718 l 714 718 l 410 -57 q 316 -191 372 -153 q 183 -229 261 -229 m 575 922 l 226 819 l 205 883 l 543 1017 l 575 922 z "},"ŷ":{"ha":753,"x_min":40,"x_max":714,"o":"m 183 -229 q 114 -224 142 -229 q 74 -212 86 -219 l 74 -131 l 147 -132 q 249 -112 217 -135 q 294 -53 280 -90 l 320 17 l 40 718 l 165 718 l 379 159 l 592 718 l 714 718 l 410 -57 q 316 -191 372 -153 q 183 -229 261 -229 m 389 944 l 284 851 l 172 851 l 346 1009 l 435 1009 l 606 851 l 486 851 l 389 944 z "},"ÿ":{"ha":753,"x_min":40,"x_max":714,"o":"m 183 -229 q 114 -224 142 -229 q 74 -212 86 -219 l 74 -131 l 147 -132 q 249 -112 217 -135 q 294 -53 280 -90 l 320 17 l 40 718 l 165 718 l 379 159 l 592 718 l 714 718 l 410 -57 q 316 -191 372 -153 q 183 -229 261 -229 m 205 997 l 338 997 l 338 867 l 205 867 l 205 997 m 438 997 l 571 997 l 571 867 l 438 867 l 438 997 z "},"ỵ":{"ha":753,"x_min":40,"x_max":714,"o":"m 183 -229 q 114 -224 142 -229 q 74 -212 86 -219 l 74 -131 l 147 -132 q 249 -112 217 -135 q 294 -53 280 -90 l 320 17 l 40 718 l 165 718 l 379 159 l 592 718 l 714 718 l 410 -57 q 316 -191 372 -153 q 183 -229 261 -229 z "},"ỳ":{"ha":753,"x_min":40,"x_max":714,"o":"m 183 -229 q 114 -224 142 -229 q 74 -212 86 -219 l 74 -131 l 147 -132 q 249 -112 217 -135 q 294 -53 280 -90 l 320 17 l 40 718 l 165 718 l 379 159 l 592 718 l 714 718 l 410 -57 q 316 -191 372 -153 q 183 -229 261 -229 m 558 883 l 536 819 l 188 922 l 219 1017 l 558 883 z "},"ỷ":{"ha":753,"x_min":40,"x_max":714,"o":"m 183 -229 q 114 -224 142 -229 q 74 -212 86 -219 l 74 -131 l 147 -132 q 249 -112 217 -135 q 294 -53 280 -90 l 320 17 l 40 718 l 165 718 l 379 159 l 592 718 l 714 718 l 410 -57 q 316 -191 372 -153 q 183 -229 261 -229 m 331 969 q 388 989 360 989 q 433 966 418 989 q 440 940 440 953 q 428 905 440 922 q 392 873 415 887 l 430 815 q 493 872 471 840 q 515 938 515 903 q 492 1006 515 973 q 450 1044 476 1031 q 392 1058 424 1058 q 294 1026 343 1058 l 331 969 z "},"ỹ":{"ha":753,"x_min":40,"x_max":714,"o":"m 183 -229 q 114 -224 142 -229 q 74 -212 86 -219 l 74 -131 l 147 -132 q 249 -112 217 -135 q 294 -53 280 -90 l 320 17 l 40 718 l 165 718 l 379 159 l 592 718 l 714 718 l 410 -57 q 316 -191 372 -153 q 183 -229 261 -229 m 599 923 q 480 883 544 883 q 433 888 454 883 q 385 903 412 893 q 341 915 358 911 q 304 919 324 919 q 254 910 274 919 q 208 881 235 901 l 184 947 q 237 985 211 972 q 299 998 263 998 q 344 993 322 998 q 394 978 367 988 q 442 964 424 969 q 481 960 460 960 q 529 969 508 960 q 576 998 550 979 l 599 923 z "},"z":{"ha":697,"x_min":63,"x_max":629,"o":"m 63 77 l 474 628 l 89 628 l 89 718 l 622 718 l 622 640 l 213 90 l 629 90 l 629 0 l 63 0 l 63 77 z "},"ź":{"ha":697,"x_min":63,"x_max":629,"o":"m 63 77 l 474 628 l 89 628 l 89 718 l 622 718 l 622 640 l 213 90 l 629 90 l 629 0 l 63 0 l 63 77 m 547 922 l 197 819 l 176 883 l 515 1017 l 547 922 z "},"ž":{"ha":697,"x_min":63,"x_max":629,"o":"m 63 77 l 474 628 l 89 628 l 89 718 l 622 718 l 622 640 l 213 90 l 629 90 l 629 0 l 63 0 l 63 77 m 577 1005 l 407 846 l 317 846 l 142 1005 l 256 1005 l 360 911 l 458 1005 l 577 1005 z "},"ż":{"ha":697,"x_min":63,"x_max":629,"o":"m 63 77 l 474 628 l 89 628 l 89 718 l 622 718 l 622 640 l 213 90 l 629 90 l 629 0 l 63 0 l 63 77 m 294 972 l 427 972 l 427 842 l 294 842 l 294 972 z "},"ẓ":{"ha":697,"x_min":63,"x_max":629,"o":"m 63 77 l 474 628 l 89 628 l 89 718 l 622 718 l 622 640 l 213 90 l 629 90 l 629 0 l 63 0 l 63 77 z "},"ﬁ":{"ha":910,"x_min":44,"x_max":796,"o":"m 497 626 l 322 626 l 322 0 l 197 0 l 197 626 l 44 626 l 44 718 l 197 718 l 197 830 q 241 960 197 915 q 370 1004 284 1004 l 503 1004 l 504 915 l 397 915 q 337 893 353 915 q 320 819 320 870 l 320 718 l 497 718 l 497 626 m 796 868 l 663 868 l 663 998 l 796 998 l 796 868 m 792 0 l 667 0 l 667 718 l 792 718 l 792 0 z "},"ﬂ":{"ha":952,"x_min":44,"x_max":901,"o":"m 497 626 l 322 626 l 322 0 l 197 0 l 197 626 l 44 626 l 44 718 l 197 718 l 197 830 q 241 960 197 915 q 370 1004 284 1004 l 503 1004 l 504 915 l 397 915 q 337 893 353 915 q 320 819 320 870 l 320 718 l 497 718 l 497 626 m 837 -9 q 696 43 733 -9 q 658 184 658 95 l 658 1032 l 781 1032 l 781 196 q 802 114 781 142 q 862 83 823 86 l 901 83 l 901 2 q 837 -9 866 -9 z "},"ª":{"ha":560,"x_min":63,"x_max":465,"o":"m 213 550 q 103 583 142 550 q 63 676 63 617 q 122 780 63 741 q 288 826 180 819 l 365 833 l 365 865 q 339 931 365 910 q 265 951 312 951 q 199 937 226 951 q 151 885 172 922 l 74 906 q 270 1015 126 1015 q 405 976 360 1015 q 450 865 450 937 l 450 702 q 456 608 450 649 l 465 558 l 375 558 l 365 618 q 292 566 326 582 q 213 550 257 550 m 242 612 q 333 646 296 612 q 357 673 349 660 q 365 702 365 687 l 365 776 l 301 772 q 190 743 227 767 q 152 680 152 719 q 177 630 152 649 q 242 612 201 612 z "},"º":{"ha":556,"x_min":60,"x_max":495,"o":"m 277 1017 q 392 988 343 1017 q 468 905 442 958 q 495 783 495 851 q 469 663 495 715 q 393 581 442 610 q 277 552 344 552 q 161 581 210 552 q 86 663 113 610 q 60 783 60 715 q 88 905 60 852 q 164 988 115 958 q 277 1017 213 1017 m 277 951 q 185 907 217 951 q 153 786 153 864 q 185 661 153 706 q 277 617 217 617 q 370 661 338 617 q 402 786 402 706 q 370 907 402 864 q 277 951 338 951 z "},"π":{"ha":914,"x_min":38,"x_max":872,"o":"m 714 626 l 714 0 l 594 0 l 592 626 l 294 626 q 270 280 294 457 q 212 0 246 102 l 98 0 q 153 291 131 125 q 176 613 176 458 q 173 623 176 619 q 164 626 169 626 l 38 626 l 38 718 l 872 718 l 872 626 l 714 626 z "},"⁰":{"ha":567,"x_min":18,"x_max":466,"o":"m 242 1173 q 361 1136 311 1173 q 439 1025 411 1099 q 466 847 466 952 q 439 669 466 741 q 361 560 412 597 q 242 524 311 524 q 77 606 136 524 q 18 845 18 688 q 45 1025 18 951 q 123 1136 73 1099 q 242 1173 174 1173 m 243 591 q 347 652 313 591 q 381 846 381 713 q 346 1043 381 981 q 242 1106 311 1106 q 138 1043 173 1106 q 102 846 102 981 q 138 652 102 714 q 243 591 173 591 z "},"¹":{"ha":413,"x_min":8,"x_max":210,"o":"m 130 1032 l 8 1032 l 8 1084 q 95 1092 63 1084 q 140 1116 126 1100 q 154 1160 153 1133 l 210 1160 l 210 528 l 130 528 l 130 1032 z "},"²":{"ha":501,"x_min":33,"x_max":467,"o":"m 46 608 q 72 705 46 664 q 134 771 97 745 q 231 831 170 797 q 311 880 282 859 q 360 928 340 900 q 381 994 381 957 q 346 1074 381 1044 q 253 1104 311 1104 q 153 1069 192 1104 q 110 975 115 1034 l 33 975 q 60 1076 34 1031 q 136 1147 86 1121 q 257 1174 186 1174 q 366 1151 319 1174 q 438 1089 413 1129 q 463 994 463 1048 q 438 898 463 938 q 376 832 413 858 q 281 775 340 807 q 202 728 231 748 q 153 681 173 709 q 133 616 133 653 l 133 603 l 467 603 l 467 533 l 46 533 l 46 608 z "},"³":{"ha":548,"x_min":35,"x_max":499,"o":"m 43 981 q 72 1084 43 1040 q 150 1151 101 1128 q 260 1174 199 1174 q 376 1155 326 1174 q 454 1099 426 1135 q 482 1011 482 1063 q 451 925 482 963 q 361 867 421 888 q 462 809 426 850 q 499 708 499 767 q 468 610 499 651 q 383 547 437 569 q 259 524 328 524 q 144 548 194 524 q 65 614 94 571 q 35 714 37 656 l 113 714 q 161 624 122 656 q 260 592 200 592 q 341 606 306 592 q 395 647 376 621 q 415 708 415 674 q 369 795 415 764 q 253 828 324 827 l 197 829 l 197 896 l 251 897 q 325 913 292 898 q 378 954 359 928 q 397 1008 397 979 q 381 1058 397 1035 q 333 1095 365 1081 q 260 1108 302 1108 q 193 1094 224 1108 q 142 1052 162 1081 q 121 981 122 1024 l 43 981 z "},"⁴":{"ha":571,"x_min":26,"x_max":506,"o":"m 400 1160 l 400 760 l 506 760 l 506 690 l 400 690 l 400 528 l 323 528 l 324 690 l 26 690 l 26 763 l 320 1160 l 400 1160 m 322 760 l 322 1056 l 101 760 l 322 760 z "},"⁵":{"ha":549,"x_min":37,"x_max":510,"o":"m 472 1160 l 470 1092 l 164 1092 l 147 885 q 215 926 178 913 q 298 940 252 940 q 404 916 356 940 q 481 846 452 892 q 510 735 510 799 q 482 621 510 669 q 402 545 453 572 q 281 519 350 519 q 174 539 224 519 q 88 597 124 560 q 37 681 53 633 l 105 709 q 172 619 128 652 q 276 585 215 585 q 385 625 344 585 q 426 732 426 664 q 407 806 426 774 q 355 855 388 838 q 282 873 322 873 q 208 860 239 873 q 143 810 176 848 q 139 809 140 809 q 135 810 137 809 l 68 831 l 97 1160 l 472 1160 z "},"⁶":{"ha":525,"x_min":37,"x_max":494,"o":"m 283 1180 q 380 1160 335 1180 q 452 1104 424 1141 q 488 1017 481 1067 l 415 1017 q 368 1088 401 1063 q 284 1114 334 1114 q 164 1053 206 1114 q 122 877 122 992 q 123 838 122 865 q 185 917 140 887 q 286 947 230 947 q 395 922 348 947 q 468 853 442 898 q 494 747 494 808 q 468 635 494 683 q 391 559 441 586 q 276 532 342 532 q 149 569 203 532 q 66 678 95 607 q 37 846 37 749 q 65 1023 37 948 q 149 1139 94 1099 q 283 1180 204 1180 m 274 883 q 207 866 240 883 q 155 822 175 850 q 135 763 135 794 q 152 676 135 714 q 201 617 169 638 q 275 596 233 596 q 344 614 314 596 q 392 666 375 633 q 410 742 410 699 q 375 845 410 808 q 274 883 340 883 z "},"⁷":{"ha":505,"x_min":47,"x_max":488,"o":"m 488 1160 l 488 1092 q 380 909 433 1017 q 290 697 327 801 q 245 528 253 593 l 160 528 q 202 686 172 592 q 284 888 233 781 q 402 1092 335 995 l 47 1092 l 47 1160 l 488 1160 z "},"⁸":{"ha":549,"x_min":28,"x_max":508,"o":"m 267 1176 q 376 1156 328 1176 q 452 1097 424 1135 q 479 1004 479 1058 q 380 868 479 910 q 441 838 412 862 q 489 780 471 814 q 508 710 508 745 q 478 615 508 656 q 394 553 448 575 q 267 531 340 531 q 141 552 195 531 q 57 615 87 574 q 28 710 28 656 q 46 780 28 745 q 94 838 65 814 q 156 868 124 862 q 55 1004 55 910 q 83 1097 55 1058 q 159 1156 110 1135 q 267 1176 207 1176 m 267 901 q 363 928 327 901 q 399 1006 399 956 q 362 1087 399 1057 q 267 1117 326 1117 q 172 1087 208 1117 q 135 1006 135 1057 q 172 929 135 956 q 267 901 208 901 m 267 593 q 381 625 338 593 q 423 710 423 657 q 404 773 423 745 q 349 816 385 800 q 267 831 314 831 q 185 816 221 831 q 131 773 150 800 q 112 710 112 745 q 154 625 112 657 q 267 593 197 593 z "},"⁹":{"ha":557,"x_min":28,"x_max":487,"o":"m 238 531 q 141 551 186 531 q 65 608 95 571 q 28 694 35 644 l 105 694 q 151 623 116 649 q 235 597 186 597 q 363 657 317 597 q 408 842 408 718 q 408 876 408 864 q 346 793 391 824 q 242 762 301 762 q 132 786 179 762 q 58 856 84 810 q 31 965 31 902 q 58 1076 31 1028 q 133 1152 84 1125 q 249 1179 183 1179 q 375 1142 322 1179 q 458 1033 428 1104 q 487 865 487 963 q 458 684 487 759 q 373 570 428 610 q 238 531 317 531 m 250 828 q 317 845 285 828 q 369 889 349 862 q 389 949 389 917 q 372 1035 390 997 q 323 1094 355 1073 q 249 1115 291 1115 q 180 1097 210 1115 q 133 1045 150 1078 q 117 969 117 1012 q 151 866 117 903 q 250 828 185 828 z "},"⁄":{"ha":350,"x_min":-208,"x_max":551,"o":"m -124 -6 l -208 -5 l 469 1015 l 551 1015 l -124 -6 z "},"½":{"ha":1308,"x_min":8,"x_max":1248,"o":"m 130 888 l 8 888 l 8 940 q 95 948 63 940 q 140 972 126 956 q 154 1015 153 988 l 210 1015 l 210 383 l 130 383 l 130 888 m 289 -6 l 204 -5 l 882 1015 l 964 1015 l 289 -6 m 827 74 q 853 171 827 131 q 915 238 878 212 q 1012 297 951 264 q 1092 346 1063 326 q 1142 395 1122 367 q 1162 461 1162 424 q 1127 541 1162 510 q 1035 571 1092 571 q 935 536 973 571 q 892 442 897 501 l 814 442 q 841 542 815 497 q 917 614 867 588 q 1038 640 967 640 q 1147 618 1100 640 q 1219 555 1194 596 q 1244 461 1244 515 q 1219 365 1244 405 q 1158 299 1194 324 q 1063 242 1122 274 q 983 195 1012 215 q 934 148 954 176 q 915 83 915 120 l 915 69 l 1248 69 l 1248 0 l 827 0 l 827 74 z "},"⅓":{"ha":1311,"x_min":8,"x_max":1261,"o":"m 130 888 l 8 888 l 8 940 q 95 948 63 940 q 140 972 126 956 q 154 1015 153 988 l 210 1015 l 210 383 l 130 383 l 130 888 m 289 -6 l 204 -5 l 882 1015 l 964 1015 l 289 -6 m 806 444 q 834 547 806 503 q 913 613 863 590 q 1022 636 962 636 q 1139 617 1088 636 q 1217 561 1189 598 q 1244 474 1244 525 q 1214 388 1244 426 q 1124 330 1183 350 q 1225 271 1188 313 q 1261 170 1261 230 q 1230 73 1261 114 q 1145 9 1199 31 q 1022 -13 1091 -13 q 906 10 956 -13 q 828 76 856 33 q 797 176 799 119 l 876 176 q 924 86 885 118 q 1022 54 963 54 q 1104 69 1069 54 q 1158 110 1139 83 q 1177 170 1177 136 q 1132 258 1177 226 q 1016 290 1087 290 l 959 292 l 959 358 l 1013 360 q 1088 376 1054 360 q 1141 416 1122 391 q 1160 471 1160 442 q 1143 521 1160 498 q 1096 557 1127 544 q 1022 571 1065 571 q 956 557 987 571 q 905 515 924 543 q 883 444 885 486 l 806 444 z "},"⅔":{"ha":1418,"x_min":33,"x_max":1368,"o":"m 46 462 q 72 559 46 518 q 134 625 97 599 q 231 685 170 651 q 311 734 282 713 q 360 783 340 754 q 381 849 381 811 q 346 928 381 898 q 253 958 311 958 q 153 923 192 958 q 110 829 115 888 l 33 829 q 60 930 34 885 q 136 1001 86 975 q 257 1028 186 1028 q 366 1006 319 1028 q 438 943 413 983 q 463 849 463 902 q 438 752 463 792 q 376 686 413 712 q 281 629 340 661 q 202 583 231 602 q 153 535 173 563 q 133 470 133 508 l 133 457 l 467 457 l 467 388 l 46 388 l 46 462 m 396 -6 l 311 -5 l 989 1015 l 1071 1015 l 396 -6 m 913 444 q 941 547 913 503 q 1019 613 970 590 q 1129 636 1069 636 q 1245 617 1195 636 q 1324 561 1296 598 q 1351 474 1351 525 q 1321 388 1351 426 q 1231 330 1290 350 q 1332 271 1295 313 q 1368 170 1368 230 q 1337 73 1368 114 q 1252 9 1306 31 q 1128 -13 1198 -13 q 1013 10 1063 -13 q 935 76 963 33 q 904 176 906 119 l 983 176 q 1031 86 992 118 q 1129 54 1069 54 q 1211 69 1176 54 q 1265 110 1246 83 q 1284 170 1284 136 q 1239 258 1284 226 q 1123 290 1194 290 l 1066 292 l 1066 358 l 1120 360 q 1195 376 1161 360 q 1248 416 1228 391 q 1267 471 1267 442 q 1250 521 1267 498 q 1203 557 1234 544 q 1129 571 1172 571 q 1063 557 1094 571 q 1011 515 1031 543 q 990 444 992 486 l 913 444 z "},"¼":{"ha":1277,"x_min":8,"x_max":1212,"o":"m 130 888 l 8 888 l 8 940 q 95 948 63 940 q 140 972 126 956 q 154 1015 153 988 l 210 1015 l 210 383 l 130 383 l 130 888 m 289 -6 l 204 -5 l 882 1015 l 964 1015 l 289 -6 m 1106 632 l 1106 232 l 1212 232 l 1212 163 l 1106 163 l 1106 0 l 1029 0 l 1030 163 l 732 163 l 732 235 l 1026 632 l 1106 632 m 1028 232 l 1028 528 l 807 232 l 1028 232 z "},"¾":{"ha":1413,"x_min":35,"x_max":1348,"o":"m 43 835 q 72 938 43 894 q 150 1005 101 982 q 260 1028 199 1028 q 376 1009 326 1028 q 454 953 426 990 q 482 865 482 917 q 451 780 482 817 q 361 722 421 742 q 462 663 426 704 q 499 562 499 622 q 468 464 499 506 q 383 401 437 423 q 259 378 328 378 q 144 402 194 378 q 65 468 94 425 q 35 568 37 510 l 113 568 q 161 478 122 510 q 260 446 200 446 q 341 460 306 446 q 395 501 376 475 q 415 562 415 528 q 369 650 415 618 q 253 682 324 681 l 197 683 l 197 750 l 251 751 q 325 767 292 752 q 378 808 359 783 q 397 863 397 833 q 381 913 397 890 q 333 949 365 935 q 260 963 302 963 q 193 949 224 963 q 142 906 162 935 q 121 835 122 878 l 43 835 m 424 -6 l 340 -5 l 1017 1015 l 1099 1015 l 424 -6 m 1242 632 l 1242 232 l 1348 232 l 1348 163 l 1242 163 l 1242 0 l 1165 0 l 1166 163 l 868 163 l 868 235 l 1163 632 l 1242 632 m 1164 232 l 1164 528 l 943 232 l 1164 232 z "},"⅛":{"ha":1312,"x_min":8,"x_max":1270,"o":"m 130 888 l 8 888 l 8 940 q 95 948 63 940 q 140 972 126 956 q 154 1015 153 988 l 210 1015 l 210 383 l 130 383 l 130 888 m 289 -6 l 204 -5 l 882 1015 l 964 1015 l 289 -6 m 1030 637 q 1139 617 1090 637 q 1214 558 1187 597 q 1242 465 1242 519 q 1142 329 1242 371 q 1204 299 1174 323 q 1252 241 1233 275 q 1270 171 1270 206 q 1240 76 1270 117 q 1156 14 1210 36 q 1030 -8 1102 -8 q 903 14 958 -8 q 820 76 849 35 q 790 171 790 117 q 809 241 790 206 q 857 299 827 275 q 918 329 886 323 q 817 465 817 371 q 845 558 817 519 q 921 617 873 597 q 1030 637 969 637 m 1030 363 q 1125 390 1090 363 q 1161 467 1161 417 q 1125 548 1161 518 q 1030 578 1088 578 q 934 548 971 578 q 898 467 898 518 q 934 390 898 417 q 1030 363 970 363 m 1030 54 q 1143 86 1101 54 q 1185 172 1185 118 q 1166 234 1185 206 q 1112 277 1147 261 q 1030 292 1076 292 q 948 277 983 292 q 893 234 913 261 q 874 172 874 206 q 917 86 874 118 q 1030 54 959 54 z "},"⅜":{"ha":1448,"x_min":35,"x_max":1406,"o":"m 43 835 q 72 938 43 894 q 150 1005 101 982 q 260 1028 199 1028 q 376 1009 326 1028 q 454 953 426 990 q 482 865 482 917 q 451 780 482 817 q 361 722 421 742 q 462 663 426 704 q 499 562 499 622 q 468 464 499 506 q 383 401 437 423 q 259 378 328 378 q 144 402 194 378 q 65 468 94 425 q 35 568 37 510 l 113 568 q 161 478 122 510 q 260 446 200 446 q 341 460 306 446 q 395 501 376 475 q 415 562 415 528 q 369 650 415 618 q 253 682 324 681 l 197 683 l 197 750 l 251 751 q 325 767 292 752 q 378 808 359 783 q 397 863 397 833 q 381 913 397 890 q 333 949 365 935 q 260 963 302 963 q 193 949 224 963 q 142 906 162 935 q 121 835 122 878 l 43 835 m 424 -6 l 340 -5 l 1017 1015 l 1099 1015 l 424 -6 m 1166 637 q 1275 617 1226 637 q 1350 558 1323 597 q 1378 465 1378 519 q 1278 329 1378 371 q 1340 299 1310 323 q 1388 241 1369 275 q 1406 171 1406 206 q 1376 76 1406 117 q 1292 14 1347 36 q 1166 -8 1238 -8 q 1040 14 1094 -8 q 956 76 985 35 q 926 171 926 117 q 945 241 926 206 q 993 299 963 275 q 1054 329 1022 323 q 953 465 953 371 q 981 558 953 519 q 1057 617 1009 597 q 1166 637 1106 637 m 1166 363 q 1261 390 1226 363 q 1297 467 1297 417 q 1261 548 1297 518 q 1166 578 1224 578 q 1070 548 1107 578 q 1034 467 1034 518 q 1070 390 1034 417 q 1166 363 1106 363 m 1166 54 q 1279 86 1237 54 q 1322 172 1322 118 q 1302 234 1322 206 q 1248 277 1283 261 q 1166 292 1213 292 q 1084 277 1119 292 q 1030 234 1049 261 q 1010 172 1010 206 q 1053 86 1010 118 q 1166 54 1095 54 z "},"⅝":{"ha":1449,"x_min":37,"x_max":1408,"o":"m 472 1015 l 470 947 l 164 947 l 147 740 q 215 782 178 769 q 298 795 252 795 q 404 772 356 795 q 481 701 452 748 q 510 590 510 655 q 482 476 510 525 q 402 401 453 428 q 281 374 350 374 q 174 395 224 374 q 88 452 124 415 q 37 537 53 489 l 105 565 q 172 474 128 508 q 276 441 215 441 q 385 480 344 441 q 426 588 426 519 q 407 661 426 629 q 355 711 388 693 q 282 728 322 728 q 208 716 239 728 q 143 665 176 703 q 139 665 140 665 q 135 666 137 665 l 68 686 l 97 1015 l 472 1015 m 426 -6 l 341 -5 l 1019 1015 l 1101 1015 l 426 -6 m 1167 637 q 1276 617 1228 637 q 1352 558 1324 597 q 1379 465 1379 519 q 1280 329 1379 371 q 1341 299 1312 323 q 1389 241 1371 275 q 1408 171 1408 206 q 1378 76 1408 117 q 1294 14 1348 36 q 1167 -8 1240 -8 q 1041 14 1095 -8 q 957 76 987 35 q 928 171 928 117 q 946 241 928 206 q 994 299 965 275 q 1056 329 1024 323 q 955 465 955 371 q 983 558 955 519 q 1059 617 1010 597 q 1167 637 1107 637 m 1167 363 q 1263 390 1227 363 q 1299 467 1299 417 q 1262 548 1299 518 q 1167 578 1226 578 q 1072 548 1108 578 q 1035 467 1035 518 q 1072 390 1035 417 q 1167 363 1108 363 m 1167 54 q 1281 86 1238 54 q 1323 172 1323 118 q 1304 234 1323 206 q 1249 277 1285 261 q 1167 292 1214 292 q 1085 277 1121 292 q 1031 234 1050 261 q 1012 172 1012 206 q 1054 86 1012 118 q 1167 54 1097 54 z "},"⅞":{"ha":1404,"x_min":47,"x_max":1363,"o":"m 488 1014 l 488 946 q 380 763 433 871 q 290 551 327 656 q 245 382 253 447 l 160 382 q 202 541 172 447 q 284 742 233 635 q 402 946 335 849 l 47 946 l 47 1014 l 488 1014 m 381 -6 l 297 -5 l 974 1015 l 1056 1015 l 381 -6 m 1122 637 q 1231 617 1183 637 q 1307 558 1279 597 q 1334 465 1334 519 q 1235 329 1334 371 q 1296 299 1267 323 q 1344 241 1326 275 q 1363 171 1363 206 q 1333 76 1363 117 q 1249 14 1303 36 q 1122 -8 1194 -8 q 996 14 1050 -8 q 912 76 942 35 q 883 171 883 117 q 901 241 883 206 q 949 299 919 275 q 1010 329 978 323 q 910 465 910 371 q 938 558 910 519 q 1014 617 965 597 q 1122 637 1062 637 m 1122 363 q 1218 390 1182 363 q 1253 467 1253 417 q 1217 548 1253 518 q 1122 578 1181 578 q 1027 548 1063 578 q 990 467 990 518 q 1026 390 990 417 q 1122 363 1063 363 m 1122 54 q 1235 86 1193 54 q 1278 172 1278 118 q 1259 234 1278 206 q 1204 277 1240 261 q 1122 292 1169 292 q 1040 277 1076 292 q 986 234 1005 261 q 967 172 967 206 q 1009 86 967 118 q 1122 54 1051 54 z "},".":{"ha":310,"x_min":76,"x_max":226,"o":"m 226 0 l 76 0 l 76 160 l 226 160 l 226 0 z "},",":{"ha":333,"x_min":60,"x_max":235,"o":"m 138 -3 l 78 1 l 78 152 l 235 152 l 235 20 l 119 -173 l 60 -173 l 138 -3 z "},":":{"ha":310,"x_min":76,"x_max":226,"o":"m 226 529 l 76 529 l 76 689 l 226 689 l 226 529 m 226 4 l 76 4 l 76 163 l 226 163 l 226 4 z "},";":{"ha":331,"x_min":76,"x_max":247,"o":"m 93 688 l 242 688 l 242 526 l 93 526 l 93 688 m 156 0 l 98 0 l 98 159 l 247 159 l 247 18 l 131 -197 l 76 -197 l 156 0 z "},"…":{"ha":1055,"x_min":90,"x_max":988,"o":"m 988 0 l 838 0 l 838 160 l 988 160 l 988 0 m 240 0 l 90 0 l 90 160 l 240 160 l 240 0 m 614 0 l 464 0 l 464 160 l 614 160 l 614 0 z "},"!":{"ha":347,"x_min":95,"x_max":245,"o":"m 213 252 l 128 252 l 96 1004 l 245 1004 l 213 252 m 244 0 l 95 0 l 95 159 l 244 159 l 244 0 z "},"¡":{"ha":344,"x_min":95,"x_max":245,"o":"m 95 559 l 95 718 l 244 718 l 244 559 l 95 559 m 96 -224 l 128 465 l 212 465 l 245 -224 l 96 -224 z "},"?":{"ha":736,"x_min":33,"x_max":669,"o":"m 33 819 q 164 965 77 913 q 362 1018 251 1018 q 523 988 453 1018 q 631 902 592 957 q 669 777 669 847 q 650 677 669 722 q 603 597 631 631 q 529 515 576 563 q 456 433 483 467 q 410 354 428 399 q 391 255 391 309 l 284 255 q 304 376 284 322 q 353 470 324 430 q 429 562 383 510 q 490 634 467 605 q 526 697 512 663 q 541 772 541 732 q 518 851 541 817 q 455 904 496 885 q 361 922 415 922 q 272 904 316 922 q 193 855 227 886 q 144 785 160 824 l 33 819 m 413 0 l 264 0 l 264 159 l 413 159 l 413 0 z "},"¿":{"ha":717,"x_min":44,"x_max":680,"o":"m 301 718 l 450 718 l 450 559 l 301 559 l 301 718 m 680 -37 q 549 -185 635 -132 q 351 -237 463 -237 q 186 -207 255 -237 q 80 -120 117 -176 q 44 6 44 -65 q 63 99 44 59 q 108 168 81 140 q 182 235 135 197 q 256 303 228 274 q 302 373 283 332 q 321 467 321 413 l 428 467 q 408 351 428 401 q 359 268 388 301 q 282 191 330 235 q 223 133 244 156 q 187 79 201 110 q 172 10 172 48 q 195 -69 172 -35 q 258 -121 217 -103 q 351 -140 299 -140 q 441 -122 397 -140 q 519 -72 485 -103 q 568 -3 553 -41 l 680 -37 z "},"·":{"ha":317,"x_min":76,"x_max":233,"o":"m 233 431 l 76 431 l 76 581 l 233 581 l 233 431 z "},"•":{"ha":437,"x_min":81,"x_max":349,"o":"m 215 376 q 148 394 178 376 q 99 443 117 413 q 81 511 81 474 q 99 578 81 547 q 148 626 117 608 q 215 644 178 644 q 282 626 251 644 q 331 578 313 608 q 349 511 349 547 q 331 443 349 474 q 282 394 313 413 q 215 376 251 376 z "},"*":{"ha":542,"x_min":37,"x_max":507,"o":"m 274 715 l 163 535 l 88 587 l 219 749 l 37 801 l 65 880 l 238 810 l 226 1004 l 319 1004 l 306 810 l 482 885 l 507 806 l 330 750 l 457 594 l 381 540 l 274 715 z "},"#":{"ha":837,"x_min":51,"x_max":781,"o":"m 620 611 l 588 403 l 736 403 l 736 326 l 577 326 l 527 -2 l 449 9 l 498 326 l 292 326 l 243 -2 l 165 9 l 214 326 l 51 326 l 51 403 l 226 403 l 257 611 l 96 611 l 96 688 l 269 688 l 317 1006 l 394 997 l 347 688 l 553 688 l 601 1006 l 678 997 l 632 688 l 781 688 l 781 611 l 620 611 m 541 611 l 335 611 l 304 403 l 510 403 l 541 611 z "},"/":{"ha":485,"x_min":19,"x_max":464,"o":"m 366 1004 l 464 1004 l 116 -56 l 19 -56 l 366 1004 z "},"\\":{"ha":485,"x_min":17,"x_max":462,"o":"m 17 1004 l 114 1004 l 462 -56 l 363 -56 l 17 1004 z "},"(":{"ha":418,"x_min":98,"x_max":381,"o":"m 381 1058 q 263 756 306 915 q 219 438 219 596 q 256 137 219 285 q 369 -170 294 -10 l 285 -170 q 183 29 223 -65 q 120 224 142 122 q 98 440 98 326 q 151 764 98 605 q 296 1058 204 923 l 381 1058 z "},")":{"ha":427,"x_min":28,"x_max":311,"o":"m 113 1058 q 258 764 204 922 q 311 440 311 605 q 289 224 311 326 q 226 29 267 122 q 124 -170 185 -65 l 39 -170 q 153 138 115 -10 q 190 438 190 285 q 147 756 190 596 q 28 1058 103 915 l 113 1058 z "},"{":{"ha":451,"x_min":12,"x_max":414,"o":"m 169 863 q 192 938 169 906 q 255 987 215 970 q 346 1004 294 1004 l 414 1004 l 414 924 l 365 924 q 297 906 315 924 q 278 852 278 889 l 278 556 q 239 443 278 483 q 142 398 199 403 q 133 393 133 397 q 142 389 133 390 q 239 346 200 384 q 278 231 278 308 l 278 -69 q 298 -126 278 -108 q 366 -143 317 -143 l 414 -143 l 414 -224 l 348 -224 q 253 -206 294 -224 q 191 -156 213 -188 q 169 -79 169 -123 l 169 222 q 151 287 169 256 q 98 336 133 317 q 12 355 63 355 l 12 431 q 129 469 90 432 q 169 570 169 507 l 169 863 z "},"}":{"ha":457,"x_min":27,"x_max":430,"o":"m 273 570 q 312 469 273 506 q 430 431 351 432 l 430 355 q 344 336 379 355 q 291 287 308 317 q 273 222 273 256 l 273 -79 q 251 -156 273 -123 q 188 -206 228 -188 q 93 -224 147 -224 l 27 -224 l 27 -143 l 76 -143 q 144 -126 125 -143 q 163 -69 163 -108 l 163 231 q 202 346 163 308 q 299 389 241 384 q 308 393 308 390 q 299 398 308 397 q 202 443 242 403 q 163 556 163 483 l 163 852 q 144 906 163 889 q 76 924 126 924 l 27 924 l 27 1004 l 95 1004 q 187 987 147 1004 q 250 938 227 970 q 273 863 273 906 l 273 570 z "},"[":{"ha":418,"x_min":126,"x_max":381,"o":"m 381 1004 l 381 924 l 236 924 l 235 -143 l 381 -143 l 381 -224 l 126 -224 l 126 1004 l 381 1004 z "},"]":{"ha":438,"x_min":29,"x_max":285,"o":"m 284 -224 l 30 -224 l 30 -143 l 176 -143 l 174 924 l 29 924 l 29 1004 l 285 1004 l 284 -224 z "},"-":{"ha":527,"x_min":86,"x_max":437,"o":"m 437 310 l 86 309 l 86 408 l 437 408 l 437 310 z "},"­":{"ha":527,"x_min":86,"x_max":437,"o":"m 437 310 l 86 309 l 86 408 l 437 408 l 437 310 z "},"–":{"ha":772,"x_min":86,"x_max":682,"o":"m 682 300 l 86 299 l 86 397 l 682 398 l 682 300 z "},"—":{"ha":1209,"x_min":86,"x_max":1119,"o":"m 1119 300 l 86 299 l 86 397 l 1119 398 l 1119 300 z "},"_":{"ha":716,"x_min":86,"x_max":628,"o":"m 628 -162 l 86 -163 l 86 -65 l 628 -65 l 628 -162 z "},"‚":{"ha":333,"x_min":60,"x_max":235,"o":"m 137 -2 l 78 1 l 78 153 l 235 153 l 235 22 l 119 -172 l 60 -172 l 137 -2 z "},"„":{"ha":585,"x_min":60,"x_max":488,"o":"m 390 -2 l 331 1 l 331 153 l 488 153 l 488 22 l 372 -172 l 313 -172 l 390 -2 m 137 -2 l 78 1 l 78 153 l 235 153 l 235 22 l 119 -172 l 60 -172 l 137 -2 z "},"“":{"ha":578,"x_min":75,"x_max":497,"o":"m 75 812 l 192 1004 l 251 1004 l 174 834 l 233 831 l 233 680 l 75 680 l 75 812 m 322 812 l 439 1004 l 497 1004 l 419 834 l 480 831 l 480 680 l 322 680 l 322 812 z "},"”":{"ha":549,"x_min":69,"x_max":491,"o":"m 147 851 l 88 854 l 88 1004 l 245 1004 l 245 873 l 128 680 l 69 680 l 147 851 m 393 851 l 334 854 l 334 1004 l 491 1004 l 491 873 l 374 680 l 315 680 l 393 851 z "},"‘":{"ha":331,"x_min":75,"x_max":251,"o":"m 174 877 l 233 874 l 233 724 l 75 724 l 75 855 l 192 1048 l 251 1048 l 174 877 z "},"’":{"ha":303,"x_min":69,"x_max":245,"o":"m 147 851 l 88 854 l 88 1004 l 245 1004 l 245 873 l 128 680 l 69 680 l 147 851 z "},"«":{"ha":628,"x_min":56,"x_max":554,"o":"m 308 98 l 238 98 l 56 349 l 238 610 l 310 610 l 169 349 l 308 98 m 553 98 l 482 98 l 299 349 l 483 610 l 554 610 l 413 349 l 553 98 z "},"»":{"ha":627,"x_min":69,"x_max":567,"o":"m 69 610 l 140 610 l 323 349 l 141 98 l 71 98 l 210 349 l 69 610 m 313 610 l 385 610 l 567 349 l 385 98 l 315 98 l 455 349 l 313 610 z "},"‹":{"ha":384,"x_min":56,"x_max":310,"o":"m 308 98 l 238 98 l 56 349 l 238 610 l 310 610 l 169 349 l 308 98 z "},"›":{"ha":383,"x_min":69,"x_max":323,"o":"m 69 610 l 140 610 l 323 349 l 141 98 l 71 98 l 210 349 l 69 610 z "},"\"":{"ha":587,"x_min":95,"x_max":491,"o":"m 450 683 l 378 683 l 338 1004 l 491 1004 l 450 683 m 207 683 l 135 683 l 95 1004 l 248 1004 l 207 683 z "},"'":{"ha":344,"x_min":95,"x_max":248,"o":"m 207 683 l 135 683 l 95 1004 l 248 1004 l 207 683 z "}," ":{"ha":318,"x_min":0,"x_max":0,"o":""},"¢":{"ha":753,"x_min":69,"x_max":683,"o":"m 403 235 q 514 274 468 235 q 574 374 560 312 l 683 374 q 604 216 668 276 q 447 144 540 157 l 447 0 l 353 0 l 353 143 q 204 201 268 153 q 105 330 140 250 q 69 510 69 409 q 104 692 69 611 q 203 823 139 774 q 353 883 267 873 l 353 1004 l 447 1004 l 447 883 q 606 807 542 869 q 683 648 669 745 l 573 646 q 511 749 556 713 q 403 785 466 785 q 289 752 338 785 q 215 657 241 719 q 189 513 189 595 q 215 366 189 428 q 290 269 241 303 q 403 235 338 235 z "},"₡":{"ha":808,"x_min":69,"x_max":683,"o":"m 403 224 q 514 263 468 224 q 574 363 560 301 l 683 363 q 612 213 669 271 q 471 137 556 155 l 435 1 l 353 2 l 387 129 q 308 140 349 130 l 272 1 l 190 2 l 234 170 q 113 300 156 215 q 69 499 69 386 q 100 671 69 594 q 188 799 131 749 q 322 867 244 850 l 359 1003 l 440 1004 l 406 875 q 484 864 444 874 l 523 1003 l 603 1004 l 558 833 q 642 752 609 802 q 683 637 674 702 l 573 635 q 511 738 556 701 q 403 774 466 774 q 289 741 338 774 q 215 646 241 708 q 189 501 189 584 q 215 355 189 417 q 290 258 241 292 q 403 224 338 224 z "},"¤":{"ha":747,"x_min":72,"x_max":665,"o":"m 371 242 q 226 285 290 242 q 217 288 221 288 q 207 283 211 288 l 133 207 l 72 272 l 154 352 q 107 505 107 422 q 149 647 107 584 q 152 657 152 653 q 147 666 152 661 l 73 741 l 135 803 l 217 718 q 289 755 249 742 q 369 767 328 767 q 444 756 408 767 q 512 724 481 745 q 521 721 519 721 q 529 725 525 721 l 603 800 l 664 738 l 583 656 q 631 506 631 587 q 620 429 631 466 q 588 363 609 392 q 585 355 585 358 q 589 347 585 352 l 665 274 l 605 212 l 523 293 q 371 242 451 242 m 372 337 q 457 360 418 337 q 517 422 495 383 q 539 506 539 461 q 517 588 539 549 q 457 651 495 627 q 372 674 418 674 q 286 651 324 674 q 225 588 247 627 q 203 506 203 549 q 225 422 203 461 q 286 360 247 383 q 372 337 324 337 z "},"$":{"ha":913,"x_min":84,"x_max":829,"o":"m 829 258 q 791 129 829 187 q 685 34 753 71 q 525 -11 616 -2 l 525 -146 l 409 -146 l 409 -11 q 187 69 273 1 q 84 256 101 138 l 215 265 q 303 136 236 180 q 469 93 369 93 q 581 114 528 93 q 664 172 633 134 q 696 257 696 209 q 656 364 696 323 q 531 427 617 404 l 357 473 q 115 726 115 535 q 152 865 115 803 q 259 966 190 927 q 417 1014 328 1004 l 417 1155 l 533 1155 l 533 1013 q 678 962 616 1002 q 774 863 740 922 q 810 734 808 803 l 684 726 q 617 864 668 818 q 474 910 565 910 q 364 890 415 910 q 280 831 312 870 q 249 737 249 792 q 265 674 249 700 q 319 628 281 649 q 426 588 358 608 l 594 540 q 772 432 715 505 q 829 258 829 360 z "},"₫":{"ha":704,"x_min":58,"x_max":681,"o":"m 681 917 l 681 849 l 596 849 l 596 183 l 491 183 l 491 265 q 447 220 468 239 q 390 186 426 201 q 303 172 353 172 q 178 205 233 172 q 90 306 122 239 q 58 469 58 373 q 91 633 58 562 q 183 743 124 704 q 316 783 242 783 q 402 766 367 783 q 471 720 438 750 q 483 714 479 714 q 488 728 488 714 l 488 849 l 303 849 l 303 917 l 488 917 l 488 1003 l 596 1003 l 596 917 l 681 917 m 485 634 q 419 684 453 667 q 344 701 385 701 q 255 675 294 701 q 195 597 217 649 q 174 472 174 546 q 195 348 174 397 q 255 274 217 298 q 341 251 293 251 q 415 269 381 251 q 467 316 448 288 q 485 374 485 344 l 485 634 m 90 71 l 601 71 l 601 0 l 90 0 l 90 71 z "},"€":{"ha":828,"x_min":-15,"x_max":776,"o":"m 776 87 q 659 13 725 40 q 520 -14 593 -14 q 329 30 413 -14 q 189 156 244 74 q 113 353 134 239 l -15 353 l -15 433 l 102 433 q 99 504 99 464 q 102 575 99 544 l -15 575 l -15 653 l 113 653 q 189 850 134 768 q 326 975 243 932 q 515 1018 410 1018 q 655 991 588 1018 q 773 917 722 965 l 687 839 q 609 892 648 873 q 525 911 571 911 q 350 847 417 911 q 258 654 282 783 l 534 655 l 534 576 l 248 575 q 245 503 245 544 q 248 433 245 463 l 534 434 l 534 355 l 258 354 q 353 163 283 227 q 535 98 424 98 q 628 117 583 98 q 707 167 673 136 l 776 87 z "}}}
